<svg width="288" height="72" viewBox="0 0 288 72" fill="none" xmlns="http://www.w3.org/2000/svg">
<g filter="url(#filter0_d_57_3273)">
<rect x="16" y="8" width="256" height="40" fill="white"/>
</g>
<path d="M45.2727 28.3636C45.5964 28.3636 45.9127 28.2677 46.1818 28.0879C46.4509 27.9081 46.6607 27.6525 46.7845 27.3535C46.9084 27.0545 46.9408 26.7255 46.8776 26.408C46.8145 26.0906 46.6587 25.799 46.4298 25.5702C46.201 25.3413 45.9094 25.1855 45.592 25.1224C45.2745 25.0592 44.9455 25.0916 44.6465 25.2155C44.3475 25.3393 44.0919 25.5491 43.9121 25.8182C43.7323 26.0873 43.6364 26.4036 43.6364 26.7273C43.6364 27.1613 43.8088 27.5775 44.1156 27.8844C44.4225 28.1912 44.8387 28.3636 45.2727 28.3636ZM45.2727 26.1818C45.3806 26.1818 45.4861 26.2138 45.5758 26.2737C45.6655 26.3337 45.7354 26.4189 45.7767 26.5185C45.8179 26.6182 45.8287 26.7279 45.8077 26.8337C45.7867 26.9395 45.7347 27.0367 45.6584 27.113C45.5821 27.1893 45.4849 27.2412 45.3791 27.2622C45.2733 27.2833 45.1637 27.2725 45.064 27.2312C44.9643 27.1899 44.8791 27.12 44.8192 27.0303C44.7593 26.9406 44.7273 26.8352 44.7273 26.7273C44.7273 26.5826 44.7847 26.4439 44.887 26.3416C44.9893 26.2393 45.1281 26.1818 45.2727 26.1818ZM52.3636 25.0909H48C47.8553 25.0909 47.7166 25.1484 47.6143 25.2507C47.512 25.353 47.4545 25.4917 47.4545 25.6364V28.9091H43.0909V24.5455C43.0909 24.4008 43.0334 24.2621 42.9311 24.1598C42.8289 24.0575 42.6901 24 42.5455 24C42.4008 24 42.2621 24.0575 42.1598 24.1598C42.0575 24.2621 42 24.4008 42 24.5455V31.6364C42 31.781 42.0575 31.9198 42.1598 32.0221C42.2621 32.1244 42.4008 32.1818 42.5455 32.1818C42.6901 32.1818 42.8289 32.1244 42.9311 32.0221C43.0334 31.9198 43.0909 31.781 43.0909 31.6364V30H52.9091V31.6364C52.9091 31.781 52.9666 31.9198 53.0689 32.0221C53.1711 32.1244 53.3099 32.1818 53.4545 32.1818C53.5992 32.1818 53.7379 32.1244 53.8402 32.0221C53.9425 31.9198 54 31.781 54 31.6364V26.7273C54 26.2933 53.8276 25.8771 53.5207 25.5702C53.2138 25.2633 52.7976 25.0909 52.3636 25.0909ZM52.9091 28.9091H48.5455V26.1818H52.3636C52.5083 26.1818 52.647 26.2393 52.7493 26.3416C52.8516 26.4439 52.9091 26.5826 52.9091 26.7273V28.9091Z" fill="#222222"/>
<path d="M79.95 29.321C79.2431 29.321 78.5363 29.612 78.0789 30.1526C77.6631 30.6515 76.9147 29.9862 77.3305 29.4873C77.9958 28.7388 78.9521 28.3231 79.95 28.3231C80.9479 28.3231 81.9042 28.7388 82.5695 29.4873C82.9853 29.9862 82.2369 30.6515 81.8211 30.1526C81.3637 29.612 80.6569 29.321 79.95 29.321ZM79.95 32.8137C79.4095 32.8137 78.9521 32.3563 78.9521 31.8157C78.9521 31.2752 79.4095 30.8178 79.95 30.8178C80.4905 30.8178 80.9479 31.2752 80.9479 31.8157C80.9479 32.3563 80.4905 32.8137 79.95 32.8137ZM79.95 26.8262C78.6195 26.8262 77.4136 27.2836 76.4573 28.2399C76.0415 28.6557 75.2515 28.032 75.7505 27.533C76.8731 26.4104 78.37 25.8283 79.95 25.8283C81.53 25.8283 83.0269 26.4104 84.1495 27.533C84.6485 28.032 83.8585 28.6557 83.4427 28.2399C82.4864 27.2836 81.2805 26.8262 79.95 26.8262ZM79.95 24.3314C78.0373 24.3314 76.2494 25.0383 74.8773 26.3272C74.3783 26.7846 73.6715 26.0778 74.1704 25.6204C75.792 24.1235 77.7879 23.3335 79.95 23.3335C82.1121 23.3335 84.108 24.1235 85.7296 25.6204C86.2285 26.0778 85.5217 26.7846 85.0227 26.3272C83.6506 25.0383 81.8627 24.3314 79.95 24.3314Z" fill="#222222"/>
<g clip-path="url(#clip0_57_3273)">
<path fill-rule="evenodd" clip-rule="evenodd" d="M107.756 26.2886L107.933 25.7577H107.636C107.368 25.7577 107.151 25.5408 107.151 25.2729C107.151 25.005 107.368 24.788 107.636 24.788C107.933 24.788 108.256 24.788 108.256 24.788C108.256 24.788 108.488 24.0942 108.631 23.6651C108.697 23.4671 108.882 23.3335 109.091 23.3335C110.222 23.3335 113.778 23.3335 114.909 23.3335C115.118 23.3335 115.303 23.4671 115.369 23.6651L115.743 24.788H116.364C116.631 24.788 116.848 25.005 116.848 25.2729C116.848 25.5408 116.631 25.7577 116.364 25.7577H116.067L116.244 26.2886C116.87 26.4506 117.333 27.0198 117.333 27.6971V32.0608C117.333 32.3286 117.116 32.5456 116.848 32.5456C116.552 32.5456 116.175 32.5456 115.879 32.5456C115.611 32.5456 115.394 32.3286 115.394 32.0608V31.5759H108.606V32.0608C108.606 32.3286 108.389 32.5456 108.121 32.5456C107.825 32.5456 107.448 32.5456 107.151 32.5456C106.884 32.5456 106.667 32.3286 106.667 32.0608C106.667 31.1386 106.667 29.0988 106.667 27.6971C106.667 27.0198 107.13 26.4506 107.756 26.2886ZM108.606 28.182C108.874 28.182 109.091 28.399 109.091 28.6668C109.091 28.9347 108.874 29.1517 108.606 29.1517C108.183 29.1517 107.636 29.1517 107.636 29.1517V30.6062H109.276C109.276 30.6062 109.846 29.4671 110.112 28.9349C110.194 28.7706 110.362 28.6668 110.545 28.6668C111.208 28.6668 112.792 28.6668 113.455 28.6668C113.638 28.6668 113.806 28.7706 113.888 28.9349C114.154 29.4671 114.724 30.6062 114.724 30.6062H116.364V29.1517H115.394C115.126 29.1517 114.909 28.9347 114.909 28.6668C114.909 28.399 115.126 28.182 115.394 28.182C115.817 28.182 116.364 28.182 116.364 28.182V27.6971C116.364 27.4293 116.147 27.2123 115.879 27.2123C114.351 27.2123 109.649 27.2123 108.121 27.2123C107.853 27.2123 107.636 27.4293 107.636 27.6971V28.182H108.606ZM113.155 29.6365H110.845L110.36 30.6062H113.64L113.155 29.6365ZM109.44 24.3032L108.794 26.2426H115.206L114.559 24.3032H109.44Z" fill="#222222"/>
</g>
<path d="M148.832 30.3694L147.408 29.5529L148.646 29.0092C148.818 28.9334 148.897 28.7317 148.822 28.5587C148.748 28.3913 148.54 28.3092 148.371 28.3829L146.67 29.13L144.687 27.9928L146.661 26.8535L148.381 27.6025C148.556 27.6778 148.758 27.5917 148.83 27.425C148.905 27.252 148.825 27.0505 148.653 26.9758L147.397 26.4288L148.828 25.6025C148.907 25.5569 148.963 25.4832 148.987 25.3949C149.01 25.3067 148.998 25.2147 148.952 25.1357C148.861 24.9792 148.643 24.9197 148.486 25.0105L147.064 25.8312L147.216 24.4879C147.227 24.3968 147.201 24.3072 147.144 24.2354C147.087 24.1642 147.006 24.1194 146.916 24.1095C146.725 24.0869 146.557 24.2252 146.538 24.4115L146.345 26.2567L144.375 27.4025V25.1272L145.866 24.0132C145.936 23.9614 145.982 23.8849 145.995 23.7977C146.009 23.7065 145.985 23.611 145.929 23.5355C145.82 23.3879 145.612 23.354 145.463 23.4639L144.375 24.2755V22.6262C144.375 22.4249 144.177 22.2847 143.999 22.2847C143.822 22.2847 143.625 22.4249 143.625 22.6262V24.2655L142.553 23.4638C142.407 23.3549 142.193 23.3879 142.084 23.5354C142.027 23.6124 142.002 23.7094 142.016 23.8013C142.029 23.8872 142.074 23.9623 142.143 24.0124L143.625 25.1167V27.4014L141.685 26.2807L141.478 24.4343C141.458 24.262 141.314 24.1322 141.144 24.1322C141.13 24.1322 141.116 24.1329 141.103 24.1347C140.919 24.1558 140.785 24.3252 140.804 24.5138L140.962 25.8573L139.507 25.0227C139.456 24.9933 139.397 24.9777 139.338 24.9777C139.216 24.9777 139.102 25.0434 139.042 25.1494C138.949 25.3113 139.005 25.5203 139.168 25.6158L140.632 26.4555L139.378 27.0063C139.294 27.043 139.23 27.11 139.197 27.1949C139.164 27.2799 139.166 27.3728 139.203 27.4559C139.275 27.6219 139.476 27.7067 139.653 27.6324L141.37 26.8784L143.317 27.9947L141.366 29.121L139.663 28.3794C139.494 28.306 139.287 28.3884 139.214 28.5563C139.138 28.7287 139.218 28.9305 139.391 29.0065L140.63 29.546L139.177 30.3848C139.015 30.4798 138.959 30.6892 139.053 30.8515C139.113 30.9568 139.227 31.0222 139.349 31.0222C139.409 31.0222 139.469 31.006 139.519 30.9764L140.982 30.132L140.826 31.4948C140.816 31.5857 140.842 31.6749 140.9 31.7464C140.957 31.8175 141.038 31.8624 141.125 31.8719C141.139 31.8738 141.153 31.8742 141.167 31.8742C141.341 31.8742 141.487 31.7439 141.506 31.5702L141.702 29.7067L143.625 28.5883V30.8583L142.304 31.9629C142.163 32.081 142.147 32.2967 142.268 32.442C142.331 32.5204 142.431 32.5672 142.536 32.5672C142.63 32.5672 142.693 32.5267 142.741 32.489L143.625 31.7474V33.3739C143.625 33.5752 143.822 33.7154 143.999 33.7154C144.177 33.7154 144.375 33.5752 144.375 33.3739V31.7364L145.273 32.4905C145.422 32.6109 145.625 32.5824 145.739 32.4435C145.797 32.3744 145.827 32.2885 145.825 32.2014C145.822 32.1068 145.781 32.0219 145.71 31.9625L144.375 30.847V28.5829L146.338 29.7174L146.547 31.5812C146.567 31.753 146.711 31.8827 146.882 31.8827C146.898 31.8827 146.908 31.8818 146.919 31.8802C147.009 31.8703 147.089 31.8255 147.146 31.7545C147.203 31.6828 147.229 31.5929 147.218 31.5015L147.06 30.1407L148.492 30.962C148.544 30.9917 148.602 31.0073 148.662 31.0073C148.784 31.0073 148.898 30.9414 148.958 30.8354C149.051 30.6729 148.995 30.4638 148.832 30.3694Z" fill="#222222"/>
<path d="M174.051 27.1748L178.04 29.4778M175.191 24.5089L173.795 23.7029C173.63 23.6075 173.419 23.6641 173.323 23.8293L170.79 28.2172C170.694 28.3824 170.751 28.5937 170.916 28.6891L172.312 29.4951C172.478 29.5905 172.689 29.5339 172.784 29.3687L175.318 24.9808C175.413 24.8156 175.356 24.6043 175.191 24.5089ZM181.175 27.9635L179.778 27.1574C179.613 27.062 179.402 27.1186 179.307 27.2839L176.773 31.6717C176.678 31.837 176.734 32.0482 176.9 32.1436L178.296 32.9497C178.461 33.0451 178.672 32.9885 178.768 32.8232L181.301 28.4354C181.396 28.2701 181.34 28.0589 181.175 27.9635ZM169.87 26.3563L171.252 23.9629C171.347 23.7977 171.558 23.7411 171.723 23.8365L172.621 24.3547C172.786 24.45 172.843 24.6613 172.747 24.8266L171.366 27.2199C171.27 27.3852 171.059 27.4418 170.894 27.3464L169.996 26.8282C169.831 26.7328 169.774 26.5215 169.87 26.3563ZM180.839 32.6896L182.221 30.2963C182.317 30.131 182.26 29.9198 182.095 29.8244L181.197 29.3062C181.032 29.2108 180.821 29.2674 180.725 29.4326L179.343 31.826C179.248 31.9912 179.305 32.2025 179.47 32.2979L180.367 32.8161C180.533 32.9115 180.744 32.8549 180.839 32.6896Z" stroke="#222222" stroke-linecap="round" stroke-linejoin="round"/>
<g clip-path="url(#clip1_57_3273)">
<path d="M205.333 28.6667V31.3333M210.667 23.3333V23.6667C210.667 24.0203 210.807 24.3594 211.057 24.6095C211.307 24.8595 211.646 25 212 25C212.354 25 212.693 25.1405 212.943 25.3905C213.193 25.6406 213.333 25.9797 213.333 26.3333V26.6667M202 22L214 34M211.333 31.3333H202.667C202.49 31.3333 202.32 31.2631 202.195 31.1381C202.07 31.013 202 30.8435 202 30.6667V29.3333C202 29.1565 202.07 28.987 202.195 28.8619C202.32 28.7369 202.49 28.6667 202.667 28.6667H208.667M211.333 28.6667H213.333C213.51 28.6667 213.68 28.7369 213.805 28.8619C213.93 28.987 214 29.1565 214 29.3333V30.6667C214 30.8533 213.923 31.022 213.8 31.1427L211.333 28.6667Z" stroke="#222222" stroke-linecap="round" stroke-linejoin="round"/>
</g>
<path d="M240.36 29.8735L235.887 24.9935H244.833L240.36 29.8735ZM240.36 29.8735C240.36 30.2802 240.36 33.5335 240.36 33.5335M238.733 33.5335H241.987M237.513 26.6202H243.207M237.107 22.9602L239.953 26.6202M234.667 24.1802L239.14 21.3335H235.887L234.667 24.1802Z" stroke="#222222" stroke-miterlimit="10" stroke-linecap="round" stroke-linejoin="round"/>
<defs>
<filter id="filter0_d_57_3273" x="0" y="0" width="288" height="72" filterUnits="userSpaceOnUse" color-interpolation-filters="sRGB">
<feFlood flood-opacity="0" result="BackgroundImageFix"/>
<feColorMatrix in="SourceAlpha" type="matrix" values="0 0 0 0 0 0 0 0 0 0 0 0 0 0 0 0 0 0 127 0" result="hardAlpha"/>
<feOffset dy="8"/>
<feGaussianBlur stdDeviation="8"/>
<feComposite in2="hardAlpha" operator="out"/>
<feColorMatrix type="matrix" values="0 0 0 0 0.541176 0 0 0 0 0.541176 0 0 0 0 0.541176 0 0 0 0.05 0"/>
<feBlend mode="normal" in2="BackgroundImageFix" result="effect1_dropShadow_57_3273"/>
<feBlend mode="normal" in="SourceGraphic" in2="effect1_dropShadow_57_3273" result="shape"/>
</filter>
<clipPath id="clip0_57_3273">
<rect width="16" height="16" fill="white" transform="translate(104 20)"/>
</clipPath>
<clipPath id="clip1_57_3273">
<rect width="16" height="16" fill="white" transform="translate(200 20)"/>
</clipPath>
</defs>
</svg>
