<svg width="154" height="256" viewBox="0 0 154 256" fill="none" xmlns="http://www.w3.org/2000/svg">
<path d="M8.40625 5.89844V7.25781H0.609375V5.89844H8.40625ZM5.23438 2.57812V10.8594H3.78906V2.57812H5.23438ZM14.3672 0.625H18.1328C18.987 0.625 19.7083 0.755208 20.2969 1.01562C20.8906 1.27604 21.3411 1.66146 21.6484 2.17188C21.9609 2.67708 22.1172 3.29948 22.1172 4.03906C22.1172 4.5599 22.0104 5.03646 21.7969 5.46875C21.5885 5.89583 21.2865 6.26042 20.8906 6.5625C20.5 6.85938 20.0312 7.08073 19.4844 7.22656L19.0625 7.39062H15.5234L15.5078 6.16406H18.1797C18.7214 6.16406 19.1719 6.07031 19.5312 5.88281C19.8906 5.6901 20.1615 5.43229 20.3438 5.10938C20.526 4.78646 20.6172 4.42969 20.6172 4.03906C20.6172 3.60156 20.5312 3.21875 20.3594 2.89062C20.1875 2.5625 19.9167 2.3099 19.5469 2.13281C19.1823 1.95052 18.7109 1.85938 18.1328 1.85938H15.875V12H14.3672V0.625ZM21.0156 12L18.25 6.84375L19.8203 6.83594L22.625 11.9062V12H21.0156ZM27.5156 12.1562C26.9271 12.1562 26.3932 12.0573 25.9141 11.8594C25.4401 11.6562 25.0312 11.3724 24.6875 11.0078C24.349 10.6432 24.0885 10.2109 23.9062 9.71094C23.724 9.21094 23.6328 8.66406 23.6328 8.07031V7.74219C23.6328 7.05469 23.7344 6.44271 23.9375 5.90625C24.1406 5.36458 24.4167 4.90625 24.7656 4.53125C25.1146 4.15625 25.5104 3.8724 25.9531 3.67969C26.3958 3.48698 26.8542 3.39062 27.3281 3.39062C27.9323 3.39062 28.4531 3.49479 28.8906 3.70312C29.3333 3.91146 29.6953 4.20312 29.9766 4.57812C30.2578 4.94792 30.4661 5.38542 30.6016 5.89062C30.737 6.39062 30.8047 6.9375 30.8047 7.53125V8.17969H24.4922V7H29.3594V6.89062C29.3385 6.51562 29.2604 6.15104 29.125 5.79688C28.9948 5.44271 28.7865 5.15104 28.5 4.92188C28.2135 4.69271 27.8229 4.57812 27.3281 4.57812C27 4.57812 26.6979 4.64844 26.4219 4.78906C26.1458 4.92448 25.9089 5.1276 25.7109 5.39844C25.513 5.66927 25.3594 6 25.25 6.39062C25.1406 6.78125 25.0859 7.23177 25.0859 7.74219V8.07031C25.0859 8.47135 25.1406 8.84896 25.25 9.20312C25.3646 9.55208 25.5286 9.85938 25.7422 10.125C25.9609 10.3906 26.224 10.599 26.5312 10.75C26.8438 10.901 27.1979 10.9766 27.5938 10.9766C28.1042 10.9766 28.5365 10.8724 28.8906 10.6641C29.2448 10.4557 29.5547 10.1771 29.8203 9.82812L30.6953 10.5234C30.513 10.7995 30.2812 11.0625 30 11.3125C29.7188 11.5625 29.3724 11.7656 28.9609 11.9219C28.5547 12.0781 28.0729 12.1562 27.5156 12.1562ZM37.4141 9.75781C37.4141 9.54948 37.3672 9.35677 37.2734 9.17969C37.1849 8.9974 37 8.83333 36.7188 8.6875C36.4427 8.53646 36.026 8.40625 35.4688 8.29688C35 8.19792 34.5755 8.08073 34.1953 7.94531C33.8203 7.8099 33.5 7.64583 33.2344 7.45312C32.974 7.26042 32.7734 7.03385 32.6328 6.77344C32.4922 6.51302 32.4219 6.20833 32.4219 5.85938C32.4219 5.52604 32.4948 5.21094 32.6406 4.91406C32.7917 4.61719 33.0026 4.35417 33.2734 4.125C33.5495 3.89583 33.8802 3.71615 34.2656 3.58594C34.651 3.45573 35.0807 3.39062 35.5547 3.39062C36.2318 3.39062 36.8099 3.51042 37.2891 3.75C37.7682 3.98958 38.1354 4.3099 38.3906 4.71094C38.6458 5.10677 38.7734 5.54688 38.7734 6.03125H37.3281C37.3281 5.79688 37.2578 5.57031 37.1172 5.35156C36.9818 5.1276 36.7812 4.94271 36.5156 4.79688C36.2552 4.65104 35.9349 4.57812 35.5547 4.57812C35.1536 4.57812 34.8281 4.64062 34.5781 4.76562C34.3333 4.88542 34.1536 5.03906 34.0391 5.22656C33.9297 5.41406 33.875 5.61198 33.875 5.82031C33.875 5.97656 33.901 6.11719 33.9531 6.24219C34.0104 6.36198 34.1094 6.47396 34.25 6.57812C34.3906 6.67708 34.5885 6.77083 34.8438 6.85938C35.099 6.94792 35.4245 7.03646 35.8203 7.125C36.513 7.28125 37.0833 7.46875 37.5312 7.6875C37.9792 7.90625 38.3125 8.17448 38.5312 8.49219C38.75 8.8099 38.8594 9.19531 38.8594 9.64844C38.8594 10.0182 38.7812 10.3568 38.625 10.6641C38.474 10.9714 38.2526 11.237 37.9609 11.4609C37.6745 11.6797 37.3307 11.8516 36.9297 11.9766C36.5339 12.0964 36.0885 12.1562 35.5938 12.1562C34.849 12.1562 34.2188 12.0234 33.7031 11.7578C33.1875 11.4922 32.7969 11.1484 32.5312 10.7266C32.2656 10.3047 32.1328 9.85938 32.1328 9.39062H33.5859C33.6068 9.78646 33.7214 10.1016 33.9297 10.3359C34.138 10.5651 34.3932 10.7292 34.6953 10.8281C34.9974 10.9219 35.2969 10.9688 35.5938 10.9688C35.9896 10.9688 36.3203 10.9167 36.5859 10.8125C36.8568 10.7083 37.0625 10.5651 37.2031 10.3828C37.3438 10.2005 37.4141 9.99219 37.4141 9.75781ZM44.2969 3.54688V4.65625H39.7266V3.54688H44.2969ZM41.2734 1.49219H42.7188V9.90625C42.7188 10.1927 42.763 10.4089 42.8516 10.5547C42.9401 10.7005 43.0547 10.7969 43.1953 10.8438C43.3359 10.8906 43.487 10.9141 43.6484 10.9141C43.7682 10.9141 43.8932 10.9036 44.0234 10.8828C44.1589 10.8568 44.2604 10.8359 44.3281 10.8203L44.3359 12C44.2214 12.0365 44.0703 12.0703 43.8828 12.1016C43.7005 12.138 43.4792 12.1562 43.2188 12.1562C42.8646 12.1562 42.5391 12.0859 42.2422 11.9453C41.9453 11.8047 41.7083 11.5703 41.5312 11.2422C41.3594 10.9089 41.2734 10.4609 41.2734 9.89844V1.49219ZM51.1641 10.0469V3.54688H52.6172V12H51.2344L51.1641 10.0469ZM51.4375 8.26562L52.0391 8.25C52.0391 8.8125 51.9792 9.33333 51.8594 9.8125C51.7448 10.2865 51.5573 10.6979 51.2969 11.0469C51.0365 11.3958 50.6953 11.6693 50.2734 11.8672C49.8516 12.0599 49.3385 12.1562 48.7344 12.1562C48.3229 12.1562 47.9453 12.0964 47.6016 11.9766C47.263 11.8568 46.9714 11.6719 46.7266 11.4219C46.4818 11.1719 46.2917 10.8464 46.1562 10.4453C46.026 10.0443 45.9609 9.5625 45.9609 9V3.54688H47.4062V9.01562C47.4062 9.39583 47.4479 9.71094 47.5312 9.96094C47.6198 10.2057 47.737 10.401 47.8828 10.5469C48.0339 10.6875 48.2005 10.7865 48.3828 10.8438C48.5703 10.901 48.763 10.9297 48.9609 10.9297C49.5755 10.9297 50.0625 10.8125 50.4219 10.5781C50.7812 10.3385 51.0391 10.0182 51.1953 9.61719C51.3568 9.21094 51.4375 8.76042 51.4375 8.26562ZM56.2656 4.875V12H54.8203V3.54688H56.2266L56.2656 4.875ZM58.9062 3.5L58.8984 4.84375C58.7786 4.81771 58.6641 4.80208 58.5547 4.79688C58.4505 4.78646 58.3307 4.78125 58.1953 4.78125C57.862 4.78125 57.5677 4.83333 57.3125 4.9375C57.0573 5.04167 56.8411 5.1875 56.6641 5.375C56.487 5.5625 56.3464 5.78646 56.2422 6.04688C56.1432 6.30208 56.0781 6.58333 56.0469 6.89062L55.6406 7.125C55.6406 6.61458 55.6901 6.13542 55.7891 5.6875C55.8932 5.23958 56.0521 4.84375 56.2656 4.5C56.4792 4.15104 56.75 3.88021 57.0781 3.6875C57.4115 3.48958 57.8073 3.39062 58.2656 3.39062C58.3698 3.39062 58.4896 3.40365 58.625 3.42969C58.7604 3.45052 58.8542 3.47396 58.9062 3.5ZM63.5938 12.1562C63.0052 12.1562 62.4714 12.0573 61.9922 11.8594C61.5182 11.6562 61.1094 11.3724 60.7656 11.0078C60.4271 10.6432 60.1667 10.2109 59.9844 9.71094C59.8021 9.21094 59.7109 8.66406 59.7109 8.07031V7.74219C59.7109 7.05469 59.8125 6.44271 60.0156 5.90625C60.2188 5.36458 60.4948 4.90625 60.8438 4.53125C61.1927 4.15625 61.5885 3.8724 62.0312 3.67969C62.474 3.48698 62.9323 3.39062 63.4062 3.39062C64.0104 3.39062 64.5312 3.49479 64.9688 3.70312C65.4115 3.91146 65.7734 4.20312 66.0547 4.57812C66.3359 4.94792 66.5443 5.38542 66.6797 5.89062C66.8151 6.39062 66.8828 6.9375 66.8828 7.53125V8.17969H60.5703V7H65.4375V6.89062C65.4167 6.51562 65.3385 6.15104 65.2031 5.79688C65.0729 5.44271 64.8646 5.15104 64.5781 4.92188C64.2917 4.69271 63.901 4.57812 63.4062 4.57812C63.0781 4.57812 62.776 4.64844 62.5 4.78906C62.224 4.92448 61.987 5.1276 61.7891 5.39844C61.5911 5.66927 61.4375 6 61.3281 6.39062C61.2188 6.78125 61.1641 7.23177 61.1641 7.74219V8.07031C61.1641 8.47135 61.2188 8.84896 61.3281 9.20312C61.4427 9.55208 61.6068 9.85938 61.8203 10.125C62.0391 10.3906 62.3021 10.599 62.6094 10.75C62.9219 10.901 63.276 10.9766 63.6719 10.9766C64.1823 10.9766 64.6146 10.8724 64.9688 10.6641C65.3229 10.4557 65.6328 10.1771 65.8984 9.82812L66.7734 10.5234C66.5911 10.7995 66.3594 11.0625 66.0781 11.3125C65.7969 11.5625 65.4505 11.7656 65.0391 11.9219C64.6328 12.0781 64.151 12.1562 63.5938 12.1562ZM70.0156 5.35156V12H68.5703V3.54688H69.9375L70.0156 5.35156ZM69.6719 7.45312L69.0703 7.42969C69.0755 6.85156 69.1615 6.31771 69.3281 5.82812C69.4948 5.33333 69.7292 4.90365 70.0312 4.53906C70.3333 4.17448 70.6927 3.89323 71.1094 3.69531C71.5312 3.49219 71.9974 3.39062 72.5078 3.39062C72.9245 3.39062 73.2995 3.44792 73.6328 3.5625C73.9661 3.67188 74.25 3.84896 74.4844 4.09375C74.724 4.33854 74.9062 4.65625 75.0312 5.04688C75.1562 5.43229 75.2188 5.90365 75.2188 6.46094V12H73.7656V6.44531C73.7656 6.0026 73.7005 5.64844 73.5703 5.38281C73.4401 5.11198 73.25 4.91667 73 4.79688C72.75 4.67188 72.4427 4.60938 72.0781 4.60938C71.7188 4.60938 71.3906 4.6849 71.0938 4.83594C70.8021 4.98698 70.5495 5.19531 70.3359 5.46094C70.1276 5.72656 69.9635 6.03125 69.8438 6.375C69.7292 6.71354 69.6719 7.07292 69.6719 7.45312ZM80.9531 3.54688V4.65625H76.3828V3.54688H80.9531ZM77.9297 1.49219H79.375V9.90625C79.375 10.1927 79.4193 10.4089 79.5078 10.5547C79.5964 10.7005 79.7109 10.7969 79.8516 10.8438C79.9922 10.8906 80.1432 10.9141 80.3047 10.9141C80.4245 10.9141 80.5495 10.9036 80.6797 10.8828C80.8151 10.8568 80.9167 10.8359 80.9844 10.8203L80.9922 12C80.8776 12.0365 80.7266 12.0703 80.5391 12.1016C80.3568 12.138 80.1354 12.1562 79.875 12.1562C79.5208 12.1562 79.1953 12.0859 78.8984 11.9453C78.6016 11.8047 78.3646 11.5703 78.1875 11.2422C78.0156 10.9089 77.9297 10.4609 77.9297 9.89844V1.49219ZM88.7188 5.6875L90.4219 4.47656C90.75 4.2526 91.0026 4.02865 91.1797 3.80469C91.362 3.57552 91.4531 3.26302 91.4531 2.86719C91.4531 2.5599 91.3333 2.28125 91.0938 2.03125C90.8542 1.77604 90.5156 1.64844 90.0781 1.64844C89.776 1.64844 89.5208 1.71875 89.3125 1.85938C89.1042 2 88.9479 2.1875 88.8438 2.42188C88.7396 2.65104 88.6875 2.90365 88.6875 3.17969C88.6875 3.41406 88.7448 3.65625 88.8594 3.90625C88.974 4.15625 89.1328 4.41667 89.3359 4.6875C89.5391 4.95833 89.7708 5.24479 90.0312 5.54688L95.4141 12H93.6797L89.2656 6.71875C88.875 6.26042 88.526 5.84115 88.2188 5.46094C87.9115 5.07552 87.6693 4.70312 87.4922 4.34375C87.3203 3.98438 87.2344 3.61198 87.2344 3.22656C87.2344 2.63281 87.3516 2.13281 87.5859 1.72656C87.8255 1.3151 88.1589 1.0026 88.5859 0.789062C89.013 0.575521 89.513 0.46875 90.0859 0.46875C90.6432 0.46875 91.1224 0.580729 91.5234 0.804688C91.9297 1.02344 92.2422 1.3151 92.4609 1.67969C92.6797 2.03906 92.7891 2.4349 92.7891 2.86719C92.7891 3.23177 92.724 3.5599 92.5938 3.85156C92.4635 4.13802 92.2812 4.40104 92.0469 4.64062C91.8177 4.88021 91.5495 5.11458 91.2422 5.34375L88.9844 7.02344C88.6094 7.29948 88.3359 7.5625 88.1641 7.8125C87.9922 8.0625 87.8802 8.28385 87.8281 8.47656C87.7812 8.66927 87.7578 8.82292 87.7578 8.9375C87.7578 9.30729 87.8385 9.64583 88 9.95312C88.1615 10.2604 88.4062 10.5078 88.7344 10.6953C89.0677 10.8776 89.4844 10.9688 89.9844 10.9688C90.4219 10.9688 90.8464 10.8698 91.2578 10.6719C91.6745 10.4688 92.0469 10.1823 92.375 9.8125C92.7031 9.4375 92.9635 8.99219 93.1562 8.47656C93.3542 7.95573 93.4531 7.38021 93.4531 6.75H94.75C94.75 7.26562 94.7005 7.7526 94.6016 8.21094C94.5026 8.66927 94.349 9.09635 94.1406 9.49219C93.9375 9.88281 93.6771 10.2396 93.3594 10.5625C93.3125 10.6094 93.276 10.6641 93.25 10.7266C93.224 10.7891 93.1875 10.8438 93.1406 10.8906C92.75 11.3125 92.2682 11.6302 91.6953 11.8438C91.1276 12.0521 90.5573 12.1562 89.9844 12.1562C89.2292 12.1562 88.5755 12.0182 88.0234 11.7422C87.4766 11.4661 87.0547 11.0859 86.7578 10.6016C86.4609 10.1172 86.3125 9.5625 86.3125 8.9375C86.3125 8.45833 86.4141 8.03646 86.6172 7.67188C86.8255 7.30729 87.1094 6.96615 87.4688 6.64844C87.8333 6.33073 88.25 6.01042 88.7188 5.6875ZM104.812 6.67969H101.93L101.914 5.46875H104.531C104.964 5.46875 105.341 5.39583 105.664 5.25C105.987 5.10417 106.237 4.89583 106.414 4.625C106.596 4.34896 106.688 4.02083 106.688 3.64062C106.688 3.22396 106.607 2.88542 106.445 2.625C106.289 2.35938 106.047 2.16667 105.719 2.04688C105.396 1.92188 104.984 1.85938 104.484 1.85938H102.266V12H100.758V0.625H104.484C105.068 0.625 105.589 0.684896 106.047 0.804688C106.505 0.919271 106.893 1.10156 107.211 1.35156C107.534 1.59635 107.779 1.90885 107.945 2.28906C108.112 2.66927 108.195 3.125 108.195 3.65625C108.195 4.125 108.076 4.54948 107.836 4.92969C107.596 5.30469 107.263 5.61198 106.836 5.85156C106.414 6.09115 105.919 6.24479 105.352 6.3125L104.812 6.67969ZM104.742 12H101.336L102.188 10.7734H104.742C105.221 10.7734 105.628 10.6901 105.961 10.5234C106.299 10.3568 106.557 10.1224 106.734 9.82031C106.911 9.51302 107 9.15104 107 8.73438C107 8.3125 106.924 7.94792 106.773 7.64062C106.622 7.33333 106.385 7.09635 106.062 6.92969C105.74 6.76302 105.323 6.67969 104.812 6.67969H102.664L102.68 5.46875H105.617L105.938 5.90625C106.484 5.95312 106.948 6.10938 107.328 6.375C107.708 6.63542 107.997 6.96875 108.195 7.375C108.398 7.78125 108.5 8.22917 108.5 8.71875C108.5 9.42708 108.344 10.026 108.031 10.5156C107.724 11 107.289 11.3698 106.727 11.625C106.164 11.875 105.503 12 104.742 12ZM115.492 10.5547V6.20312C115.492 5.86979 115.424 5.58073 115.289 5.33594C115.159 5.08594 114.961 4.89323 114.695 4.75781C114.43 4.6224 114.102 4.55469 113.711 4.55469C113.346 4.55469 113.026 4.61719 112.75 4.74219C112.479 4.86719 112.266 5.03125 112.109 5.23438C111.958 5.4375 111.883 5.65625 111.883 5.89062H110.438C110.438 5.58854 110.516 5.28906 110.672 4.99219C110.828 4.69531 111.052 4.42708 111.344 4.1875C111.641 3.94271 111.995 3.75 112.406 3.60938C112.823 3.46354 113.286 3.39062 113.797 3.39062C114.411 3.39062 114.953 3.49479 115.422 3.70312C115.896 3.91146 116.266 4.22656 116.531 4.64844C116.802 5.0651 116.938 5.58854 116.938 6.21875V10.1562C116.938 10.4375 116.961 10.737 117.008 11.0547C117.06 11.3724 117.135 11.6458 117.234 11.875V12H115.727C115.654 11.8333 115.596 11.612 115.555 11.3359C115.513 11.0547 115.492 10.7943 115.492 10.5547ZM115.742 6.875L115.758 7.89062H114.297C113.885 7.89062 113.518 7.92448 113.195 7.99219C112.872 8.05469 112.602 8.15104 112.383 8.28125C112.164 8.41146 111.997 8.57552 111.883 8.77344C111.768 8.96615 111.711 9.19271 111.711 9.45312C111.711 9.71875 111.771 9.96094 111.891 10.1797C112.01 10.3984 112.19 10.5729 112.43 10.7031C112.674 10.8281 112.974 10.8906 113.328 10.8906C113.771 10.8906 114.161 10.7969 114.5 10.6094C114.839 10.4219 115.107 10.1927 115.305 9.92188C115.508 9.65104 115.617 9.38802 115.633 9.13281L116.25 9.82812C116.214 10.0469 116.115 10.2891 115.953 10.5547C115.792 10.8203 115.576 11.0755 115.305 11.3203C115.039 11.5599 114.721 11.7604 114.352 11.9219C113.987 12.0781 113.576 12.1562 113.117 12.1562C112.544 12.1562 112.042 12.0443 111.609 11.8203C111.182 11.5964 110.849 11.2969 110.609 10.9219C110.375 10.5417 110.258 10.1172 110.258 9.64844C110.258 9.19531 110.346 8.79688 110.523 8.45312C110.701 8.10417 110.956 7.8151 111.289 7.58594C111.622 7.35156 112.023 7.17448 112.492 7.05469C112.961 6.9349 113.484 6.875 114.062 6.875H115.742ZM120.656 4.875V12H119.211V3.54688H120.617L120.656 4.875ZM123.297 3.5L123.289 4.84375C123.169 4.81771 123.055 4.80208 122.945 4.79688C122.841 4.78646 122.721 4.78125 122.586 4.78125C122.253 4.78125 121.958 4.83333 121.703 4.9375C121.448 5.04167 121.232 5.1875 121.055 5.375C120.878 5.5625 120.737 5.78646 120.633 6.04688C120.534 6.30208 120.469 6.58333 120.438 6.89062L120.031 7.125C120.031 6.61458 120.081 6.13542 120.18 5.6875C120.284 5.23958 120.443 4.84375 120.656 4.5C120.87 4.15104 121.141 3.88021 121.469 3.6875C121.802 3.48958 122.198 3.39062 122.656 3.39062C122.76 3.39062 122.88 3.40365 123.016 3.42969C123.151 3.45052 123.245 3.47396 123.297 3.5ZM8.40625 53.8984V55.2578H0.609375V53.8984H8.40625ZM5.23438 50.5781V58.8594H3.78906V50.5781H5.23438ZM20.4297 57.125C20.4297 56.8594 20.388 56.625 20.3047 56.4219C20.2266 56.2135 20.0859 56.026 19.8828 55.8594C19.6849 55.6927 19.4089 55.5339 19.0547 55.3828C18.7057 55.2318 18.263 55.0781 17.7266 54.9219C17.1641 54.7552 16.6562 54.5703 16.2031 54.3672C15.75 54.1589 15.362 53.9219 15.0391 53.6562C14.7161 53.3906 14.4688 53.0859 14.2969 52.7422C14.125 52.3984 14.0391 52.0052 14.0391 51.5625C14.0391 51.1198 14.1302 50.7109 14.3125 50.3359C14.4948 49.9609 14.7552 49.6354 15.0938 49.3594C15.4375 49.0781 15.8464 48.8594 16.3203 48.7031C16.7943 48.5469 17.3229 48.4688 17.9062 48.4688C18.7604 48.4688 19.4844 48.6328 20.0781 48.9609C20.6771 49.2839 21.1328 49.7083 21.4453 50.2344C21.7578 50.7552 21.9141 51.3125 21.9141 51.9062H20.4141C20.4141 51.4792 20.3229 51.1016 20.1406 50.7734C19.9583 50.4401 19.6823 50.1797 19.3125 49.9922C18.9427 49.7995 18.474 49.7031 17.9062 49.7031C17.3698 49.7031 16.9271 49.7839 16.5781 49.9453C16.2292 50.1068 15.9688 50.3255 15.7969 50.6016C15.6302 50.8776 15.5469 51.1927 15.5469 51.5469C15.5469 51.7865 15.5964 52.0052 15.6953 52.2031C15.7995 52.3958 15.9583 52.5755 16.1719 52.7422C16.3906 52.9089 16.6667 53.0625 17 53.2031C17.3385 53.3438 17.7422 53.4792 18.2109 53.6094C18.8568 53.7917 19.4141 53.9948 19.8828 54.2188C20.3516 54.4427 20.737 54.6953 21.0391 54.9766C21.3464 55.2526 21.5729 55.5677 21.7188 55.9219C21.8698 56.2708 21.9453 56.6667 21.9453 57.1094C21.9453 57.5729 21.8516 57.9922 21.6641 58.3672C21.4766 58.7422 21.2083 59.0625 20.8594 59.3281C20.5104 59.5938 20.0911 59.7995 19.6016 59.9453C19.1172 60.0859 18.5755 60.1562 17.9766 60.1562C17.4505 60.1562 16.9323 60.0833 16.4219 59.9375C15.9167 59.7917 15.4557 59.5729 15.0391 59.2812C14.6276 58.9896 14.2969 58.6302 14.0469 58.2031C13.8021 57.7708 13.6797 57.2708 13.6797 56.7031H15.1797C15.1797 57.0938 15.2552 57.4297 15.4062 57.7109C15.5573 57.987 15.763 58.2161 16.0234 58.3984C16.2891 58.5807 16.5885 58.7161 16.9219 58.8047C17.2604 58.888 17.612 58.9297 17.9766 58.9297C18.5026 58.9297 18.9479 58.8568 19.3125 58.7109C19.6771 58.5651 19.9531 58.3568 20.1406 58.0859C20.3333 57.8151 20.4297 57.4948 20.4297 57.125ZM25.7891 58.5L27.9609 51.5469H28.9141L28.7266 52.9297L26.5156 60H25.5859L25.7891 58.5ZM24.3281 51.5469L26.1797 58.5781L26.3125 60H25.3359L22.8828 51.5469H24.3281ZM30.9922 58.5234L32.7578 51.5469H34.1953L31.7422 60H30.7734L30.9922 58.5234ZM29.125 51.5469L31.25 58.3828L31.4922 60H30.5703L28.2969 52.9141L28.1094 51.5469H29.125ZM37.25 51.5469V60H35.7969V51.5469H37.25ZM35.6875 49.3047C35.6875 49.0703 35.7578 48.8724 35.8984 48.7109C36.0443 48.5495 36.2578 48.4688 36.5391 48.4688C36.8151 48.4688 37.026 48.5495 37.1719 48.7109C37.3229 48.8724 37.3984 49.0703 37.3984 49.3047C37.3984 49.5286 37.3229 49.7214 37.1719 49.8828C37.026 50.0391 36.8151 50.1172 36.5391 50.1172C36.2578 50.1172 36.0443 50.0391 35.8984 49.8828C35.7578 49.7214 35.6875 49.5286 35.6875 49.3047ZM41.0078 53.2266V60H39.5547V51.5469H40.9297L41.0078 53.2266ZM40.7109 55.4531L40.0391 55.4297C40.0443 54.8516 40.1198 54.3177 40.2656 53.8281C40.4115 53.3333 40.6276 52.9036 40.9141 52.5391C41.2005 52.1745 41.5573 51.8932 41.9844 51.6953C42.4115 51.4922 42.9062 51.3906 43.4688 51.3906C43.8646 51.3906 44.2292 51.4479 44.5625 51.5625C44.8958 51.6719 45.1849 51.8464 45.4297 52.0859C45.6745 52.3255 45.8646 52.6328 46 53.0078C46.1354 53.3828 46.2031 53.8359 46.2031 54.3672V60H44.7578V54.4375C44.7578 53.9948 44.6823 53.6406 44.5312 53.375C44.3854 53.1094 44.1771 52.9167 43.9062 52.7969C43.6354 52.6719 43.3177 52.6094 42.9531 52.6094C42.526 52.6094 42.1693 52.6849 41.8828 52.8359C41.5964 52.987 41.3672 53.1953 41.1953 53.4609C41.0234 53.7266 40.8984 54.0312 40.8203 54.375C40.7474 54.7135 40.7109 55.0729 40.7109 55.4531ZM46.1875 54.6562L45.2188 54.9531C45.224 54.4896 45.2995 54.0443 45.4453 53.6172C45.5964 53.1901 45.8125 52.8099 46.0938 52.4766C46.3802 52.1432 46.7318 51.8802 47.1484 51.6875C47.5651 51.4896 48.0417 51.3906 48.5781 51.3906C49.0312 51.3906 49.4323 51.4505 49.7812 51.5703C50.1354 51.6901 50.4323 51.875 50.6719 52.125C50.9167 52.3698 51.1016 52.6849 51.2266 53.0703C51.3516 53.4557 51.4141 53.9141 51.4141 54.4453V60H49.9609V54.4297C49.9609 53.9557 49.8854 53.5885 49.7344 53.3281C49.5885 53.0625 49.3802 52.8776 49.1094 52.7734C48.8438 52.6641 48.526 52.6094 48.1562 52.6094C47.8385 52.6094 47.5573 52.6641 47.3125 52.7734C47.0677 52.8828 46.862 53.0339 46.6953 53.2266C46.5286 53.4141 46.401 53.6302 46.3125 53.875C46.2292 54.1198 46.1875 54.3802 46.1875 54.6562ZM55.0391 53.2266V60H53.5859V51.5469H54.9609L55.0391 53.2266ZM54.7422 55.4531L54.0703 55.4297C54.0755 54.8516 54.151 54.3177 54.2969 53.8281C54.4427 53.3333 54.6589 52.9036 54.9453 52.5391C55.2318 52.1745 55.5885 51.8932 56.0156 51.6953C56.4427 51.4922 56.9375 51.3906 57.5 51.3906C57.8958 51.3906 58.2604 51.4479 58.5938 51.5625C58.9271 51.6719 59.2161 51.8464 59.4609 52.0859C59.7057 52.3255 59.8958 52.6328 60.0312 53.0078C60.1667 53.3828 60.2344 53.8359 60.2344 54.3672V60H58.7891V54.4375C58.7891 53.9948 58.7135 53.6406 58.5625 53.375C58.4167 53.1094 58.2083 52.9167 57.9375 52.7969C57.6667 52.6719 57.349 52.6094 56.9844 52.6094C56.5573 52.6094 56.2005 52.6849 55.9141 52.8359C55.6276 52.987 55.3984 53.1953 55.2266 53.4609C55.0547 53.7266 54.9297 54.0312 54.8516 54.375C54.7786 54.7135 54.7422 55.0729 54.7422 55.4531ZM60.2188 54.6562L59.25 54.9531C59.2552 54.4896 59.3307 54.0443 59.4766 53.6172C59.6276 53.1901 59.8438 52.8099 60.125 52.4766C60.4115 52.1432 60.763 51.8802 61.1797 51.6875C61.5964 51.4896 62.0729 51.3906 62.6094 51.3906C63.0625 51.3906 63.4635 51.4505 63.8125 51.5703C64.1667 51.6901 64.4635 51.875 64.7031 52.125C64.9479 52.3698 65.1328 52.6849 65.2578 53.0703C65.3828 53.4557 65.4453 53.9141 65.4453 54.4453V60H63.9922V54.4297C63.9922 53.9557 63.9167 53.5885 63.7656 53.3281C63.6198 53.0625 63.4115 52.8776 63.1406 52.7734C62.875 52.6641 62.5573 52.6094 62.1875 52.6094C61.8698 52.6094 61.5885 52.6641 61.3438 52.7734C61.099 52.8828 60.8932 53.0339 60.7266 53.2266C60.5599 53.4141 60.4323 53.6302 60.3438 53.875C60.2604 54.1198 60.2188 54.3802 60.2188 54.6562ZM69.2031 51.5469V60H67.75V51.5469H69.2031ZM67.6406 49.3047C67.6406 49.0703 67.7109 48.8724 67.8516 48.7109C67.9974 48.5495 68.2109 48.4688 68.4922 48.4688C68.7682 48.4688 68.9792 48.5495 69.125 48.7109C69.276 48.8724 69.3516 49.0703 69.3516 49.3047C69.3516 49.5286 69.276 49.7214 69.125 49.8828C68.9792 50.0391 68.7682 50.1172 68.4922 50.1172C68.2109 50.1172 67.9974 50.0391 67.8516 49.8828C67.7109 49.7214 67.6406 49.5286 67.6406 49.3047ZM72.9688 53.3516V60H71.5234V51.5469H72.8906L72.9688 53.3516ZM72.625 55.4531L72.0234 55.4297C72.0286 54.8516 72.1146 54.3177 72.2812 53.8281C72.4479 53.3333 72.6823 52.9036 72.9844 52.5391C73.2865 52.1745 73.6458 51.8932 74.0625 51.6953C74.4844 51.4922 74.9505 51.3906 75.4609 51.3906C75.8776 51.3906 76.2526 51.4479 76.5859 51.5625C76.9193 51.6719 77.2031 51.849 77.4375 52.0938C77.6771 52.3385 77.8594 52.6562 77.9844 53.0469C78.1094 53.4323 78.1719 53.9036 78.1719 54.4609V60H76.7188V54.4453C76.7188 54.0026 76.6536 53.6484 76.5234 53.3828C76.3932 53.112 76.2031 52.9167 75.9531 52.7969C75.7031 52.6719 75.3958 52.6094 75.0312 52.6094C74.6719 52.6094 74.3438 52.6849 74.0469 52.8359C73.7552 52.987 73.5026 53.1953 73.2891 53.4609C73.0807 53.7266 72.9167 54.0312 72.7969 54.375C72.6823 54.7135 72.625 55.0729 72.625 55.4531ZM85.8438 51.5469H87.1562V59.8203C87.1562 60.5651 87.0052 61.2005 86.7031 61.7266C86.401 62.2526 85.9792 62.651 85.4375 62.9219C84.901 63.1979 84.2812 63.3359 83.5781 63.3359C83.2865 63.3359 82.9427 63.2891 82.5469 63.1953C82.1562 63.1068 81.7708 62.9531 81.3906 62.7344C81.0156 62.5208 80.7005 62.2318 80.4453 61.8672L81.2031 61.0078C81.5573 61.4349 81.9271 61.7318 82.3125 61.8984C82.7031 62.0651 83.0885 62.1484 83.4688 62.1484C83.9271 62.1484 84.3229 62.0625 84.6562 61.8906C84.9896 61.7188 85.2474 61.4635 85.4297 61.125C85.6172 60.7917 85.7109 60.3802 85.7109 59.8906V53.4062L85.8438 51.5469ZM80.0234 55.8672V55.7031C80.0234 55.0573 80.099 54.4714 80.25 53.9453C80.4062 53.4141 80.6276 52.9583 80.9141 52.5781C81.2057 52.1979 81.5573 51.9062 81.9688 51.7031C82.3802 51.4948 82.8438 51.3906 83.3594 51.3906C83.8906 51.3906 84.3542 51.4844 84.75 51.6719C85.151 51.8542 85.4896 52.1224 85.7656 52.4766C86.0469 52.8255 86.2682 53.2474 86.4297 53.7422C86.5911 54.237 86.7031 54.7969 86.7656 55.4219V56.1406C86.7083 56.7604 86.5964 57.3177 86.4297 57.8125C86.2682 58.3073 86.0469 58.7292 85.7656 59.0781C85.4896 59.4271 85.151 59.6953 84.75 59.8828C84.349 60.0651 83.8802 60.1562 83.3438 60.1562C82.8385 60.1562 82.3802 60.0495 81.9688 59.8359C81.5625 59.6224 81.2135 59.3229 80.9219 58.9375C80.6302 58.5521 80.4062 58.099 80.25 57.5781C80.099 57.0521 80.0234 56.4818 80.0234 55.8672ZM81.4688 55.7031V55.8672C81.4688 56.2891 81.5104 56.6849 81.5938 57.0547C81.6823 57.4245 81.8151 57.75 81.9922 58.0312C82.1745 58.3125 82.4062 58.5339 82.6875 58.6953C82.9688 58.8516 83.3047 58.9297 83.6953 58.9297C84.1745 58.9297 84.5703 58.8281 84.8828 58.625C85.1953 58.4219 85.4427 58.1536 85.625 57.8203C85.8125 57.487 85.9583 57.125 86.0625 56.7344V54.8516C86.0052 54.5651 85.9167 54.2891 85.7969 54.0234C85.6823 53.7526 85.5312 53.513 85.3438 53.3047C85.1615 53.0911 84.9349 52.9219 84.6641 52.7969C84.3932 52.6719 84.0755 52.6094 83.7109 52.6094C83.3151 52.6094 82.974 52.6927 82.6875 52.8594C82.4062 53.0208 82.1745 53.2448 81.9922 53.5312C81.8151 53.8125 81.6823 54.1406 81.5938 54.5156C81.5104 54.8854 81.4688 55.2812 81.4688 55.7031ZM97.7344 55.5391H94.6953V54.3125H97.7344C98.3229 54.3125 98.7995 54.2188 99.1641 54.0312C99.5286 53.8438 99.7943 53.5833 99.9609 53.25C100.133 52.9167 100.219 52.5365 100.219 52.1094C100.219 51.7188 100.133 51.3516 99.9609 51.0078C99.7943 50.6641 99.5286 50.388 99.1641 50.1797C98.7995 49.9661 98.3229 49.8594 97.7344 49.8594H95.0469V60H93.5391V48.625H97.7344C98.5938 48.625 99.3203 48.7734 99.9141 49.0703C100.508 49.3672 100.958 49.7786 101.266 50.3047C101.573 50.8255 101.727 51.4219 101.727 52.0938C101.727 52.8229 101.573 53.4453 101.266 53.9609C100.958 54.4766 100.508 54.8698 99.9141 55.1406C99.3203 55.4062 98.5938 55.5391 97.7344 55.5391ZM102.922 55.8672V55.6875C102.922 55.0781 103.01 54.513 103.188 53.9922C103.365 53.4661 103.62 53.0104 103.953 52.625C104.286 52.2344 104.69 51.9323 105.164 51.7188C105.638 51.5 106.169 51.3906 106.758 51.3906C107.352 51.3906 107.885 51.5 108.359 51.7188C108.839 51.9323 109.245 52.2344 109.578 52.625C109.917 53.0104 110.174 53.4661 110.352 53.9922C110.529 54.513 110.617 55.0781 110.617 55.6875V55.8672C110.617 56.4766 110.529 57.0417 110.352 57.5625C110.174 58.0833 109.917 58.5391 109.578 58.9297C109.245 59.3151 108.841 59.6172 108.367 59.8359C107.898 60.0495 107.367 60.1562 106.773 60.1562C106.18 60.1562 105.646 60.0495 105.172 59.8359C104.698 59.6172 104.292 59.3151 103.953 58.9297C103.62 58.5391 103.365 58.0833 103.188 57.5625C103.01 57.0417 102.922 56.4766 102.922 55.8672ZM104.367 55.6875V55.8672C104.367 56.2891 104.417 56.6875 104.516 57.0625C104.615 57.4323 104.763 57.7604 104.961 58.0469C105.164 58.3333 105.417 58.5599 105.719 58.7266C106.021 58.888 106.372 58.9688 106.773 58.9688C107.169 58.9688 107.516 58.888 107.812 58.7266C108.115 58.5599 108.365 58.3333 108.562 58.0469C108.76 57.7604 108.909 57.4323 109.008 57.0625C109.112 56.6875 109.164 56.2891 109.164 55.8672V55.6875C109.164 55.2708 109.112 54.8776 109.008 54.5078C108.909 54.1328 108.758 53.8021 108.555 53.5156C108.357 53.224 108.107 52.9948 107.805 52.8281C107.508 52.6615 107.159 52.5781 106.758 52.5781C106.362 52.5781 106.013 52.6615 105.711 52.8281C105.414 52.9948 105.164 53.224 104.961 53.5156C104.763 53.8021 104.615 54.1328 104.516 54.5078C104.417 54.8776 104.367 55.2708 104.367 55.6875ZM112.047 55.8672V55.6875C112.047 55.0781 112.135 54.513 112.312 53.9922C112.49 53.4661 112.745 53.0104 113.078 52.625C113.411 52.2344 113.815 51.9323 114.289 51.7188C114.763 51.5 115.294 51.3906 115.883 51.3906C116.477 51.3906 117.01 51.5 117.484 51.7188C117.964 51.9323 118.37 52.2344 118.703 52.625C119.042 53.0104 119.299 53.4661 119.477 53.9922C119.654 54.513 119.742 55.0781 119.742 55.6875V55.8672C119.742 56.4766 119.654 57.0417 119.477 57.5625C119.299 58.0833 119.042 58.5391 118.703 58.9297C118.37 59.3151 117.966 59.6172 117.492 59.8359C117.023 60.0495 116.492 60.1562 115.898 60.1562C115.305 60.1562 114.771 60.0495 114.297 59.8359C113.823 59.6172 113.417 59.3151 113.078 58.9297C112.745 58.5391 112.49 58.0833 112.312 57.5625C112.135 57.0417 112.047 56.4766 112.047 55.8672ZM113.492 55.6875V55.8672C113.492 56.2891 113.542 56.6875 113.641 57.0625C113.74 57.4323 113.888 57.7604 114.086 58.0469C114.289 58.3333 114.542 58.5599 114.844 58.7266C115.146 58.888 115.497 58.9688 115.898 58.9688C116.294 58.9688 116.641 58.888 116.938 58.7266C117.24 58.5599 117.49 58.3333 117.688 58.0469C117.885 57.7604 118.034 57.4323 118.133 57.0625C118.237 56.6875 118.289 56.2891 118.289 55.8672V55.6875C118.289 55.2708 118.237 54.8776 118.133 54.5078C118.034 54.1328 117.883 53.8021 117.68 53.5156C117.482 53.224 117.232 52.9948 116.93 52.8281C116.633 52.6615 116.284 52.5781 115.883 52.5781C115.487 52.5781 115.138 52.6615 114.836 52.8281C114.539 52.9948 114.289 53.224 114.086 53.5156C113.888 53.8021 113.74 54.1328 113.641 54.5078C113.542 54.8776 113.492 55.2708 113.492 55.6875ZM123.125 48V60H121.672V48H123.125ZM8.40625 101.898V103.258H0.609375V101.898H8.40625ZM5.23438 98.5781V106.859H3.78906V98.5781H5.23438ZM17.3594 104.562L19.6172 96.625H20.7109L20.0781 99.7109L17.6484 108H16.5625L17.3594 104.562ZM15.0234 96.625L16.8203 104.406L17.3594 108H16.2812L13.5234 96.625H15.0234ZM23.6328 104.398L25.3906 96.625H26.8984L24.1484 108H23.0703L23.6328 104.398ZM20.875 96.625L23.0703 104.562L23.8672 108H22.7812L20.4375 99.7109L19.7969 96.625H20.875ZM31.6094 108.156C31.0208 108.156 30.487 108.057 30.0078 107.859C29.5339 107.656 29.125 107.372 28.7812 107.008C28.4427 106.643 28.1823 106.211 28 105.711C27.8177 105.211 27.7266 104.664 27.7266 104.07V103.742C27.7266 103.055 27.8281 102.443 28.0312 101.906C28.2344 101.365 28.5104 100.906 28.8594 100.531C29.2083 100.156 29.6042 99.8724 30.0469 99.6797C30.4896 99.487 30.9479 99.3906 31.4219 99.3906C32.026 99.3906 32.5469 99.4948 32.9844 99.7031C33.4271 99.9115 33.7891 100.203 34.0703 100.578C34.3516 100.948 34.5599 101.385 34.6953 101.891C34.8307 102.391 34.8984 102.938 34.8984 103.531V104.18H28.5859V103H33.4531V102.891C33.4323 102.516 33.3542 102.151 33.2188 101.797C33.0885 101.443 32.8802 101.151 32.5938 100.922C32.3073 100.693 31.9167 100.578 31.4219 100.578C31.0938 100.578 30.7917 100.648 30.5156 100.789C30.2396 100.924 30.0026 101.128 29.8047 101.398C29.6068 101.669 29.4531 102 29.3438 102.391C29.2344 102.781 29.1797 103.232 29.1797 103.742V104.07C29.1797 104.471 29.2344 104.849 29.3438 105.203C29.4583 105.552 29.6224 105.859 29.8359 106.125C30.0547 106.391 30.3177 106.599 30.625 106.75C30.9375 106.901 31.2917 106.977 31.6875 106.977C32.1979 106.977 32.6302 106.872 32.9844 106.664C33.3385 106.456 33.6484 106.177 33.9141 105.828L34.7891 106.523C34.6068 106.799 34.375 107.062 34.0938 107.312C33.8125 107.562 33.4661 107.766 33.0547 107.922C32.6484 108.078 32.1667 108.156 31.6094 108.156ZM38.1562 96V108H36.7031V96H38.1562ZM42.0469 96V108H40.5938V96H42.0469ZM45.8125 101.352V108H44.3672V99.5469H45.7344L45.8125 101.352ZM45.4688 103.453L44.8672 103.43C44.8724 102.852 44.9583 102.318 45.125 101.828C45.2917 101.333 45.526 100.904 45.8281 100.539C46.1302 100.174 46.4896 99.8932 46.9062 99.6953C47.3281 99.4922 47.7943 99.3906 48.3047 99.3906C48.7214 99.3906 49.0964 99.4479 49.4297 99.5625C49.763 99.6719 50.0469 99.849 50.2812 100.094C50.5208 100.339 50.7031 100.656 50.8281 101.047C50.9531 101.432 51.0156 101.904 51.0156 102.461V108H49.5625V102.445C49.5625 102.003 49.4974 101.648 49.3672 101.383C49.237 101.112 49.0469 100.917 48.7969 100.797C48.5469 100.672 48.2396 100.609 47.875 100.609C47.5156 100.609 47.1875 100.685 46.8906 100.836C46.599 100.987 46.3464 101.195 46.1328 101.461C45.9245 101.727 45.7604 102.031 45.6406 102.375C45.526 102.714 45.4688 103.073 45.4688 103.453ZM56.7188 108.156C56.1302 108.156 55.5964 108.057 55.1172 107.859C54.6432 107.656 54.2344 107.372 53.8906 107.008C53.5521 106.643 53.2917 106.211 53.1094 105.711C52.9271 105.211 52.8359 104.664 52.8359 104.07V103.742C52.8359 103.055 52.9375 102.443 53.1406 101.906C53.3438 101.365 53.6198 100.906 53.9688 100.531C54.3177 100.156 54.7135 99.8724 55.1562 99.6797C55.599 99.487 56.0573 99.3906 56.5312 99.3906C57.1354 99.3906 57.6562 99.4948 58.0938 99.7031C58.5365 99.9115 58.8984 100.203 59.1797 100.578C59.4609 100.948 59.6693 101.385 59.8047 101.891C59.9401 102.391 60.0078 102.938 60.0078 103.531V104.18H53.6953V103H58.5625V102.891C58.5417 102.516 58.4635 102.151 58.3281 101.797C58.1979 101.443 57.9896 101.151 57.7031 100.922C57.4167 100.693 57.026 100.578 56.5312 100.578C56.2031 100.578 55.901 100.648 55.625 100.789C55.349 100.924 55.112 101.128 54.9141 101.398C54.7161 101.669 54.5625 102 54.4531 102.391C54.3438 102.781 54.2891 103.232 54.2891 103.742V104.07C54.2891 104.471 54.3438 104.849 54.4531 105.203C54.5677 105.552 54.7318 105.859 54.9453 106.125C55.1641 106.391 55.4271 106.599 55.7344 106.75C56.0469 106.901 56.401 106.977 56.7969 106.977C57.3073 106.977 57.7396 106.872 58.0938 106.664C58.4479 106.456 58.7578 106.177 59.0234 105.828L59.8984 106.523C59.7161 106.799 59.4844 107.062 59.2031 107.312C58.9219 107.562 58.5755 107.766 58.1641 107.922C57.7578 108.078 57.276 108.156 56.7188 108.156ZM66.6172 105.758C66.6172 105.549 66.5703 105.357 66.4766 105.18C66.388 104.997 66.2031 104.833 65.9219 104.688C65.6458 104.536 65.2292 104.406 64.6719 104.297C64.2031 104.198 63.7786 104.081 63.3984 103.945C63.0234 103.81 62.7031 103.646 62.4375 103.453C62.1771 103.26 61.9766 103.034 61.8359 102.773C61.6953 102.513 61.625 102.208 61.625 101.859C61.625 101.526 61.6979 101.211 61.8438 100.914C61.9948 100.617 62.2057 100.354 62.4766 100.125C62.7526 99.8958 63.0833 99.7161 63.4688 99.5859C63.8542 99.4557 64.2839 99.3906 64.7578 99.3906C65.4349 99.3906 66.013 99.5104 66.4922 99.75C66.9714 99.9896 67.3385 100.31 67.5938 100.711C67.849 101.107 67.9766 101.547 67.9766 102.031H66.5312C66.5312 101.797 66.4609 101.57 66.3203 101.352C66.1849 101.128 65.9844 100.943 65.7188 100.797C65.4583 100.651 65.138 100.578 64.7578 100.578C64.3568 100.578 64.0312 100.641 63.7812 100.766C63.5365 100.885 63.3568 101.039 63.2422 101.227C63.1328 101.414 63.0781 101.612 63.0781 101.82C63.0781 101.977 63.1042 102.117 63.1562 102.242C63.2135 102.362 63.3125 102.474 63.4531 102.578C63.5938 102.677 63.7917 102.771 64.0469 102.859C64.3021 102.948 64.6276 103.036 65.0234 103.125C65.7161 103.281 66.2865 103.469 66.7344 103.688C67.1823 103.906 67.5156 104.174 67.7344 104.492C67.9531 104.81 68.0625 105.195 68.0625 105.648C68.0625 106.018 67.9844 106.357 67.8281 106.664C67.6771 106.971 67.4557 107.237 67.1641 107.461C66.8776 107.68 66.5339 107.852 66.1328 107.977C65.737 108.096 65.2917 108.156 64.7969 108.156C64.0521 108.156 63.4219 108.023 62.9062 107.758C62.3906 107.492 62 107.148 61.7344 106.727C61.4688 106.305 61.3359 105.859 61.3359 105.391H62.7891C62.8099 105.786 62.9245 106.102 63.1328 106.336C63.3411 106.565 63.5964 106.729 63.8984 106.828C64.2005 106.922 64.5 106.969 64.7969 106.969C65.1927 106.969 65.5234 106.917 65.7891 106.812C66.0599 106.708 66.2656 106.565 66.4062 106.383C66.5469 106.201 66.6172 105.992 66.6172 105.758ZM74.8828 105.758C74.8828 105.549 74.8359 105.357 74.7422 105.18C74.6536 104.997 74.4688 104.833 74.1875 104.688C73.9115 104.536 73.4948 104.406 72.9375 104.297C72.4688 104.198 72.0443 104.081 71.6641 103.945C71.2891 103.81 70.9688 103.646 70.7031 103.453C70.4427 103.26 70.2422 103.034 70.1016 102.773C69.9609 102.513 69.8906 102.208 69.8906 101.859C69.8906 101.526 69.9635 101.211 70.1094 100.914C70.2604 100.617 70.4714 100.354 70.7422 100.125C71.0182 99.8958 71.349 99.7161 71.7344 99.5859C72.1198 99.4557 72.5495 99.3906 73.0234 99.3906C73.7005 99.3906 74.2786 99.5104 74.7578 99.75C75.237 99.9896 75.6042 100.31 75.8594 100.711C76.1146 101.107 76.2422 101.547 76.2422 102.031H74.7969C74.7969 101.797 74.7266 101.57 74.5859 101.352C74.4505 101.128 74.25 100.943 73.9844 100.797C73.724 100.651 73.4036 100.578 73.0234 100.578C72.6224 100.578 72.2969 100.641 72.0469 100.766C71.8021 100.885 71.6224 101.039 71.5078 101.227C71.3984 101.414 71.3438 101.612 71.3438 101.82C71.3438 101.977 71.3698 102.117 71.4219 102.242C71.4792 102.362 71.5781 102.474 71.7188 102.578C71.8594 102.677 72.0573 102.771 72.3125 102.859C72.5677 102.948 72.8932 103.036 73.2891 103.125C73.9818 103.281 74.5521 103.469 75 103.688C75.4479 103.906 75.7812 104.174 76 104.492C76.2188 104.81 76.3281 105.195 76.3281 105.648C76.3281 106.018 76.25 106.357 76.0938 106.664C75.9427 106.971 75.7214 107.237 75.4297 107.461C75.1432 107.68 74.7995 107.852 74.3984 107.977C74.0026 108.096 73.5573 108.156 73.0625 108.156C72.3177 108.156 71.6875 108.023 71.1719 107.758C70.6562 107.492 70.2656 107.148 70 106.727C69.7344 106.305 69.6016 105.859 69.6016 105.391H71.0547C71.0755 105.786 71.1901 106.102 71.3984 106.336C71.6068 106.565 71.862 106.729 72.1641 106.828C72.4661 106.922 72.7656 106.969 73.0625 106.969C73.4583 106.969 73.7891 106.917 74.0547 106.812C74.3255 106.708 74.5312 106.565 74.6719 106.383C74.8125 106.201 74.8828 105.992 74.8828 105.758ZM84.2969 101.688L86 100.477C86.3281 100.253 86.5807 100.029 86.7578 99.8047C86.9401 99.5755 87.0312 99.263 87.0312 98.8672C87.0312 98.5599 86.9115 98.2812 86.6719 98.0312C86.4323 97.776 86.0938 97.6484 85.6562 97.6484C85.3542 97.6484 85.099 97.7188 84.8906 97.8594C84.6823 98 84.526 98.1875 84.4219 98.4219C84.3177 98.651 84.2656 98.9036 84.2656 99.1797C84.2656 99.4141 84.3229 99.6562 84.4375 99.9062C84.5521 100.156 84.7109 100.417 84.9141 100.688C85.1172 100.958 85.349 101.245 85.6094 101.547L90.9922 108H89.2578L84.8438 102.719C84.4531 102.26 84.1042 101.841 83.7969 101.461C83.4896 101.076 83.2474 100.703 83.0703 100.344C82.8984 99.9844 82.8125 99.612 82.8125 99.2266C82.8125 98.6328 82.9297 98.1328 83.1641 97.7266C83.4036 97.3151 83.737 97.0026 84.1641 96.7891C84.5911 96.5755 85.0911 96.4688 85.6641 96.4688C86.2214 96.4688 86.7005 96.5807 87.1016 96.8047C87.5078 97.0234 87.8203 97.3151 88.0391 97.6797C88.2578 98.0391 88.3672 98.4349 88.3672 98.8672C88.3672 99.2318 88.3021 99.5599 88.1719 99.8516C88.0417 100.138 87.8594 100.401 87.625 100.641C87.3958 100.88 87.1276 101.115 86.8203 101.344L84.5625 103.023C84.1875 103.299 83.9141 103.562 83.7422 103.812C83.5703 104.062 83.4583 104.284 83.4062 104.477C83.3594 104.669 83.3359 104.823 83.3359 104.938C83.3359 105.307 83.4167 105.646 83.5781 105.953C83.7396 106.26 83.9844 106.508 84.3125 106.695C84.6458 106.878 85.0625 106.969 85.5625 106.969C86 106.969 86.4245 106.87 86.8359 106.672C87.2526 106.469 87.625 106.182 87.9531 105.812C88.2812 105.438 88.5417 104.992 88.7344 104.477C88.9323 103.956 89.0312 103.38 89.0312 102.75H90.3281C90.3281 103.266 90.2786 103.753 90.1797 104.211C90.0807 104.669 89.9271 105.096 89.7188 105.492C89.5156 105.883 89.2552 106.24 88.9375 106.562C88.8906 106.609 88.8542 106.664 88.8281 106.727C88.8021 106.789 88.7656 106.844 88.7188 106.891C88.3281 107.312 87.8464 107.63 87.2734 107.844C86.7057 108.052 86.1354 108.156 85.5625 108.156C84.8073 108.156 84.1536 108.018 83.6016 107.742C83.0547 107.466 82.6328 107.086 82.3359 106.602C82.0391 106.117 81.8906 105.562 81.8906 104.938C81.8906 104.458 81.9922 104.036 82.1953 103.672C82.4036 103.307 82.6875 102.966 83.0469 102.648C83.4115 102.331 83.8281 102.01 84.2969 101.688ZM102.398 105.125C102.398 104.859 102.357 104.625 102.273 104.422C102.195 104.214 102.055 104.026 101.852 103.859C101.654 103.693 101.378 103.534 101.023 103.383C100.674 103.232 100.232 103.078 99.6953 102.922C99.1328 102.755 98.625 102.57 98.1719 102.367C97.7188 102.159 97.3307 101.922 97.0078 101.656C96.6849 101.391 96.4375 101.086 96.2656 100.742C96.0938 100.398 96.0078 100.005 96.0078 99.5625C96.0078 99.1198 96.099 98.7109 96.2812 98.3359C96.4635 97.9609 96.724 97.6354 97.0625 97.3594C97.4062 97.0781 97.8151 96.8594 98.2891 96.7031C98.763 96.5469 99.2917 96.4688 99.875 96.4688C100.729 96.4688 101.453 96.6328 102.047 96.9609C102.646 97.2839 103.102 97.7083 103.414 98.2344C103.727 98.7552 103.883 99.3125 103.883 99.9062H102.383C102.383 99.4792 102.292 99.1016 102.109 98.7734C101.927 98.4401 101.651 98.1797 101.281 97.9922C100.911 97.7995 100.443 97.7031 99.875 97.7031C99.3385 97.7031 98.8958 97.7839 98.5469 97.9453C98.1979 98.1068 97.9375 98.3255 97.7656 98.6016C97.599 98.8776 97.5156 99.1927 97.5156 99.5469C97.5156 99.7865 97.5651 100.005 97.6641 100.203C97.7682 100.396 97.9271 100.576 98.1406 100.742C98.3594 100.909 98.6354 101.062 98.9688 101.203C99.3073 101.344 99.7109 101.479 100.18 101.609C100.826 101.792 101.383 101.995 101.852 102.219C102.32 102.443 102.706 102.695 103.008 102.977C103.315 103.253 103.542 103.568 103.688 103.922C103.839 104.271 103.914 104.667 103.914 105.109C103.914 105.573 103.82 105.992 103.633 106.367C103.445 106.742 103.177 107.062 102.828 107.328C102.479 107.594 102.06 107.799 101.57 107.945C101.086 108.086 100.544 108.156 99.9453 108.156C99.4193 108.156 98.901 108.083 98.3906 107.938C97.8854 107.792 97.4245 107.573 97.0078 107.281C96.5964 106.99 96.2656 106.63 96.0156 106.203C95.7708 105.771 95.6484 105.271 95.6484 104.703H97.1484C97.1484 105.094 97.224 105.43 97.375 105.711C97.526 105.987 97.7318 106.216 97.9922 106.398C98.2578 106.581 98.5573 106.716 98.8906 106.805C99.2292 106.888 99.5807 106.93 99.9453 106.93C100.471 106.93 100.917 106.857 101.281 106.711C101.646 106.565 101.922 106.357 102.109 106.086C102.302 105.815 102.398 105.495 102.398 105.125ZM107.062 101.172V111.25H105.609V99.5469H106.938L107.062 101.172ZM112.758 103.703V103.867C112.758 104.482 112.685 105.052 112.539 105.578C112.393 106.099 112.18 106.552 111.898 106.938C111.622 107.323 111.281 107.622 110.875 107.836C110.469 108.049 110.003 108.156 109.477 108.156C108.94 108.156 108.466 108.068 108.055 107.891C107.643 107.714 107.294 107.456 107.008 107.117C106.721 106.779 106.492 106.372 106.32 105.898C106.154 105.424 106.039 104.891 105.977 104.297V103.422C106.039 102.797 106.156 102.237 106.328 101.742C106.5 101.247 106.727 100.826 107.008 100.477C107.294 100.122 107.641 99.8542 108.047 99.6719C108.453 99.4844 108.922 99.3906 109.453 99.3906C109.984 99.3906 110.456 99.4948 110.867 99.7031C111.279 99.9062 111.625 100.198 111.906 100.578C112.188 100.958 112.398 101.414 112.539 101.945C112.685 102.471 112.758 103.057 112.758 103.703ZM111.305 103.867V103.703C111.305 103.281 111.26 102.885 111.172 102.516C111.083 102.141 110.945 101.812 110.758 101.531C110.576 101.245 110.341 101.021 110.055 100.859C109.768 100.693 109.427 100.609 109.031 100.609C108.667 100.609 108.349 100.672 108.078 100.797C107.812 100.922 107.586 101.091 107.398 101.305C107.211 101.513 107.057 101.753 106.938 102.023C106.823 102.289 106.737 102.565 106.68 102.852V104.875C106.784 105.24 106.93 105.583 107.117 105.906C107.305 106.224 107.555 106.482 107.867 106.68C108.18 106.872 108.573 106.969 109.047 106.969C109.438 106.969 109.773 106.888 110.055 106.727C110.341 106.56 110.576 106.333 110.758 106.047C110.945 105.76 111.083 105.432 111.172 105.062C111.26 104.688 111.305 104.289 111.305 103.867ZM119.586 106.555V102.203C119.586 101.87 119.518 101.581 119.383 101.336C119.253 101.086 119.055 100.893 118.789 100.758C118.523 100.622 118.195 100.555 117.805 100.555C117.44 100.555 117.12 100.617 116.844 100.742C116.573 100.867 116.359 101.031 116.203 101.234C116.052 101.438 115.977 101.656 115.977 101.891H114.531C114.531 101.589 114.609 101.289 114.766 100.992C114.922 100.695 115.146 100.427 115.438 100.188C115.734 99.9427 116.089 99.75 116.5 99.6094C116.917 99.4635 117.38 99.3906 117.891 99.3906C118.505 99.3906 119.047 99.4948 119.516 99.7031C119.99 99.9115 120.359 100.227 120.625 100.648C120.896 101.065 121.031 101.589 121.031 102.219V106.156C121.031 106.438 121.055 106.737 121.102 107.055C121.154 107.372 121.229 107.646 121.328 107.875V108H119.82C119.747 107.833 119.69 107.612 119.648 107.336C119.607 107.055 119.586 106.794 119.586 106.555ZM119.836 102.875L119.852 103.891H118.391C117.979 103.891 117.612 103.924 117.289 103.992C116.966 104.055 116.695 104.151 116.477 104.281C116.258 104.411 116.091 104.576 115.977 104.773C115.862 104.966 115.805 105.193 115.805 105.453C115.805 105.719 115.865 105.961 115.984 106.18C116.104 106.398 116.284 106.573 116.523 106.703C116.768 106.828 117.068 106.891 117.422 106.891C117.865 106.891 118.255 106.797 118.594 106.609C118.932 106.422 119.201 106.193 119.398 105.922C119.602 105.651 119.711 105.388 119.727 105.133L120.344 105.828C120.307 106.047 120.208 106.289 120.047 106.555C119.885 106.82 119.669 107.076 119.398 107.32C119.133 107.56 118.815 107.76 118.445 107.922C118.081 108.078 117.669 108.156 117.211 108.156C116.638 108.156 116.135 108.044 115.703 107.82C115.276 107.596 114.943 107.297 114.703 106.922C114.469 106.542 114.352 106.117 114.352 105.648C114.352 105.195 114.44 104.797 114.617 104.453C114.794 104.104 115.049 103.815 115.383 103.586C115.716 103.352 116.117 103.174 116.586 103.055C117.055 102.935 117.578 102.875 118.156 102.875H119.836ZM8.40625 149.898V151.258H0.609375V149.898H8.40625ZM5.23438 146.578V154.859H3.78906V146.578H5.23438ZM14.3672 144.625H18.1328C18.987 144.625 19.7083 144.755 20.2969 145.016C20.8906 145.276 21.3411 145.661 21.6484 146.172C21.9609 146.677 22.1172 147.299 22.1172 148.039C22.1172 148.56 22.0104 149.036 21.7969 149.469C21.5885 149.896 21.2865 150.26 20.8906 150.562C20.5 150.859 20.0312 151.081 19.4844 151.227L19.0625 151.391H15.5234L15.5078 150.164H18.1797C18.7214 150.164 19.1719 150.07 19.5312 149.883C19.8906 149.69 20.1615 149.432 20.3438 149.109C20.526 148.786 20.6172 148.43 20.6172 148.039C20.6172 147.602 20.5312 147.219 20.3594 146.891C20.1875 146.562 19.9167 146.31 19.5469 146.133C19.1823 145.951 18.7109 145.859 18.1328 145.859H15.875V156H14.3672V144.625ZM21.0156 156L18.25 150.844L19.8203 150.836L22.625 155.906V156H21.0156ZM27.5156 156.156C26.9271 156.156 26.3932 156.057 25.9141 155.859C25.4401 155.656 25.0312 155.372 24.6875 155.008C24.349 154.643 24.0885 154.211 23.9062 153.711C23.724 153.211 23.6328 152.664 23.6328 152.07V151.742C23.6328 151.055 23.7344 150.443 23.9375 149.906C24.1406 149.365 24.4167 148.906 24.7656 148.531C25.1146 148.156 25.5104 147.872 25.9531 147.68C26.3958 147.487 26.8542 147.391 27.3281 147.391C27.9323 147.391 28.4531 147.495 28.8906 147.703C29.3333 147.911 29.6953 148.203 29.9766 148.578C30.2578 148.948 30.4661 149.385 30.6016 149.891C30.737 150.391 30.8047 150.938 30.8047 151.531V152.18H24.4922V151H29.3594V150.891C29.3385 150.516 29.2604 150.151 29.125 149.797C28.9948 149.443 28.7865 149.151 28.5 148.922C28.2135 148.693 27.8229 148.578 27.3281 148.578C27 148.578 26.6979 148.648 26.4219 148.789C26.1458 148.924 25.9089 149.128 25.7109 149.398C25.513 149.669 25.3594 150 25.25 150.391C25.1406 150.781 25.0859 151.232 25.0859 151.742V152.07C25.0859 152.471 25.1406 152.849 25.25 153.203C25.3646 153.552 25.5286 153.859 25.7422 154.125C25.9609 154.391 26.224 154.599 26.5312 154.75C26.8438 154.901 27.1979 154.977 27.5938 154.977C28.1042 154.977 28.5365 154.872 28.8906 154.664C29.2448 154.456 29.5547 154.177 29.8203 153.828L30.6953 154.523C30.513 154.799 30.2812 155.062 30 155.312C29.7188 155.562 29.3724 155.766 28.9609 155.922C28.5547 156.078 28.0729 156.156 27.5156 156.156ZM37.4141 153.758C37.4141 153.549 37.3672 153.357 37.2734 153.18C37.1849 152.997 37 152.833 36.7188 152.688C36.4427 152.536 36.026 152.406 35.4688 152.297C35 152.198 34.5755 152.081 34.1953 151.945C33.8203 151.81 33.5 151.646 33.2344 151.453C32.974 151.26 32.7734 151.034 32.6328 150.773C32.4922 150.513 32.4219 150.208 32.4219 149.859C32.4219 149.526 32.4948 149.211 32.6406 148.914C32.7917 148.617 33.0026 148.354 33.2734 148.125C33.5495 147.896 33.8802 147.716 34.2656 147.586C34.651 147.456 35.0807 147.391 35.5547 147.391C36.2318 147.391 36.8099 147.51 37.2891 147.75C37.7682 147.99 38.1354 148.31 38.3906 148.711C38.6458 149.107 38.7734 149.547 38.7734 150.031H37.3281C37.3281 149.797 37.2578 149.57 37.1172 149.352C36.9818 149.128 36.7812 148.943 36.5156 148.797C36.2552 148.651 35.9349 148.578 35.5547 148.578C35.1536 148.578 34.8281 148.641 34.5781 148.766C34.3333 148.885 34.1536 149.039 34.0391 149.227C33.9297 149.414 33.875 149.612 33.875 149.82C33.875 149.977 33.901 150.117 33.9531 150.242C34.0104 150.362 34.1094 150.474 34.25 150.578C34.3906 150.677 34.5885 150.771 34.8438 150.859C35.099 150.948 35.4245 151.036 35.8203 151.125C36.513 151.281 37.0833 151.469 37.5312 151.688C37.9792 151.906 38.3125 152.174 38.5312 152.492C38.75 152.81 38.8594 153.195 38.8594 153.648C38.8594 154.018 38.7812 154.357 38.625 154.664C38.474 154.971 38.2526 155.237 37.9609 155.461C37.6745 155.68 37.3307 155.852 36.9297 155.977C36.5339 156.096 36.0885 156.156 35.5938 156.156C34.849 156.156 34.2188 156.023 33.7031 155.758C33.1875 155.492 32.7969 155.148 32.5312 154.727C32.2656 154.305 32.1328 153.859 32.1328 153.391H33.5859C33.6068 153.786 33.7214 154.102 33.9297 154.336C34.138 154.565 34.3932 154.729 34.6953 154.828C34.9974 154.922 35.2969 154.969 35.5938 154.969C35.9896 154.969 36.3203 154.917 36.5859 154.812C36.8568 154.708 37.0625 154.565 37.2031 154.383C37.3438 154.201 37.4141 153.992 37.4141 153.758ZM44.2969 147.547V148.656H39.7266V147.547H44.2969ZM41.2734 145.492H42.7188V153.906C42.7188 154.193 42.763 154.409 42.8516 154.555C42.9401 154.701 43.0547 154.797 43.1953 154.844C43.3359 154.891 43.487 154.914 43.6484 154.914C43.7682 154.914 43.8932 154.904 44.0234 154.883C44.1589 154.857 44.2604 154.836 44.3281 154.82L44.3359 156C44.2214 156.036 44.0703 156.07 43.8828 156.102C43.7005 156.138 43.4792 156.156 43.2188 156.156C42.8646 156.156 42.5391 156.086 42.2422 155.945C41.9453 155.805 41.7083 155.57 41.5312 155.242C41.3594 154.909 41.2734 154.461 41.2734 153.898V145.492ZM50.9766 154.555V150.203C50.9766 149.87 50.9089 149.581 50.7734 149.336C50.6432 149.086 50.4453 148.893 50.1797 148.758C49.9141 148.622 49.5859 148.555 49.1953 148.555C48.8307 148.555 48.5104 148.617 48.2344 148.742C47.9635 148.867 47.75 149.031 47.5938 149.234C47.4427 149.438 47.3672 149.656 47.3672 149.891H45.9219C45.9219 149.589 46 149.289 46.1562 148.992C46.3125 148.695 46.5365 148.427 46.8281 148.188C47.125 147.943 47.4792 147.75 47.8906 147.609C48.3073 147.464 48.7708 147.391 49.2812 147.391C49.8958 147.391 50.4375 147.495 50.9062 147.703C51.3802 147.911 51.75 148.227 52.0156 148.648C52.2865 149.065 52.4219 149.589 52.4219 150.219V154.156C52.4219 154.438 52.4453 154.737 52.4922 155.055C52.5443 155.372 52.6198 155.646 52.7188 155.875V156H51.2109C51.138 155.833 51.0807 155.612 51.0391 155.336C50.9974 155.055 50.9766 154.794 50.9766 154.555ZM51.2266 150.875L51.2422 151.891H49.7812C49.3698 151.891 49.0026 151.924 48.6797 151.992C48.3568 152.055 48.0859 152.151 47.8672 152.281C47.6484 152.411 47.4818 152.576 47.3672 152.773C47.2526 152.966 47.1953 153.193 47.1953 153.453C47.1953 153.719 47.2552 153.961 47.375 154.18C47.4948 154.398 47.6745 154.573 47.9141 154.703C48.1589 154.828 48.4583 154.891 48.8125 154.891C49.2552 154.891 49.6458 154.797 49.9844 154.609C50.3229 154.422 50.5911 154.193 50.7891 153.922C50.9922 153.651 51.1016 153.388 51.1172 153.133L51.7344 153.828C51.6979 154.047 51.599 154.289 51.4375 154.555C51.276 154.82 51.0599 155.076 50.7891 155.32C50.5234 155.56 50.2057 155.76 49.8359 155.922C49.4714 156.078 49.0599 156.156 48.6016 156.156C48.0286 156.156 47.526 156.044 47.0938 155.82C46.6667 155.596 46.3333 155.297 46.0938 154.922C45.8594 154.542 45.7422 154.117 45.7422 153.648C45.7422 153.195 45.8307 152.797 46.0078 152.453C46.1849 152.104 46.4401 151.815 46.7734 151.586C47.1068 151.352 47.5078 151.174 47.9766 151.055C48.4453 150.935 48.9688 150.875 49.5469 150.875H51.2266ZM59.8672 154.047V147.547H61.3203V156H59.9375L59.8672 154.047ZM60.1406 152.266L60.7422 152.25C60.7422 152.812 60.6823 153.333 60.5625 153.812C60.4479 154.286 60.2604 154.698 60 155.047C59.7396 155.396 59.3984 155.669 58.9766 155.867C58.5547 156.06 58.0417 156.156 57.4375 156.156C57.026 156.156 56.6484 156.096 56.3047 155.977C55.9661 155.857 55.6745 155.672 55.4297 155.422C55.1849 155.172 54.9948 154.846 54.8594 154.445C54.7292 154.044 54.6641 153.562 54.6641 153V147.547H56.1094V153.016C56.1094 153.396 56.151 153.711 56.2344 153.961C56.3229 154.206 56.4401 154.401 56.5859 154.547C56.737 154.688 56.9036 154.786 57.0859 154.844C57.2734 154.901 57.4661 154.93 57.6641 154.93C58.2786 154.93 58.7656 154.812 59.125 154.578C59.4844 154.339 59.7422 154.018 59.8984 153.617C60.0599 153.211 60.1406 152.76 60.1406 152.266ZM64.9688 148.875V156H63.5234V147.547H64.9297L64.9688 148.875ZM67.6094 147.5L67.6016 148.844C67.4818 148.818 67.3672 148.802 67.2578 148.797C67.1536 148.786 67.0339 148.781 66.8984 148.781C66.5651 148.781 66.2708 148.833 66.0156 148.938C65.7604 149.042 65.5443 149.188 65.3672 149.375C65.1901 149.562 65.0495 149.786 64.9453 150.047C64.8464 150.302 64.7812 150.583 64.75 150.891L64.3438 151.125C64.3438 150.615 64.3932 150.135 64.4922 149.688C64.5964 149.24 64.7552 148.844 64.9688 148.5C65.1823 148.151 65.4531 147.88 65.7812 147.688C66.1146 147.49 66.5104 147.391 66.9688 147.391C67.0729 147.391 67.1927 147.404 67.3281 147.43C67.4635 147.451 67.5573 147.474 67.6094 147.5ZM73.6172 154.555V150.203C73.6172 149.87 73.5495 149.581 73.4141 149.336C73.2839 149.086 73.0859 148.893 72.8203 148.758C72.5547 148.622 72.2266 148.555 71.8359 148.555C71.4714 148.555 71.151 148.617 70.875 148.742C70.6042 148.867 70.3906 149.031 70.2344 149.234C70.0833 149.438 70.0078 149.656 70.0078 149.891H68.5625C68.5625 149.589 68.6406 149.289 68.7969 148.992C68.9531 148.695 69.1771 148.427 69.4688 148.188C69.7656 147.943 70.1198 147.75 70.5312 147.609C70.9479 147.464 71.4115 147.391 71.9219 147.391C72.5365 147.391 73.0781 147.495 73.5469 147.703C74.0208 147.911 74.3906 148.227 74.6562 148.648C74.9271 149.065 75.0625 149.589 75.0625 150.219V154.156C75.0625 154.438 75.0859 154.737 75.1328 155.055C75.1849 155.372 75.2604 155.646 75.3594 155.875V156H73.8516C73.7786 155.833 73.7214 155.612 73.6797 155.336C73.638 155.055 73.6172 154.794 73.6172 154.555ZM73.8672 150.875L73.8828 151.891H72.4219C72.0104 151.891 71.6432 151.924 71.3203 151.992C70.9974 152.055 70.7266 152.151 70.5078 152.281C70.2891 152.411 70.1224 152.576 70.0078 152.773C69.8932 152.966 69.8359 153.193 69.8359 153.453C69.8359 153.719 69.8958 153.961 70.0156 154.18C70.1354 154.398 70.3151 154.573 70.5547 154.703C70.7995 154.828 71.099 154.891 71.4531 154.891C71.8958 154.891 72.2865 154.797 72.625 154.609C72.9635 154.422 73.2318 154.193 73.4297 153.922C73.6328 153.651 73.7422 153.388 73.7578 153.133L74.375 153.828C74.3385 154.047 74.2396 154.289 74.0781 154.555C73.9167 154.82 73.7005 155.076 73.4297 155.32C73.1641 155.56 72.8464 155.76 72.4766 155.922C72.112 156.078 71.7005 156.156 71.2422 156.156C70.6693 156.156 70.1667 156.044 69.7344 155.82C69.3073 155.596 68.974 155.297 68.7344 154.922C68.5 154.542 68.3828 154.117 68.3828 153.648C68.3828 153.195 68.4714 152.797 68.6484 152.453C68.8255 152.104 69.0807 151.815 69.4141 151.586C69.7474 151.352 70.1484 151.174 70.6172 151.055C71.0859 150.935 71.6094 150.875 72.1875 150.875H73.8672ZM78.7812 149.352V156H77.3359V147.547H78.7031L78.7812 149.352ZM78.4375 151.453L77.8359 151.43C77.8411 150.852 77.9271 150.318 78.0938 149.828C78.2604 149.333 78.4948 148.904 78.7969 148.539C79.099 148.174 79.4583 147.893 79.875 147.695C80.2969 147.492 80.763 147.391 81.2734 147.391C81.6901 147.391 82.0651 147.448 82.3984 147.562C82.7318 147.672 83.0156 147.849 83.25 148.094C83.4896 148.339 83.6719 148.656 83.7969 149.047C83.9219 149.432 83.9844 149.904 83.9844 150.461V156H82.5312V150.445C82.5312 150.003 82.4661 149.648 82.3359 149.383C82.2057 149.112 82.0156 148.917 81.7656 148.797C81.5156 148.672 81.2083 148.609 80.8438 148.609C80.4844 148.609 80.1562 148.685 79.8594 148.836C79.5677 148.987 79.3151 149.195 79.1016 149.461C78.8932 149.727 78.7292 150.031 78.6094 150.375C78.4948 150.714 78.4375 151.073 78.4375 151.453ZM89.7188 147.547V148.656H85.1484V147.547H89.7188ZM86.6953 145.492H88.1406V153.906C88.1406 154.193 88.1849 154.409 88.2734 154.555C88.362 154.701 88.4766 154.797 88.6172 154.844C88.7578 154.891 88.9089 154.914 89.0703 154.914C89.1901 154.914 89.3151 154.904 89.4453 154.883C89.5807 154.857 89.6823 154.836 89.75 154.82L89.7578 156C89.6432 156.036 89.4922 156.07 89.3047 156.102C89.1224 156.138 88.901 156.156 88.6406 156.156C88.2865 156.156 87.9609 156.086 87.6641 155.945C87.3672 155.805 87.1302 155.57 86.9531 155.242C86.7812 154.909 86.6953 154.461 86.6953 153.898V145.492ZM8.40625 197.898V199.258H0.609375V197.898H8.40625ZM5.23438 194.578V202.859H3.78906V194.578H5.23438ZM21.2344 200.383H22.7344C22.6562 201.102 22.4505 201.745 22.1172 202.312C21.7839 202.88 21.3125 203.331 20.7031 203.664C20.0938 203.992 19.3333 204.156 18.4219 204.156C17.7552 204.156 17.1484 204.031 16.6016 203.781C16.0599 203.531 15.5938 203.177 15.2031 202.719C14.8125 202.255 14.5104 201.701 14.2969 201.055C14.0885 200.404 13.9844 199.68 13.9844 198.883V197.75C13.9844 196.953 14.0885 196.232 14.2969 195.586C14.5104 194.935 14.8151 194.378 15.2109 193.914C15.612 193.451 16.0938 193.094 16.6562 192.844C17.2188 192.594 17.8516 192.469 18.5547 192.469C19.4141 192.469 20.1406 192.63 20.7344 192.953C21.3281 193.276 21.7891 193.724 22.1172 194.297C22.4505 194.865 22.6562 195.523 22.7344 196.273H21.2344C21.1615 195.742 21.026 195.286 20.8281 194.906C20.6302 194.521 20.349 194.224 19.9844 194.016C19.6198 193.807 19.1432 193.703 18.5547 193.703C18.0495 193.703 17.6042 193.799 17.2188 193.992C16.8385 194.185 16.5182 194.458 16.2578 194.812C16.0026 195.167 15.8099 195.591 15.6797 196.086C15.5495 196.581 15.4844 197.13 15.4844 197.734V198.883C15.4844 199.44 15.5417 199.964 15.6562 200.453C15.776 200.943 15.9557 201.372 16.1953 201.742C16.4349 202.112 16.7396 202.404 17.1094 202.617C17.4792 202.826 17.9167 202.93 18.4219 202.93C19.0625 202.93 19.5729 202.828 19.9531 202.625C20.3333 202.422 20.6198 202.13 20.8125 201.75C21.0104 201.37 21.151 200.914 21.2344 200.383ZM24.1875 199.867V199.688C24.1875 199.078 24.276 198.513 24.4531 197.992C24.6302 197.466 24.8854 197.01 25.2188 196.625C25.5521 196.234 25.9557 195.932 26.4297 195.719C26.9036 195.5 27.4349 195.391 28.0234 195.391C28.6172 195.391 29.151 195.5 29.625 195.719C30.1042 195.932 30.5104 196.234 30.8438 196.625C31.1823 197.01 31.4401 197.466 31.6172 197.992C31.7943 198.513 31.8828 199.078 31.8828 199.688V199.867C31.8828 200.477 31.7943 201.042 31.6172 201.562C31.4401 202.083 31.1823 202.539 30.8438 202.93C30.5104 203.315 30.1068 203.617 29.6328 203.836C29.1641 204.049 28.6328 204.156 28.0391 204.156C27.4453 204.156 26.9115 204.049 26.4375 203.836C25.9635 203.617 25.5573 203.315 25.2188 202.93C24.8854 202.539 24.6302 202.083 24.4531 201.562C24.276 201.042 24.1875 200.477 24.1875 199.867ZM25.6328 199.688V199.867C25.6328 200.289 25.6823 200.688 25.7812 201.062C25.8802 201.432 26.0286 201.76 26.2266 202.047C26.4297 202.333 26.6823 202.56 26.9844 202.727C27.2865 202.888 27.638 202.969 28.0391 202.969C28.4349 202.969 28.7812 202.888 29.0781 202.727C29.3802 202.56 29.6302 202.333 29.8281 202.047C30.026 201.76 30.1745 201.432 30.2734 201.062C30.3776 200.688 30.4297 200.289 30.4297 199.867V199.688C30.4297 199.271 30.3776 198.878 30.2734 198.508C30.1745 198.133 30.0234 197.802 29.8203 197.516C29.6224 197.224 29.3724 196.995 29.0703 196.828C28.7734 196.661 28.4245 196.578 28.0234 196.578C27.6276 196.578 27.2786 196.661 26.9766 196.828C26.6797 196.995 26.4297 197.224 26.2266 197.516C26.0286 197.802 25.8802 198.133 25.7812 198.508C25.6823 198.878 25.6328 199.271 25.6328 199.688ZM35.1406 197.352V204H33.6953V195.547H35.0625L35.1406 197.352ZM34.7969 199.453L34.1953 199.43C34.2005 198.852 34.2865 198.318 34.4531 197.828C34.6198 197.333 34.8542 196.904 35.1562 196.539C35.4583 196.174 35.8177 195.893 36.2344 195.695C36.6562 195.492 37.1224 195.391 37.6328 195.391C38.0495 195.391 38.4245 195.448 38.7578 195.562C39.0911 195.672 39.375 195.849 39.6094 196.094C39.849 196.339 40.0312 196.656 40.1562 197.047C40.2812 197.432 40.3438 197.904 40.3438 198.461V204H38.8906V198.445C38.8906 198.003 38.8255 197.648 38.6953 197.383C38.5651 197.112 38.375 196.917 38.125 196.797C37.875 196.672 37.5677 196.609 37.2031 196.609C36.8438 196.609 36.5156 196.685 36.2188 196.836C35.9271 196.987 35.6745 197.195 35.4609 197.461C35.2526 197.727 35.0885 198.031 34.9688 198.375C34.8542 198.714 34.7969 199.073 34.7969 199.453ZM44.6953 204H43.25V194.656C43.25 194.047 43.3594 193.534 43.5781 193.117C43.8021 192.695 44.1224 192.378 44.5391 192.164C44.9557 191.945 45.4505 191.836 46.0234 191.836C46.1901 191.836 46.3568 191.846 46.5234 191.867C46.6953 191.888 46.862 191.919 47.0234 191.961L46.9453 193.141C46.8359 193.115 46.7109 193.096 46.5703 193.086C46.4349 193.076 46.2995 193.07 46.1641 193.07C45.8568 193.07 45.5911 193.133 45.3672 193.258C45.1484 193.378 44.9818 193.555 44.8672 193.789C44.7526 194.023 44.6953 194.312 44.6953 194.656V204ZM46.4922 195.547V196.656H41.9141V195.547H46.4922ZM51.4219 204.156C50.8333 204.156 50.2995 204.057 49.8203 203.859C49.3464 203.656 48.9375 203.372 48.5938 203.008C48.2552 202.643 47.9948 202.211 47.8125 201.711C47.6302 201.211 47.5391 200.664 47.5391 200.07V199.742C47.5391 199.055 47.6406 198.443 47.8438 197.906C48.0469 197.365 48.3229 196.906 48.6719 196.531C49.0208 196.156 49.4167 195.872 49.8594 195.68C50.3021 195.487 50.7604 195.391 51.2344 195.391C51.8385 195.391 52.3594 195.495 52.7969 195.703C53.2396 195.911 53.6016 196.203 53.8828 196.578C54.1641 196.948 54.3724 197.385 54.5078 197.891C54.6432 198.391 54.7109 198.938 54.7109 199.531V200.18H48.3984V199H53.2656V198.891C53.2448 198.516 53.1667 198.151 53.0312 197.797C52.901 197.443 52.6927 197.151 52.4062 196.922C52.1198 196.693 51.7292 196.578 51.2344 196.578C50.9062 196.578 50.6042 196.648 50.3281 196.789C50.0521 196.924 49.8151 197.128 49.6172 197.398C49.4193 197.669 49.2656 198 49.1562 198.391C49.0469 198.781 48.9922 199.232 48.9922 199.742V200.07C48.9922 200.471 49.0469 200.849 49.1562 201.203C49.2708 201.552 49.4349 201.859 49.6484 202.125C49.8672 202.391 50.1302 202.599 50.4375 202.75C50.75 202.901 51.1042 202.977 51.5 202.977C52.0104 202.977 52.4427 202.872 52.7969 202.664C53.151 202.456 53.4609 202.177 53.7266 201.828L54.6016 202.523C54.4193 202.799 54.1875 203.062 53.9062 203.312C53.625 203.562 53.2786 203.766 52.8672 203.922C52.4609 204.078 51.9792 204.156 51.4219 204.156ZM57.8438 196.875V204H56.3984V195.547H57.8047L57.8438 196.875ZM60.4844 195.5L60.4766 196.844C60.3568 196.818 60.2422 196.802 60.1328 196.797C60.0286 196.786 59.9089 196.781 59.7734 196.781C59.4401 196.781 59.1458 196.833 58.8906 196.938C58.6354 197.042 58.4193 197.188 58.2422 197.375C58.0651 197.562 57.9245 197.786 57.8203 198.047C57.7214 198.302 57.6562 198.583 57.625 198.891L57.2188 199.125C57.2188 198.615 57.2682 198.135 57.3672 197.688C57.4714 197.24 57.6302 196.844 57.8438 196.5C58.0573 196.151 58.3281 195.88 58.6562 195.688C58.9896 195.49 59.3854 195.391 59.8438 195.391C59.9479 195.391 60.0677 195.404 60.2031 195.43C60.3385 195.451 60.4323 195.474 60.4844 195.5ZM65.1719 204.156C64.5833 204.156 64.0495 204.057 63.5703 203.859C63.0964 203.656 62.6875 203.372 62.3438 203.008C62.0052 202.643 61.7448 202.211 61.5625 201.711C61.3802 201.211 61.2891 200.664 61.2891 200.07V199.742C61.2891 199.055 61.3906 198.443 61.5938 197.906C61.7969 197.365 62.0729 196.906 62.4219 196.531C62.7708 196.156 63.1667 195.872 63.6094 195.68C64.0521 195.487 64.5104 195.391 64.9844 195.391C65.5885 195.391 66.1094 195.495 66.5469 195.703C66.9896 195.911 67.3516 196.203 67.6328 196.578C67.9141 196.948 68.1224 197.385 68.2578 197.891C68.3932 198.391 68.4609 198.938 68.4609 199.531V200.18H62.1484V199H67.0156V198.891C66.9948 198.516 66.9167 198.151 66.7812 197.797C66.651 197.443 66.4427 197.151 66.1562 196.922C65.8698 196.693 65.4792 196.578 64.9844 196.578C64.6562 196.578 64.3542 196.648 64.0781 196.789C63.8021 196.924 63.5651 197.128 63.3672 197.398C63.1693 197.669 63.0156 198 62.9062 198.391C62.7969 198.781 62.7422 199.232 62.7422 199.742V200.07C62.7422 200.471 62.7969 200.849 62.9062 201.203C63.0208 201.552 63.1849 201.859 63.3984 202.125C63.6172 202.391 63.8802 202.599 64.1875 202.75C64.5 202.901 64.8542 202.977 65.25 202.977C65.7604 202.977 66.1927 202.872 66.5469 202.664C66.901 202.456 67.2109 202.177 67.4766 201.828L68.3516 202.523C68.1693 202.799 67.9375 203.062 67.6562 203.312C67.375 203.562 67.0286 203.766 66.6172 203.922C66.2109 204.078 65.7292 204.156 65.1719 204.156ZM71.5938 197.352V204H70.1484V195.547H71.5156L71.5938 197.352ZM71.25 199.453L70.6484 199.43C70.6536 198.852 70.7396 198.318 70.9062 197.828C71.0729 197.333 71.3073 196.904 71.6094 196.539C71.9115 196.174 72.2708 195.893 72.6875 195.695C73.1094 195.492 73.5755 195.391 74.0859 195.391C74.5026 195.391 74.8776 195.448 75.2109 195.562C75.5443 195.672 75.8281 195.849 76.0625 196.094C76.3021 196.339 76.4844 196.656 76.6094 197.047C76.7344 197.432 76.7969 197.904 76.7969 198.461V204H75.3438V198.445C75.3438 198.003 75.2786 197.648 75.1484 197.383C75.0182 197.112 74.8281 196.917 74.5781 196.797C74.3281 196.672 74.0208 196.609 73.6562 196.609C73.2969 196.609 72.9688 196.685 72.6719 196.836C72.3802 196.987 72.1276 197.195 71.9141 197.461C71.7057 197.727 71.5417 198.031 71.4219 198.375C71.3073 198.714 71.25 199.073 71.25 199.453ZM82.375 202.969C82.7188 202.969 83.0365 202.898 83.3281 202.758C83.6198 202.617 83.8594 202.424 84.0469 202.18C84.2344 201.93 84.3411 201.646 84.3672 201.328H85.7422C85.7161 201.828 85.5469 202.294 85.2344 202.727C84.9271 203.154 84.5234 203.5 84.0234 203.766C83.5234 204.026 82.974 204.156 82.375 204.156C81.7396 204.156 81.1849 204.044 80.7109 203.82C80.2422 203.596 79.8516 203.289 79.5391 202.898C79.2318 202.508 79 202.06 78.8438 201.555C78.6927 201.044 78.6172 200.505 78.6172 199.938V199.609C78.6172 199.042 78.6927 198.505 78.8438 198C79 197.49 79.2318 197.039 79.5391 196.648C79.8516 196.258 80.2422 195.951 80.7109 195.727C81.1849 195.503 81.7396 195.391 82.375 195.391C83.0365 195.391 83.6146 195.526 84.1094 195.797C84.6042 196.062 84.9922 196.427 85.2734 196.891C85.5599 197.349 85.7161 197.87 85.7422 198.453H84.3672C84.3411 198.104 84.2422 197.789 84.0703 197.508C83.9036 197.227 83.6745 197.003 83.3828 196.836C83.0964 196.664 82.7604 196.578 82.375 196.578C81.9323 196.578 81.5599 196.667 81.2578 196.844C80.9609 197.016 80.724 197.25 80.5469 197.547C80.375 197.839 80.25 198.164 80.1719 198.523C80.099 198.878 80.0625 199.24 80.0625 199.609V199.938C80.0625 200.307 80.099 200.672 80.1719 201.031C80.2448 201.391 80.3672 201.716 80.5391 202.008C80.7161 202.299 80.9531 202.534 81.25 202.711C81.5521 202.883 81.9271 202.969 82.375 202.969ZM90.875 204.156C90.2865 204.156 89.7526 204.057 89.2734 203.859C88.7995 203.656 88.3906 203.372 88.0469 203.008C87.7083 202.643 87.4479 202.211 87.2656 201.711C87.0833 201.211 86.9922 200.664 86.9922 200.07V199.742C86.9922 199.055 87.0938 198.443 87.2969 197.906C87.5 197.365 87.776 196.906 88.125 196.531C88.474 196.156 88.8698 195.872 89.3125 195.68C89.7552 195.487 90.2135 195.391 90.6875 195.391C91.2917 195.391 91.8125 195.495 92.25 195.703C92.6927 195.911 93.0547 196.203 93.3359 196.578C93.6172 196.948 93.8255 197.385 93.9609 197.891C94.0964 198.391 94.1641 198.938 94.1641 199.531V200.18H87.8516V199H92.7188V198.891C92.6979 198.516 92.6198 198.151 92.4844 197.797C92.3542 197.443 92.1458 197.151 91.8594 196.922C91.5729 196.693 91.1823 196.578 90.6875 196.578C90.3594 196.578 90.0573 196.648 89.7812 196.789C89.5052 196.924 89.2682 197.128 89.0703 197.398C88.8724 197.669 88.7188 198 88.6094 198.391C88.5 198.781 88.4453 199.232 88.4453 199.742V200.07C88.4453 200.471 88.5 200.849 88.6094 201.203C88.724 201.552 88.888 201.859 89.1016 202.125C89.3203 202.391 89.5833 202.599 89.8906 202.75C90.2031 202.901 90.5573 202.977 90.9531 202.977C91.4635 202.977 91.8958 202.872 92.25 202.664C92.6042 202.456 92.9141 202.177 93.1797 201.828L94.0547 202.523C93.8724 202.799 93.6406 203.062 93.3594 203.312C93.0781 203.562 92.7318 203.766 92.3203 203.922C91.9141 204.078 91.4323 204.156 90.875 204.156ZM100.039 192.625H103.805C104.659 192.625 105.38 192.755 105.969 193.016C106.562 193.276 107.013 193.661 107.32 194.172C107.633 194.677 107.789 195.299 107.789 196.039C107.789 196.56 107.682 197.036 107.469 197.469C107.26 197.896 106.958 198.26 106.562 198.562C106.172 198.859 105.703 199.081 105.156 199.227L104.734 199.391H101.195L101.18 198.164H103.852C104.393 198.164 104.844 198.07 105.203 197.883C105.562 197.69 105.833 197.432 106.016 197.109C106.198 196.786 106.289 196.43 106.289 196.039C106.289 195.602 106.203 195.219 106.031 194.891C105.859 194.562 105.589 194.31 105.219 194.133C104.854 193.951 104.383 193.859 103.805 193.859H101.547V204H100.039V192.625ZM106.688 204L103.922 198.844L105.492 198.836L108.297 203.906V204H106.688ZM109.297 199.867V199.688C109.297 199.078 109.385 198.513 109.562 197.992C109.74 197.466 109.995 197.01 110.328 196.625C110.661 196.234 111.065 195.932 111.539 195.719C112.013 195.5 112.544 195.391 113.133 195.391C113.727 195.391 114.26 195.5 114.734 195.719C115.214 195.932 115.62 196.234 115.953 196.625C116.292 197.01 116.549 197.466 116.727 197.992C116.904 198.513 116.992 199.078 116.992 199.688V199.867C116.992 200.477 116.904 201.042 116.727 201.562C116.549 202.083 116.292 202.539 115.953 202.93C115.62 203.315 115.216 203.617 114.742 203.836C114.273 204.049 113.742 204.156 113.148 204.156C112.555 204.156 112.021 204.049 111.547 203.836C111.073 203.617 110.667 203.315 110.328 202.93C109.995 202.539 109.74 202.083 109.562 201.562C109.385 201.042 109.297 200.477 109.297 199.867ZM110.742 199.688V199.867C110.742 200.289 110.792 200.688 110.891 201.062C110.99 201.432 111.138 201.76 111.336 202.047C111.539 202.333 111.792 202.56 112.094 202.727C112.396 202.888 112.747 202.969 113.148 202.969C113.544 202.969 113.891 202.888 114.188 202.727C114.49 202.56 114.74 202.333 114.938 202.047C115.135 201.76 115.284 201.432 115.383 201.062C115.487 200.688 115.539 200.289 115.539 199.867V199.688C115.539 199.271 115.487 198.878 115.383 198.508C115.284 198.133 115.133 197.802 114.93 197.516C114.732 197.224 114.482 196.995 114.18 196.828C113.883 196.661 113.534 196.578 113.133 196.578C112.737 196.578 112.388 196.661 112.086 196.828C111.789 196.995 111.539 197.224 111.336 197.516C111.138 197.802 110.99 198.133 110.891 198.508C110.792 198.878 110.742 199.271 110.742 199.688ZM118.422 199.867V199.688C118.422 199.078 118.51 198.513 118.688 197.992C118.865 197.466 119.12 197.01 119.453 196.625C119.786 196.234 120.19 195.932 120.664 195.719C121.138 195.5 121.669 195.391 122.258 195.391C122.852 195.391 123.385 195.5 123.859 195.719C124.339 195.932 124.745 196.234 125.078 196.625C125.417 197.01 125.674 197.466 125.852 197.992C126.029 198.513 126.117 199.078 126.117 199.688V199.867C126.117 200.477 126.029 201.042 125.852 201.562C125.674 202.083 125.417 202.539 125.078 202.93C124.745 203.315 124.341 203.617 123.867 203.836C123.398 204.049 122.867 204.156 122.273 204.156C121.68 204.156 121.146 204.049 120.672 203.836C120.198 203.617 119.792 203.315 119.453 202.93C119.12 202.539 118.865 202.083 118.688 201.562C118.51 201.042 118.422 200.477 118.422 199.867ZM119.867 199.688V199.867C119.867 200.289 119.917 200.688 120.016 201.062C120.115 201.432 120.263 201.76 120.461 202.047C120.664 202.333 120.917 202.56 121.219 202.727C121.521 202.888 121.872 202.969 122.273 202.969C122.669 202.969 123.016 202.888 123.312 202.727C123.615 202.56 123.865 202.333 124.062 202.047C124.26 201.76 124.409 201.432 124.508 201.062C124.612 200.688 124.664 200.289 124.664 199.867V199.688C124.664 199.271 124.612 198.878 124.508 198.508C124.409 198.133 124.258 197.802 124.055 197.516C123.857 197.224 123.607 196.995 123.305 196.828C123.008 196.661 122.659 196.578 122.258 196.578C121.862 196.578 121.513 196.661 121.211 196.828C120.914 196.995 120.664 197.224 120.461 197.516C120.263 197.802 120.115 198.133 120.016 198.508C119.917 198.878 119.867 199.271 119.867 199.688ZM129.367 197.227V204H127.914V195.547H129.289L129.367 197.227ZM129.07 199.453L128.398 199.43C128.404 198.852 128.479 198.318 128.625 197.828C128.771 197.333 128.987 196.904 129.273 196.539C129.56 196.174 129.917 195.893 130.344 195.695C130.771 195.492 131.266 195.391 131.828 195.391C132.224 195.391 132.589 195.448 132.922 195.562C133.255 195.672 133.544 195.846 133.789 196.086C134.034 196.326 134.224 196.633 134.359 197.008C134.495 197.383 134.562 197.836 134.562 198.367V204H133.117V198.438C133.117 197.995 133.042 197.641 132.891 197.375C132.745 197.109 132.536 196.917 132.266 196.797C131.995 196.672 131.677 196.609 131.312 196.609C130.885 196.609 130.529 196.685 130.242 196.836C129.956 196.987 129.727 197.195 129.555 197.461C129.383 197.727 129.258 198.031 129.18 198.375C129.107 198.714 129.07 199.073 129.07 199.453ZM134.547 198.656L133.578 198.953C133.583 198.49 133.659 198.044 133.805 197.617C133.956 197.19 134.172 196.81 134.453 196.477C134.74 196.143 135.091 195.88 135.508 195.688C135.924 195.49 136.401 195.391 136.938 195.391C137.391 195.391 137.792 195.451 138.141 195.57C138.495 195.69 138.792 195.875 139.031 196.125C139.276 196.37 139.461 196.685 139.586 197.07C139.711 197.456 139.773 197.914 139.773 198.445V204H138.32V198.43C138.32 197.956 138.245 197.589 138.094 197.328C137.948 197.062 137.74 196.878 137.469 196.773C137.203 196.664 136.885 196.609 136.516 196.609C136.198 196.609 135.917 196.664 135.672 196.773C135.427 196.883 135.221 197.034 135.055 197.227C134.888 197.414 134.76 197.63 134.672 197.875C134.589 198.12 134.547 198.38 134.547 198.656ZM8.40625 245.898V247.258H0.609375V245.898H8.40625ZM5.23438 242.578V250.859H3.78906V242.578H5.23438ZM21.2344 248.383H22.7344C22.6562 249.102 22.4505 249.745 22.1172 250.312C21.7839 250.88 21.3125 251.331 20.7031 251.664C20.0938 251.992 19.3333 252.156 18.4219 252.156C17.7552 252.156 17.1484 252.031 16.6016 251.781C16.0599 251.531 15.5938 251.177 15.2031 250.719C14.8125 250.255 14.5104 249.701 14.2969 249.055C14.0885 248.404 13.9844 247.68 13.9844 246.883V245.75C13.9844 244.953 14.0885 244.232 14.2969 243.586C14.5104 242.935 14.8151 242.378 15.2109 241.914C15.612 241.451 16.0938 241.094 16.6562 240.844C17.2188 240.594 17.8516 240.469 18.5547 240.469C19.4141 240.469 20.1406 240.63 20.7344 240.953C21.3281 241.276 21.7891 241.724 22.1172 242.297C22.4505 242.865 22.6562 243.523 22.7344 244.273H21.2344C21.1615 243.742 21.026 243.286 20.8281 242.906C20.6302 242.521 20.349 242.224 19.9844 242.016C19.6198 241.807 19.1432 241.703 18.5547 241.703C18.0495 241.703 17.6042 241.799 17.2188 241.992C16.8385 242.185 16.5182 242.458 16.2578 242.812C16.0026 243.167 15.8099 243.591 15.6797 244.086C15.5495 244.581 15.4844 245.13 15.4844 245.734V246.883C15.4844 247.44 15.5417 247.964 15.6562 248.453C15.776 248.943 15.9557 249.372 16.1953 249.742C16.4349 250.112 16.7396 250.404 17.1094 250.617C17.4792 250.826 17.9167 250.93 18.4219 250.93C19.0625 250.93 19.5729 250.828 19.9531 250.625C20.3333 250.422 20.6198 250.13 20.8125 249.75C21.0104 249.37 21.151 248.914 21.2344 248.383ZM24.1875 247.867V247.688C24.1875 247.078 24.276 246.513 24.4531 245.992C24.6302 245.466 24.8854 245.01 25.2188 244.625C25.5521 244.234 25.9557 243.932 26.4297 243.719C26.9036 243.5 27.4349 243.391 28.0234 243.391C28.6172 243.391 29.151 243.5 29.625 243.719C30.1042 243.932 30.5104 244.234 30.8438 244.625C31.1823 245.01 31.4401 245.466 31.6172 245.992C31.7943 246.513 31.8828 247.078 31.8828 247.688V247.867C31.8828 248.477 31.7943 249.042 31.6172 249.562C31.4401 250.083 31.1823 250.539 30.8438 250.93C30.5104 251.315 30.1068 251.617 29.6328 251.836C29.1641 252.049 28.6328 252.156 28.0391 252.156C27.4453 252.156 26.9115 252.049 26.4375 251.836C25.9635 251.617 25.5573 251.315 25.2188 250.93C24.8854 250.539 24.6302 250.083 24.4531 249.562C24.276 249.042 24.1875 248.477 24.1875 247.867ZM25.6328 247.688V247.867C25.6328 248.289 25.6823 248.688 25.7812 249.062C25.8802 249.432 26.0286 249.76 26.2266 250.047C26.4297 250.333 26.6823 250.56 26.9844 250.727C27.2865 250.888 27.638 250.969 28.0391 250.969C28.4349 250.969 28.7812 250.888 29.0781 250.727C29.3802 250.56 29.6302 250.333 29.8281 250.047C30.026 249.76 30.1745 249.432 30.2734 249.062C30.3776 248.688 30.4297 248.289 30.4297 247.867V247.688C30.4297 247.271 30.3776 246.878 30.2734 246.508C30.1745 246.133 30.0234 245.802 29.8203 245.516C29.6224 245.224 29.3724 244.995 29.0703 244.828C28.7734 244.661 28.4245 244.578 28.0234 244.578C27.6276 244.578 27.2786 244.661 26.9766 244.828C26.6797 244.995 26.4297 245.224 26.2266 245.516C26.0286 245.802 25.8802 246.133 25.7812 246.508C25.6823 246.878 25.6328 247.271 25.6328 247.688ZM37.0781 250.969C37.4219 250.969 37.7396 250.898 38.0312 250.758C38.3229 250.617 38.5625 250.424 38.75 250.18C38.9375 249.93 39.0443 249.646 39.0703 249.328H40.4453C40.4193 249.828 40.25 250.294 39.9375 250.727C39.6302 251.154 39.2266 251.5 38.7266 251.766C38.2266 252.026 37.6771 252.156 37.0781 252.156C36.4427 252.156 35.888 252.044 35.4141 251.82C34.9453 251.596 34.5547 251.289 34.2422 250.898C33.9349 250.508 33.7031 250.06 33.5469 249.555C33.3958 249.044 33.3203 248.505 33.3203 247.938V247.609C33.3203 247.042 33.3958 246.505 33.5469 246C33.7031 245.49 33.9349 245.039 34.2422 244.648C34.5547 244.258 34.9453 243.951 35.4141 243.727C35.888 243.503 36.4427 243.391 37.0781 243.391C37.7396 243.391 38.3177 243.526 38.8125 243.797C39.3073 244.062 39.6953 244.427 39.9766 244.891C40.263 245.349 40.4193 245.87 40.4453 246.453H39.0703C39.0443 246.104 38.9453 245.789 38.7734 245.508C38.6068 245.227 38.3776 245.003 38.0859 244.836C37.7995 244.664 37.4635 244.578 37.0781 244.578C36.6354 244.578 36.263 244.667 35.9609 244.844C35.6641 245.016 35.4271 245.25 35.25 245.547C35.0781 245.839 34.9531 246.164 34.875 246.523C34.8021 246.878 34.7656 247.24 34.7656 247.609V247.938C34.7656 248.307 34.8021 248.672 34.875 249.031C34.9479 249.391 35.0703 249.716 35.2422 250.008C35.4193 250.299 35.6562 250.534 35.9531 250.711C36.2552 250.883 36.6302 250.969 37.0781 250.969ZM45.6094 243.547V244.656H41.0391V243.547H45.6094ZM42.5859 241.492H44.0312V249.906C44.0312 250.193 44.0755 250.409 44.1641 250.555C44.2526 250.701 44.3672 250.797 44.5078 250.844C44.6484 250.891 44.7995 250.914 44.9609 250.914C45.0807 250.914 45.2057 250.904 45.3359 250.883C45.4714 250.857 45.5729 250.836 45.6406 250.82L45.6484 252C45.5339 252.036 45.3828 252.07 45.1953 252.102C45.013 252.138 44.7917 252.156 44.5312 252.156C44.1771 252.156 43.8516 252.086 43.5547 251.945C43.2578 251.805 43.0208 251.57 42.8438 251.242C42.6719 250.909 42.5859 250.461 42.5859 249.898V241.492ZM52.2891 250.555V246.203C52.2891 245.87 52.2214 245.581 52.0859 245.336C51.9557 245.086 51.7578 244.893 51.4922 244.758C51.2266 244.622 50.8984 244.555 50.5078 244.555C50.1432 244.555 49.8229 244.617 49.5469 244.742C49.276 244.867 49.0625 245.031 48.9062 245.234C48.7552 245.438 48.6797 245.656 48.6797 245.891H47.2344C47.2344 245.589 47.3125 245.289 47.4688 244.992C47.625 244.695 47.849 244.427 48.1406 244.188C48.4375 243.943 48.7917 243.75 49.2031 243.609C49.6198 243.464 50.0833 243.391 50.5938 243.391C51.2083 243.391 51.75 243.495 52.2188 243.703C52.6927 243.911 53.0625 244.227 53.3281 244.648C53.599 245.065 53.7344 245.589 53.7344 246.219V250.156C53.7344 250.438 53.7578 250.737 53.8047 251.055C53.8568 251.372 53.9323 251.646 54.0312 251.875V252H52.5234C52.4505 251.833 52.3932 251.612 52.3516 251.336C52.3099 251.055 52.2891 250.794 52.2891 250.555ZM52.5391 246.875L52.5547 247.891H51.0938C50.6823 247.891 50.3151 247.924 49.9922 247.992C49.6693 248.055 49.3984 248.151 49.1797 248.281C48.9609 248.411 48.7943 248.576 48.6797 248.773C48.5651 248.966 48.5078 249.193 48.5078 249.453C48.5078 249.719 48.5677 249.961 48.6875 250.18C48.8073 250.398 48.987 250.573 49.2266 250.703C49.4714 250.828 49.7708 250.891 50.125 250.891C50.5677 250.891 50.9583 250.797 51.2969 250.609C51.6354 250.422 51.9036 250.193 52.1016 249.922C52.3047 249.651 52.4141 249.388 52.4297 249.133L53.0469 249.828C53.0104 250.047 52.9115 250.289 52.75 250.555C52.5885 250.82 52.3724 251.076 52.1016 251.32C51.8359 251.56 51.5182 251.76 51.1484 251.922C50.7839 252.078 50.3724 252.156 49.9141 252.156C49.3411 252.156 48.8385 252.044 48.4062 251.82C47.9792 251.596 47.6458 251.297 47.4062 250.922C47.1719 250.542 47.0547 250.117 47.0547 249.648C47.0547 249.195 47.1432 248.797 47.3203 248.453C47.4974 248.104 47.7526 247.815 48.0859 247.586C48.4193 247.352 48.8203 247.174 49.2891 247.055C49.7578 246.935 50.2812 246.875 50.8594 246.875H52.5391ZM57.5781 243.547V252H56.125V243.547H57.5781ZM56.0156 241.305C56.0156 241.07 56.0859 240.872 56.2266 240.711C56.3724 240.549 56.5859 240.469 56.8672 240.469C57.1432 240.469 57.3542 240.549 57.5 240.711C57.651 240.872 57.7266 241.07 57.7266 241.305C57.7266 241.529 57.651 241.721 57.5 241.883C57.3542 242.039 57.1432 242.117 56.8672 242.117C56.5859 242.117 56.3724 242.039 56.2266 241.883C56.0859 241.721 56.0156 241.529 56.0156 241.305ZM61.4688 240V252H60.0156V240H61.4688ZM72.1719 247.539H69.1328V246.312H72.1719C72.7604 246.312 73.237 246.219 73.6016 246.031C73.9661 245.844 74.2318 245.583 74.3984 245.25C74.5703 244.917 74.6562 244.536 74.6562 244.109C74.6562 243.719 74.5703 243.352 74.3984 243.008C74.2318 242.664 73.9661 242.388 73.6016 242.18C73.237 241.966 72.7604 241.859 72.1719 241.859H69.4844V252H67.9766V240.625H72.1719C73.0312 240.625 73.7578 240.773 74.3516 241.07C74.9453 241.367 75.3958 241.779 75.7031 242.305C76.0104 242.826 76.1641 243.422 76.1641 244.094C76.1641 244.823 76.0104 245.445 75.7031 245.961C75.3958 246.477 74.9453 246.87 74.3516 247.141C73.7578 247.406 73.0312 247.539 72.1719 247.539ZM82.7422 250.555V246.203C82.7422 245.87 82.6745 245.581 82.5391 245.336C82.4089 245.086 82.2109 244.893 81.9453 244.758C81.6797 244.622 81.3516 244.555 80.9609 244.555C80.5964 244.555 80.276 244.617 80 244.742C79.7292 244.867 79.5156 245.031 79.3594 245.234C79.2083 245.438 79.1328 245.656 79.1328 245.891H77.6875C77.6875 245.589 77.7656 245.289 77.9219 244.992C78.0781 244.695 78.3021 244.427 78.5938 244.188C78.8906 243.943 79.2448 243.75 79.6562 243.609C80.0729 243.464 80.5365 243.391 81.0469 243.391C81.6615 243.391 82.2031 243.495 82.6719 243.703C83.1458 243.911 83.5156 244.227 83.7812 244.648C84.0521 245.065 84.1875 245.589 84.1875 246.219V250.156C84.1875 250.438 84.2109 250.737 84.2578 251.055C84.3099 251.372 84.3854 251.646 84.4844 251.875V252H82.9766C82.9036 251.833 82.8464 251.612 82.8047 251.336C82.763 251.055 82.7422 250.794 82.7422 250.555ZM82.9922 246.875L83.0078 247.891H81.5469C81.1354 247.891 80.7682 247.924 80.4453 247.992C80.1224 248.055 79.8516 248.151 79.6328 248.281C79.4141 248.411 79.2474 248.576 79.1328 248.773C79.0182 248.966 78.9609 249.193 78.9609 249.453C78.9609 249.719 79.0208 249.961 79.1406 250.18C79.2604 250.398 79.4401 250.573 79.6797 250.703C79.9245 250.828 80.224 250.891 80.5781 250.891C81.0208 250.891 81.4115 250.797 81.75 250.609C82.0885 250.422 82.3568 250.193 82.5547 249.922C82.7578 249.651 82.8672 249.388 82.8828 249.133L83.5 249.828C83.4635 250.047 83.3646 250.289 83.2031 250.555C83.0417 250.82 82.8255 251.076 82.5547 251.32C82.2891 251.56 81.9714 251.76 81.6016 251.922C81.237 252.078 80.8255 252.156 80.3672 252.156C79.7943 252.156 79.2917 252.044 78.8594 251.82C78.4323 251.596 78.099 251.297 77.8594 250.922C77.625 250.542 77.5078 250.117 77.5078 249.648C77.5078 249.195 77.5964 248.797 77.7734 248.453C77.9505 248.104 78.2057 247.815 78.5391 247.586C78.8724 247.352 79.2734 247.174 79.7422 247.055C80.2109 246.935 80.7344 246.875 81.3125 246.875H82.9922ZM87.9062 244.875V252H86.4609V243.547H87.8672L87.9062 244.875ZM90.5469 243.5L90.5391 244.844C90.4193 244.818 90.3047 244.802 90.1953 244.797C90.0911 244.786 89.9714 244.781 89.8359 244.781C89.5026 244.781 89.2083 244.833 88.9531 244.938C88.6979 245.042 88.4818 245.188 88.3047 245.375C88.1276 245.562 87.987 245.786 87.8828 246.047C87.7839 246.302 87.7188 246.583 87.6875 246.891L87.2812 247.125C87.2812 246.615 87.3307 246.135 87.4297 245.688C87.5339 245.24 87.6927 244.844 87.9062 244.5C88.1198 244.151 88.3906 243.88 88.7188 243.688C89.0521 243.49 89.4479 243.391 89.9062 243.391C90.0104 243.391 90.1302 243.404 90.2656 243.43C90.401 243.451 90.4948 243.474 90.5469 243.5ZM95.8125 243.547V244.656H91.2422V243.547H95.8125ZM92.7891 241.492H94.2344V249.906C94.2344 250.193 94.2786 250.409 94.3672 250.555C94.4557 250.701 94.5703 250.797 94.7109 250.844C94.8516 250.891 95.0026 250.914 95.1641 250.914C95.2839 250.914 95.4089 250.904 95.5391 250.883C95.6745 250.857 95.776 250.836 95.8438 250.82L95.8516 252C95.737 252.036 95.5859 252.07 95.3984 252.102C95.2161 252.138 94.9948 252.156 94.7344 252.156C94.3802 252.156 94.0547 252.086 93.7578 251.945C93.4609 251.805 93.224 251.57 93.0469 251.242C92.875 250.909 92.7891 250.461 92.7891 249.898V241.492ZM99.8828 251.125L102.234 243.547H103.781L100.391 253.305C100.312 253.513 100.208 253.737 100.078 253.977C99.9531 254.221 99.7917 254.453 99.5938 254.672C99.3958 254.891 99.1562 255.068 98.875 255.203C98.599 255.344 98.2682 255.414 97.8828 255.414C97.7682 255.414 97.6224 255.398 97.4453 255.367C97.2682 255.336 97.1432 255.31 97.0703 255.289L97.0625 254.117C97.1042 254.122 97.1693 254.128 97.2578 254.133C97.3516 254.143 97.4167 254.148 97.4531 254.148C97.7812 254.148 98.0599 254.104 98.2891 254.016C98.5182 253.932 98.7109 253.789 98.8672 253.586C99.0286 253.388 99.1667 253.115 99.2812 252.766L99.8828 251.125ZM98.1562 243.547L100.352 250.109L100.727 251.633L99.6875 252.164L96.5781 243.547H98.1562ZM116.703 245.516V246.742H110.547V245.516H116.703ZM110.781 240.625V252H109.273V240.625H110.781ZM118.016 240.625V252H116.516V240.625H118.016ZM120.094 247.867V247.688C120.094 247.078 120.182 246.513 120.359 245.992C120.536 245.466 120.792 245.01 121.125 244.625C121.458 244.234 121.862 243.932 122.336 243.719C122.81 243.5 123.341 243.391 123.93 243.391C124.523 243.391 125.057 243.5 125.531 243.719C126.01 243.932 126.417 244.234 126.75 244.625C127.089 245.01 127.346 245.466 127.523 245.992C127.701 246.513 127.789 247.078 127.789 247.688V247.867C127.789 248.477 127.701 249.042 127.523 249.562C127.346 250.083 127.089 250.539 126.75 250.93C126.417 251.315 126.013 251.617 125.539 251.836C125.07 252.049 124.539 252.156 123.945 252.156C123.352 252.156 122.818 252.049 122.344 251.836C121.87 251.617 121.464 251.315 121.125 250.93C120.792 250.539 120.536 250.083 120.359 249.562C120.182 249.042 120.094 248.477 120.094 247.867ZM121.539 247.688V247.867C121.539 248.289 121.589 248.688 121.688 249.062C121.786 249.432 121.935 249.76 122.133 250.047C122.336 250.333 122.589 250.56 122.891 250.727C123.193 250.888 123.544 250.969 123.945 250.969C124.341 250.969 124.688 250.888 124.984 250.727C125.286 250.56 125.536 250.333 125.734 250.047C125.932 249.76 126.081 249.432 126.18 249.062C126.284 248.688 126.336 248.289 126.336 247.867V247.688C126.336 247.271 126.284 246.878 126.18 246.508C126.081 246.133 125.93 245.802 125.727 245.516C125.529 245.224 125.279 244.995 124.977 244.828C124.68 244.661 124.331 244.578 123.93 244.578C123.534 244.578 123.185 244.661 122.883 244.828C122.586 244.995 122.336 245.224 122.133 245.516C121.935 245.802 121.786 246.133 121.688 246.508C121.589 246.878 121.539 247.271 121.539 247.688ZM134.773 250.047V243.547H136.227V252H134.844L134.773 250.047ZM135.047 248.266L135.648 248.25C135.648 248.812 135.589 249.333 135.469 249.812C135.354 250.286 135.167 250.698 134.906 251.047C134.646 251.396 134.305 251.669 133.883 251.867C133.461 252.06 132.948 252.156 132.344 252.156C131.932 252.156 131.555 252.096 131.211 251.977C130.872 251.857 130.581 251.672 130.336 251.422C130.091 251.172 129.901 250.846 129.766 250.445C129.635 250.044 129.57 249.562 129.57 249V243.547H131.016V249.016C131.016 249.396 131.057 249.711 131.141 249.961C131.229 250.206 131.346 250.401 131.492 250.547C131.643 250.688 131.81 250.786 131.992 250.844C132.18 250.901 132.372 250.93 132.57 250.93C133.185 250.93 133.672 250.812 134.031 250.578C134.391 250.339 134.648 250.018 134.805 249.617C134.966 249.211 135.047 248.76 135.047 248.266ZM143.352 249.758C143.352 249.549 143.305 249.357 143.211 249.18C143.122 248.997 142.938 248.833 142.656 248.688C142.38 248.536 141.964 248.406 141.406 248.297C140.938 248.198 140.513 248.081 140.133 247.945C139.758 247.81 139.438 247.646 139.172 247.453C138.911 247.26 138.711 247.034 138.57 246.773C138.43 246.513 138.359 246.208 138.359 245.859C138.359 245.526 138.432 245.211 138.578 244.914C138.729 244.617 138.94 244.354 139.211 244.125C139.487 243.896 139.818 243.716 140.203 243.586C140.589 243.456 141.018 243.391 141.492 243.391C142.169 243.391 142.747 243.51 143.227 243.75C143.706 243.99 144.073 244.31 144.328 244.711C144.583 245.107 144.711 245.547 144.711 246.031H143.266C143.266 245.797 143.195 245.57 143.055 245.352C142.919 245.128 142.719 244.943 142.453 244.797C142.193 244.651 141.872 244.578 141.492 244.578C141.091 244.578 140.766 244.641 140.516 244.766C140.271 244.885 140.091 245.039 139.977 245.227C139.867 245.414 139.812 245.612 139.812 245.82C139.812 245.977 139.839 246.117 139.891 246.242C139.948 246.362 140.047 246.474 140.188 246.578C140.328 246.677 140.526 246.771 140.781 246.859C141.036 246.948 141.362 247.036 141.758 247.125C142.451 247.281 143.021 247.469 143.469 247.688C143.917 247.906 144.25 248.174 144.469 248.492C144.688 248.81 144.797 249.195 144.797 249.648C144.797 250.018 144.719 250.357 144.562 250.664C144.411 250.971 144.19 251.237 143.898 251.461C143.612 251.68 143.268 251.852 142.867 251.977C142.471 252.096 142.026 252.156 141.531 252.156C140.786 252.156 140.156 252.023 139.641 251.758C139.125 251.492 138.734 251.148 138.469 250.727C138.203 250.305 138.07 249.859 138.07 249.391H139.523C139.544 249.786 139.659 250.102 139.867 250.336C140.076 250.565 140.331 250.729 140.633 250.828C140.935 250.922 141.234 250.969 141.531 250.969C141.927 250.969 142.258 250.917 142.523 250.812C142.794 250.708 143 250.565 143.141 250.383C143.281 250.201 143.352 249.992 143.352 249.758ZM150.203 252.156C149.615 252.156 149.081 252.057 148.602 251.859C148.128 251.656 147.719 251.372 147.375 251.008C147.036 250.643 146.776 250.211 146.594 249.711C146.411 249.211 146.32 248.664 146.32 248.07V247.742C146.32 247.055 146.422 246.443 146.625 245.906C146.828 245.365 147.104 244.906 147.453 244.531C147.802 244.156 148.198 243.872 148.641 243.68C149.083 243.487 149.542 243.391 150.016 243.391C150.62 243.391 151.141 243.495 151.578 243.703C152.021 243.911 152.383 244.203 152.664 244.578C152.945 244.948 153.154 245.385 153.289 245.891C153.424 246.391 153.492 246.938 153.492 247.531V248.18H147.18V247H152.047V246.891C152.026 246.516 151.948 246.151 151.812 245.797C151.682 245.443 151.474 245.151 151.188 244.922C150.901 244.693 150.51 244.578 150.016 244.578C149.688 244.578 149.385 244.648 149.109 244.789C148.833 244.924 148.596 245.128 148.398 245.398C148.201 245.669 148.047 246 147.938 246.391C147.828 246.781 147.773 247.232 147.773 247.742V248.07C147.773 248.471 147.828 248.849 147.938 249.203C148.052 249.552 148.216 249.859 148.43 250.125C148.648 250.391 148.911 250.599 149.219 250.75C149.531 250.901 149.885 250.977 150.281 250.977C150.792 250.977 151.224 250.872 151.578 250.664C151.932 250.456 152.242 250.177 152.508 249.828L153.383 250.523C153.201 250.799 152.969 251.062 152.688 251.312C152.406 251.562 152.06 251.766 151.648 251.922C151.242 252.078 150.76 252.156 150.203 252.156Z" fill="#777777"/>
</svg>
