<svg width="137" height="160" viewBox="0 0 137 160" fill="none" xmlns="http://www.w3.org/2000/svg">
<path d="M8.40625 5.89844V7.25781H0.609375V5.89844H8.40625ZM5.23438 2.57812V10.8594H3.78906V2.57812H5.23438ZM22.7734 6.33594V10.5C22.6328 10.7083 22.4089 10.9427 22.1016 11.2031C21.7943 11.4583 21.3698 11.6823 20.8281 11.875C20.2917 12.0625 19.599 12.1562 18.75 12.1562C18.0573 12.1562 17.4193 12.0365 16.8359 11.7969C16.2578 11.5521 15.7552 11.1979 15.3281 10.7344C14.9062 10.2656 14.5781 9.69792 14.3438 9.03125C14.1146 8.35938 14 7.59896 14 6.75V5.86719C14 5.01823 14.099 4.26042 14.2969 3.59375C14.5 2.92708 14.7969 2.36198 15.1875 1.89844C15.5781 1.42969 16.0573 1.07552 16.625 0.835938C17.1927 0.591146 17.8438 0.46875 18.5781 0.46875C19.4479 0.46875 20.1745 0.619792 20.7578 0.921875C21.3464 1.21875 21.8047 1.63021 22.1328 2.15625C22.4661 2.68229 22.6797 3.28125 22.7734 3.95312H21.2656C21.1979 3.54167 21.0625 3.16667 20.8594 2.82812C20.6615 2.48958 20.3776 2.21875 20.0078 2.01562C19.638 1.80729 19.1615 1.70312 18.5781 1.70312C18.0521 1.70312 17.5964 1.79948 17.2109 1.99219C16.8255 2.1849 16.5078 2.46094 16.2578 2.82031C16.0078 3.17969 15.8203 3.61458 15.6953 4.125C15.5755 4.63542 15.5156 5.21094 15.5156 5.85156V6.75C15.5156 7.40625 15.5911 7.99219 15.7422 8.50781C15.8984 9.02344 16.1198 9.46354 16.4062 9.82812C16.6927 10.1875 17.0339 10.4609 17.4297 10.6484C17.8307 10.8359 18.2734 10.9297 18.7578 10.9297C19.2943 10.9297 19.7292 10.8854 20.0625 10.7969C20.3958 10.7031 20.6562 10.5938 20.8438 10.4688C21.0312 10.3385 21.1745 10.2161 21.2734 10.1016V7.55469H18.6406V6.33594H22.7734ZM30.0391 10.5547V6.20312C30.0391 5.86979 29.9714 5.58073 29.8359 5.33594C29.7057 5.08594 29.5078 4.89323 29.2422 4.75781C28.9766 4.6224 28.6484 4.55469 28.2578 4.55469C27.8932 4.55469 27.5729 4.61719 27.2969 4.74219C27.026 4.86719 26.8125 5.03125 26.6562 5.23438C26.5052 5.4375 26.4297 5.65625 26.4297 5.89062H24.9844C24.9844 5.58854 25.0625 5.28906 25.2188 4.99219C25.375 4.69531 25.599 4.42708 25.8906 4.1875C26.1875 3.94271 26.5417 3.75 26.9531 3.60938C27.3698 3.46354 27.8333 3.39062 28.3438 3.39062C28.9583 3.39062 29.5 3.49479 29.9688 3.70312C30.4427 3.91146 30.8125 4.22656 31.0781 4.64844C31.349 5.0651 31.4844 5.58854 31.4844 6.21875V10.1562C31.4844 10.4375 31.5078 10.737 31.5547 11.0547C31.6068 11.3724 31.6823 11.6458 31.7812 11.875V12H30.2734C30.2005 11.8333 30.1432 11.612 30.1016 11.3359C30.0599 11.0547 30.0391 10.7943 30.0391 10.5547ZM30.2891 6.875L30.3047 7.89062H28.8438C28.4323 7.89062 28.0651 7.92448 27.7422 7.99219C27.4193 8.05469 27.1484 8.15104 26.9297 8.28125C26.7109 8.41146 26.5443 8.57552 26.4297 8.77344C26.3151 8.96615 26.2578 9.19271 26.2578 9.45312C26.2578 9.71875 26.3177 9.96094 26.4375 10.1797C26.5573 10.3984 26.737 10.5729 26.9766 10.7031C27.2214 10.8281 27.5208 10.8906 27.875 10.8906C28.3177 10.8906 28.7083 10.7969 29.0469 10.6094C29.3854 10.4219 29.6536 10.1927 29.8516 9.92188C30.0547 9.65104 30.1641 9.38802 30.1797 9.13281L30.7969 9.82812C30.7604 10.0469 30.6615 10.2891 30.5 10.5547C30.3385 10.8203 30.1224 11.0755 29.8516 11.3203C29.5859 11.5599 29.2682 11.7604 28.8984 11.9219C28.5339 12.0781 28.1224 12.1562 27.6641 12.1562C27.0911 12.1562 26.5885 12.0443 26.1562 11.8203C25.7292 11.5964 25.3958 11.2969 25.1562 10.9219C24.9219 10.5417 24.8047 10.1172 24.8047 9.64844C24.8047 9.19531 24.8932 8.79688 25.0703 8.45312C25.2474 8.10417 25.5026 7.8151 25.8359 7.58594C26.1693 7.35156 26.5703 7.17448 27.0391 7.05469C27.5078 6.9349 28.0312 6.875 28.6094 6.875H30.2891ZM35.1953 5.22656V12H33.7422V3.54688H35.1172L35.1953 5.22656ZM34.8984 7.45312L34.2266 7.42969C34.2318 6.85156 34.3073 6.31771 34.4531 5.82812C34.599 5.33333 34.8151 4.90365 35.1016 4.53906C35.388 4.17448 35.7448 3.89323 36.1719 3.69531C36.599 3.49219 37.0938 3.39062 37.6562 3.39062C38.0521 3.39062 38.4167 3.44792 38.75 3.5625C39.0833 3.67188 39.3724 3.84635 39.6172 4.08594C39.862 4.32552 40.0521 4.63281 40.1875 5.00781C40.3229 5.38281 40.3906 5.83594 40.3906 6.36719V12H38.9453V6.4375C38.9453 5.99479 38.8698 5.64062 38.7188 5.375C38.5729 5.10938 38.3646 4.91667 38.0938 4.79688C37.8229 4.67188 37.5052 4.60938 37.1406 4.60938C36.7135 4.60938 36.3568 4.6849 36.0703 4.83594C35.7839 4.98698 35.5547 5.19531 35.3828 5.46094C35.2109 5.72656 35.0859 6.03125 35.0078 6.375C34.9349 6.71354 34.8984 7.07292 34.8984 7.45312ZM40.375 6.65625L39.4062 6.95312C39.4115 6.48958 39.487 6.04427 39.6328 5.61719C39.7839 5.1901 40 4.8099 40.2812 4.47656C40.5677 4.14323 40.9193 3.88021 41.3359 3.6875C41.7526 3.48958 42.2292 3.39062 42.7656 3.39062C43.2188 3.39062 43.6198 3.45052 43.9688 3.57031C44.3229 3.6901 44.6198 3.875 44.8594 4.125C45.1042 4.36979 45.2891 4.6849 45.4141 5.07031C45.5391 5.45573 45.6016 5.91406 45.6016 6.44531V12H44.1484V6.42969C44.1484 5.95573 44.0729 5.58854 43.9219 5.32812C43.776 5.0625 43.5677 4.8776 43.2969 4.77344C43.0312 4.66406 42.7135 4.60938 42.3438 4.60938C42.026 4.60938 41.7448 4.66406 41.5 4.77344C41.2552 4.88281 41.0495 5.03385 40.8828 5.22656C40.7161 5.41406 40.5885 5.63021 40.5 5.875C40.4167 6.11979 40.375 6.38021 40.375 6.65625ZM49.3594 3.54688V12H47.9062V3.54688H49.3594ZM47.7969 1.30469C47.7969 1.07031 47.8672 0.872396 48.0078 0.710938C48.1536 0.549479 48.3672 0.46875 48.6484 0.46875C48.9245 0.46875 49.1354 0.549479 49.2812 0.710938C49.4323 0.872396 49.5078 1.07031 49.5078 1.30469C49.5078 1.52865 49.4323 1.72135 49.2812 1.88281C49.1354 2.03906 48.9245 2.11719 48.6484 2.11719C48.3672 2.11719 48.1536 2.03906 48.0078 1.88281C47.8672 1.72135 47.7969 1.52865 47.7969 1.30469ZM53.125 5.35156V12H51.6797V3.54688H53.0469L53.125 5.35156ZM52.7812 7.45312L52.1797 7.42969C52.1849 6.85156 52.2708 6.31771 52.4375 5.82812C52.6042 5.33333 52.8385 4.90365 53.1406 4.53906C53.4427 4.17448 53.8021 3.89323 54.2188 3.69531C54.6406 3.49219 55.1068 3.39062 55.6172 3.39062C56.0339 3.39062 56.4089 3.44792 56.7422 3.5625C57.0755 3.67188 57.3594 3.84896 57.5938 4.09375C57.8333 4.33854 58.0156 4.65625 58.1406 5.04688C58.2656 5.43229 58.3281 5.90365 58.3281 6.46094V12H56.875V6.44531C56.875 6.0026 56.8099 5.64844 56.6797 5.38281C56.5495 5.11198 56.3594 4.91667 56.1094 4.79688C55.8594 4.67188 55.5521 4.60938 55.1875 4.60938C54.8281 4.60938 54.5 4.6849 54.2031 4.83594C53.9115 4.98698 53.6589 5.19531 53.4453 5.46094C53.237 5.72656 53.0729 6.03125 52.9531 6.375C52.8385 6.71354 52.7812 7.07292 52.7812 7.45312ZM66 3.54688H67.3125V11.8203C67.3125 12.5651 67.1615 13.2005 66.8594 13.7266C66.5573 14.2526 66.1354 14.651 65.5938 14.9219C65.0573 15.1979 64.4375 15.3359 63.7344 15.3359C63.4427 15.3359 63.099 15.2891 62.7031 15.1953C62.3125 15.1068 61.9271 14.9531 61.5469 14.7344C61.1719 14.5208 60.8568 14.2318 60.6016 13.8672L61.3594 13.0078C61.7135 13.4349 62.0833 13.7318 62.4688 13.8984C62.8594 14.0651 63.2448 14.1484 63.625 14.1484C64.0833 14.1484 64.4792 14.0625 64.8125 13.8906C65.1458 13.7188 65.4036 13.4635 65.5859 13.125C65.7734 12.7917 65.8672 12.3802 65.8672 11.8906V5.40625L66 3.54688ZM60.1797 7.86719V7.70312C60.1797 7.05729 60.2552 6.47135 60.4062 5.94531C60.5625 5.41406 60.7839 4.95833 61.0703 4.57812C61.362 4.19792 61.7135 3.90625 62.125 3.70312C62.5365 3.49479 63 3.39062 63.5156 3.39062C64.0469 3.39062 64.5104 3.48438 64.9062 3.67188C65.3073 3.85417 65.6458 4.1224 65.9219 4.47656C66.2031 4.82552 66.4245 5.2474 66.5859 5.74219C66.7474 6.23698 66.8594 6.79688 66.9219 7.42188V8.14062C66.8646 8.76042 66.7526 9.31771 66.5859 9.8125C66.4245 10.3073 66.2031 10.7292 65.9219 11.0781C65.6458 11.4271 65.3073 11.6953 64.9062 11.8828C64.5052 12.0651 64.0365 12.1562 63.5 12.1562C62.9948 12.1562 62.5365 12.0495 62.125 11.8359C61.7188 11.6224 61.3698 11.3229 61.0781 10.9375C60.7865 10.5521 60.5625 10.099 60.4062 9.57812C60.2552 9.05208 60.1797 8.48177 60.1797 7.86719ZM61.625 7.70312V7.86719C61.625 8.28906 61.6667 8.6849 61.75 9.05469C61.8385 9.42448 61.9714 9.75 62.1484 10.0312C62.3307 10.3125 62.5625 10.5339 62.8438 10.6953C63.125 10.8516 63.4609 10.9297 63.8516 10.9297C64.3307 10.9297 64.7266 10.8281 65.0391 10.625C65.3516 10.4219 65.599 10.1536 65.7812 9.82031C65.9688 9.48698 66.1146 9.125 66.2188 8.73438V6.85156C66.1615 6.5651 66.0729 6.28906 65.9531 6.02344C65.8385 5.7526 65.6875 5.51302 65.5 5.30469C65.3177 5.09115 65.0911 4.92188 64.8203 4.79688C64.5495 4.67188 64.2318 4.60938 63.8672 4.60938C63.4714 4.60938 63.1302 4.69271 62.8438 4.85938C62.5625 5.02083 62.3307 5.24479 62.1484 5.53125C61.9714 5.8125 61.8385 6.14062 61.75 6.51562C61.6667 6.88542 61.625 7.28125 61.625 7.70312ZM81.3281 10.7734V12H73.625V10.7734H81.3281ZM81.0781 1.71875L73.9844 12H73.0547V10.875L80.1406 0.625H81.0781V1.71875ZM80.4375 0.625V1.85938H73.1562V0.625H80.4375ZM82.5156 7.86719V7.6875C82.5156 7.07812 82.6042 6.51302 82.7812 5.99219C82.9583 5.46615 83.2135 5.01042 83.5469 4.625C83.8802 4.23438 84.2839 3.93229 84.7578 3.71875C85.2318 3.5 85.763 3.39062 86.3516 3.39062C86.9453 3.39062 87.4792 3.5 87.9531 3.71875C88.4323 3.93229 88.8385 4.23438 89.1719 4.625C89.5104 5.01042 89.7682 5.46615 89.9453 5.99219C90.1224 6.51302 90.2109 7.07812 90.2109 7.6875V7.86719C90.2109 8.47656 90.1224 9.04167 89.9453 9.5625C89.7682 10.0833 89.5104 10.5391 89.1719 10.9297C88.8385 11.3151 88.4349 11.6172 87.9609 11.8359C87.4922 12.0495 86.9609 12.1562 86.3672 12.1562C85.7734 12.1562 85.2396 12.0495 84.7656 11.8359C84.2917 11.6172 83.8854 11.3151 83.5469 10.9297C83.2135 10.5391 82.9583 10.0833 82.7812 9.5625C82.6042 9.04167 82.5156 8.47656 82.5156 7.86719ZM83.9609 7.6875V7.86719C83.9609 8.28906 84.0104 8.6875 84.1094 9.0625C84.2083 9.43229 84.3568 9.76042 84.5547 10.0469C84.7578 10.3333 85.0104 10.5599 85.3125 10.7266C85.6146 10.888 85.9661 10.9688 86.3672 10.9688C86.763 10.9688 87.1094 10.888 87.4062 10.7266C87.7083 10.5599 87.9583 10.3333 88.1562 10.0469C88.3542 9.76042 88.5026 9.43229 88.6016 9.0625C88.7057 8.6875 88.7578 8.28906 88.7578 7.86719V7.6875C88.7578 7.27083 88.7057 6.8776 88.6016 6.50781C88.5026 6.13281 88.3516 5.80208 88.1484 5.51562C87.9505 5.22396 87.7005 4.99479 87.3984 4.82812C87.1016 4.66146 86.7526 4.57812 86.3516 4.57812C85.9557 4.57812 85.6068 4.66146 85.3047 4.82812C85.0078 4.99479 84.7578 5.22396 84.5547 5.51562C84.3568 5.80208 84.2083 6.13281 84.1094 6.50781C84.0104 6.8776 83.9609 7.27083 83.9609 7.6875ZM93.4688 5.35156V12H92.0234V3.54688H93.3906L93.4688 5.35156ZM93.125 7.45312L92.5234 7.42969C92.5286 6.85156 92.6146 6.31771 92.7812 5.82812C92.9479 5.33333 93.1823 4.90365 93.4844 4.53906C93.7865 4.17448 94.1458 3.89323 94.5625 3.69531C94.9844 3.49219 95.4505 3.39062 95.9609 3.39062C96.3776 3.39062 96.7526 3.44792 97.0859 3.5625C97.4193 3.67188 97.7031 3.84896 97.9375 4.09375C98.1771 4.33854 98.3594 4.65625 98.4844 5.04688C98.6094 5.43229 98.6719 5.90365 98.6719 6.46094V12H97.2188V6.44531C97.2188 6.0026 97.1536 5.64844 97.0234 5.38281C96.8932 5.11198 96.7031 4.91667 96.4531 4.79688C96.2031 4.67188 95.8958 4.60938 95.5312 4.60938C95.1719 4.60938 94.8438 4.6849 94.5469 4.83594C94.2552 4.98698 94.0026 5.19531 93.7891 5.46094C93.5807 5.72656 93.4167 6.03125 93.2969 6.375C93.1823 6.71354 93.125 7.07292 93.125 7.45312ZM104.375 12.1562C103.786 12.1562 103.253 12.0573 102.773 11.8594C102.299 11.6562 101.891 11.3724 101.547 11.0078C101.208 10.6432 100.948 10.2109 100.766 9.71094C100.583 9.21094 100.492 8.66406 100.492 8.07031V7.74219C100.492 7.05469 100.594 6.44271 100.797 5.90625C101 5.36458 101.276 4.90625 101.625 4.53125C101.974 4.15625 102.37 3.8724 102.812 3.67969C103.255 3.48698 103.714 3.39062 104.188 3.39062C104.792 3.39062 105.312 3.49479 105.75 3.70312C106.193 3.91146 106.555 4.20312 106.836 4.57812C107.117 4.94792 107.326 5.38542 107.461 5.89062C107.596 6.39062 107.664 6.9375 107.664 7.53125V8.17969H101.352V7H106.219V6.89062C106.198 6.51562 106.12 6.15104 105.984 5.79688C105.854 5.44271 105.646 5.15104 105.359 4.92188C105.073 4.69271 104.682 4.57812 104.188 4.57812C103.859 4.57812 103.557 4.64844 103.281 4.78906C103.005 4.92448 102.768 5.1276 102.57 5.39844C102.372 5.66927 102.219 6 102.109 6.39062C102 6.78125 101.945 7.23177 101.945 7.74219V8.07031C101.945 8.47135 102 8.84896 102.109 9.20312C102.224 9.55208 102.388 9.85938 102.602 10.125C102.82 10.3906 103.083 10.599 103.391 10.75C103.703 10.901 104.057 10.9766 104.453 10.9766C104.964 10.9766 105.396 10.8724 105.75 10.6641C106.104 10.4557 106.414 10.1771 106.68 9.82812L107.555 10.5234C107.372 10.7995 107.141 11.0625 106.859 11.3125C106.578 11.5625 106.232 11.7656 105.82 11.9219C105.414 12.0781 104.932 12.1562 104.375 12.1562ZM8.40625 53.8984V55.2578H0.609375V53.8984H8.40625ZM5.23438 50.5781V58.8594H3.78906V50.5781H5.23438ZM14.8438 48.625H16.3047L20.0312 57.8984L23.75 48.625H25.2188L20.5938 60H19.4531L14.8438 48.625ZM14.3672 48.625H15.6562L15.8672 55.5625V60H14.3672V48.625ZM24.3984 48.625H25.6875V60H24.1875V55.5625L24.3984 48.625ZM33.1016 58.5547V54.2031C33.1016 53.8698 33.0339 53.5807 32.8984 53.3359C32.7682 53.0859 32.5703 52.8932 32.3047 52.7578C32.0391 52.6224 31.7109 52.5547 31.3203 52.5547C30.9557 52.5547 30.6354 52.6172 30.3594 52.7422C30.0885 52.8672 29.875 53.0312 29.7188 53.2344C29.5677 53.4375 29.4922 53.6562 29.4922 53.8906H28.0469C28.0469 53.5885 28.125 53.2891 28.2812 52.9922C28.4375 52.6953 28.6615 52.4271 28.9531 52.1875C29.25 51.9427 29.6042 51.75 30.0156 51.6094C30.4323 51.4635 30.8958 51.3906 31.4062 51.3906C32.0208 51.3906 32.5625 51.4948 33.0312 51.7031C33.5052 51.9115 33.875 52.2266 34.1406 52.6484C34.4115 53.0651 34.5469 53.5885 34.5469 54.2188V58.1562C34.5469 58.4375 34.5703 58.737 34.6172 59.0547C34.6693 59.3724 34.7448 59.6458 34.8438 59.875V60H33.3359C33.263 59.8333 33.2057 59.612 33.1641 59.3359C33.1224 59.0547 33.1016 58.7943 33.1016 58.5547ZM33.3516 54.875L33.3672 55.8906H31.9062C31.4948 55.8906 31.1276 55.9245 30.8047 55.9922C30.4818 56.0547 30.2109 56.151 29.9922 56.2812C29.7734 56.4115 29.6068 56.5755 29.4922 56.7734C29.3776 56.9661 29.3203 57.1927 29.3203 57.4531C29.3203 57.7188 29.3802 57.9609 29.5 58.1797C29.6198 58.3984 29.7995 58.5729 30.0391 58.7031C30.2839 58.8281 30.5833 58.8906 30.9375 58.8906C31.3802 58.8906 31.7708 58.7969 32.1094 58.6094C32.4479 58.4219 32.7161 58.1927 32.9141 57.9219C33.1172 57.651 33.2266 57.388 33.2422 57.1328L33.8594 57.8281C33.8229 58.0469 33.724 58.2891 33.5625 58.5547C33.401 58.8203 33.1849 59.0755 32.9141 59.3203C32.6484 59.5599 32.3307 59.7604 31.9609 59.9219C31.5964 60.0781 31.1849 60.1562 30.7266 60.1562C30.1536 60.1562 29.651 60.0443 29.2188 59.8203C28.7917 59.5964 28.4583 59.2969 28.2188 58.9219C27.9844 58.5417 27.8672 58.1172 27.8672 57.6484C27.8672 57.1953 27.9557 56.7969 28.1328 56.4531C28.3099 56.1042 28.5651 55.8151 28.8984 55.5859C29.2318 55.3516 29.6328 55.1745 30.1016 55.0547C30.5703 54.9349 31.0938 54.875 31.6719 54.875H33.3516ZM38.2656 52.875V60H36.8203V51.5469H38.2266L38.2656 52.875ZM40.9062 51.5L40.8984 52.8438C40.7786 52.8177 40.6641 52.8021 40.5547 52.7969C40.4505 52.7865 40.3307 52.7812 40.1953 52.7812C39.862 52.7812 39.5677 52.8333 39.3125 52.9375C39.0573 53.0417 38.8411 53.1875 38.6641 53.375C38.487 53.5625 38.3464 53.7865 38.2422 54.0469C38.1432 54.3021 38.0781 54.5833 38.0469 54.8906L37.6406 55.125C37.6406 54.6146 37.6901 54.1354 37.7891 53.6875C37.8932 53.2396 38.0521 52.8438 38.2656 52.5C38.4792 52.151 38.75 51.8802 39.0781 51.6875C39.4115 51.4896 39.8073 51.3906 40.2656 51.3906C40.3698 51.3906 40.4896 51.4036 40.625 51.4297C40.7604 51.4505 40.8542 51.474 40.9062 51.5ZM43.6875 52.875V60H42.2422V51.5469H43.6484L43.6875 52.875ZM46.3281 51.5L46.3203 52.8438C46.2005 52.8177 46.0859 52.8021 45.9766 52.7969C45.8724 52.7865 45.7526 52.7812 45.6172 52.7812C45.2839 52.7812 44.9896 52.8333 44.7344 52.9375C44.4792 53.0417 44.263 53.1875 44.0859 53.375C43.9089 53.5625 43.7682 53.7865 43.6641 54.0469C43.5651 54.3021 43.5 54.5833 43.4688 54.8906L43.0625 55.125C43.0625 54.6146 43.112 54.1354 43.2109 53.6875C43.3151 53.2396 43.474 52.8438 43.6875 52.5C43.901 52.151 44.1719 51.8802 44.5 51.6875C44.8333 51.4896 45.2292 51.3906 45.6875 51.3906C45.7917 51.3906 45.9115 51.4036 46.0469 51.4297C46.1823 51.4505 46.276 51.474 46.3281 51.5ZM49.2344 51.5469V60H47.7812V51.5469H49.2344ZM47.6719 49.3047C47.6719 49.0703 47.7422 48.8724 47.8828 48.7109C48.0286 48.5495 48.2422 48.4688 48.5234 48.4688C48.7995 48.4688 49.0104 48.5495 49.1562 48.7109C49.3073 48.8724 49.3828 49.0703 49.3828 49.3047C49.3828 49.5286 49.3073 49.7214 49.1562 49.8828C49.0104 50.0391 48.7995 50.1172 48.5234 50.1172C48.2422 50.1172 48.0286 50.0391 47.8828 49.8828C47.7422 49.7214 47.6719 49.5286 47.6719 49.3047ZM57.0312 51.5469H58.3438V59.8203C58.3438 60.5651 58.1927 61.2005 57.8906 61.7266C57.5885 62.2526 57.1667 62.651 56.625 62.9219C56.0885 63.1979 55.4688 63.3359 54.7656 63.3359C54.474 63.3359 54.1302 63.2891 53.7344 63.1953C53.3438 63.1068 52.9583 62.9531 52.5781 62.7344C52.2031 62.5208 51.888 62.2318 51.6328 61.8672L52.3906 61.0078C52.7448 61.4349 53.1146 61.7318 53.5 61.8984C53.8906 62.0651 54.276 62.1484 54.6562 62.1484C55.1146 62.1484 55.5104 62.0625 55.8438 61.8906C56.1771 61.7188 56.4349 61.4635 56.6172 61.125C56.8047 60.7917 56.8984 60.3802 56.8984 59.8906V53.4062L57.0312 51.5469ZM51.2109 55.8672V55.7031C51.2109 55.0573 51.2865 54.4714 51.4375 53.9453C51.5938 53.4141 51.8151 52.9583 52.1016 52.5781C52.3932 52.1979 52.7448 51.9062 53.1562 51.7031C53.5677 51.4948 54.0312 51.3906 54.5469 51.3906C55.0781 51.3906 55.5417 51.4844 55.9375 51.6719C56.3385 51.8542 56.6771 52.1224 56.9531 52.4766C57.2344 52.8255 57.4557 53.2474 57.6172 53.7422C57.7786 54.237 57.8906 54.7969 57.9531 55.4219V56.1406C57.8958 56.7604 57.7839 57.3177 57.6172 57.8125C57.4557 58.3073 57.2344 58.7292 56.9531 59.0781C56.6771 59.4271 56.3385 59.6953 55.9375 59.8828C55.5365 60.0651 55.0677 60.1562 54.5312 60.1562C54.026 60.1562 53.5677 60.0495 53.1562 59.8359C52.75 59.6224 52.401 59.3229 52.1094 58.9375C51.8177 58.5521 51.5938 58.099 51.4375 57.5781C51.2865 57.0521 51.2109 56.4818 51.2109 55.8672ZM52.6562 55.7031V55.8672C52.6562 56.2891 52.6979 56.6849 52.7812 57.0547C52.8698 57.4245 53.0026 57.75 53.1797 58.0312C53.362 58.3125 53.5938 58.5339 53.875 58.6953C54.1562 58.8516 54.4922 58.9297 54.8828 58.9297C55.362 58.9297 55.7578 58.8281 56.0703 58.625C56.3828 58.4219 56.6302 58.1536 56.8125 57.8203C57 57.487 57.1458 57.125 57.25 56.7344V54.8516C57.1927 54.5651 57.1042 54.2891 56.9844 54.0234C56.8698 53.7526 56.7188 53.513 56.5312 53.3047C56.349 53.0911 56.1224 52.9219 55.8516 52.7969C55.5807 52.6719 55.263 52.6094 54.8984 52.6094C54.5026 52.6094 54.1615 52.6927 53.875 52.8594C53.5938 53.0208 53.362 53.2448 53.1797 53.5312C53.0026 53.8125 52.8698 54.1406 52.7812 54.5156C52.6979 54.8854 52.6562 55.2812 52.6562 55.7031ZM64.0469 60.1562C63.4583 60.1562 62.9245 60.0573 62.4453 59.8594C61.9714 59.6562 61.5625 59.3724 61.2188 59.0078C60.8802 58.6432 60.6198 58.2109 60.4375 57.7109C60.2552 57.2109 60.1641 56.6641 60.1641 56.0703V55.7422C60.1641 55.0547 60.2656 54.4427 60.4688 53.9062C60.6719 53.3646 60.9479 52.9062 61.2969 52.5312C61.6458 52.1562 62.0417 51.8724 62.4844 51.6797C62.9271 51.487 63.3854 51.3906 63.8594 51.3906C64.4635 51.3906 64.9844 51.4948 65.4219 51.7031C65.8646 51.9115 66.2266 52.2031 66.5078 52.5781C66.7891 52.9479 66.9974 53.3854 67.1328 53.8906C67.2682 54.3906 67.3359 54.9375 67.3359 55.5312V56.1797H61.0234V55H65.8906V54.8906C65.8698 54.5156 65.7917 54.151 65.6562 53.7969C65.526 53.4427 65.3177 53.151 65.0312 52.9219C64.7448 52.6927 64.3542 52.5781 63.8594 52.5781C63.5312 52.5781 63.2292 52.6484 62.9531 52.7891C62.6771 52.9245 62.4401 53.1276 62.2422 53.3984C62.0443 53.6693 61.8906 54 61.7812 54.3906C61.6719 54.7812 61.6172 55.2318 61.6172 55.7422V56.0703C61.6172 56.4714 61.6719 56.849 61.7812 57.2031C61.8958 57.5521 62.0599 57.8594 62.2734 58.125C62.4922 58.3906 62.7552 58.599 63.0625 58.75C63.375 58.901 63.7292 58.9766 64.125 58.9766C64.6354 58.9766 65.0677 58.8724 65.4219 58.6641C65.776 58.4557 66.0859 58.1771 66.3516 57.8281L67.2266 58.5234C67.0443 58.7995 66.8125 59.0625 66.5312 59.3125C66.25 59.5625 65.9036 59.7656 65.4922 59.9219C65.0859 60.0781 64.6042 60.1562 64.0469 60.1562ZM77.4062 55.5391H74.3672V54.3125H77.4062C77.9948 54.3125 78.4714 54.2188 78.8359 54.0312C79.2005 53.8438 79.4661 53.5833 79.6328 53.25C79.8047 52.9167 79.8906 52.5365 79.8906 52.1094C79.8906 51.7188 79.8047 51.3516 79.6328 51.0078C79.4661 50.6641 79.2005 50.388 78.8359 50.1797C78.4714 49.9661 77.9948 49.8594 77.4062 49.8594H74.7188V60H73.2109V48.625H77.4062C78.2656 48.625 78.9922 48.7734 79.5859 49.0703C80.1797 49.3672 80.6302 49.7786 80.9375 50.3047C81.2448 50.8255 81.3984 51.4219 81.3984 52.0938C81.3984 52.8229 81.2448 53.4453 80.9375 53.9609C80.6302 54.4766 80.1797 54.8698 79.5859 55.1406C78.9922 55.4062 78.2656 55.5391 77.4062 55.5391ZM87.9766 58.5547V54.2031C87.9766 53.8698 87.9089 53.5807 87.7734 53.3359C87.6432 53.0859 87.4453 52.8932 87.1797 52.7578C86.9141 52.6224 86.5859 52.5547 86.1953 52.5547C85.8307 52.5547 85.5104 52.6172 85.2344 52.7422C84.9635 52.8672 84.75 53.0312 84.5938 53.2344C84.4427 53.4375 84.3672 53.6562 84.3672 53.8906H82.9219C82.9219 53.5885 83 53.2891 83.1562 52.9922C83.3125 52.6953 83.5365 52.4271 83.8281 52.1875C84.125 51.9427 84.4792 51.75 84.8906 51.6094C85.3073 51.4635 85.7708 51.3906 86.2812 51.3906C86.8958 51.3906 87.4375 51.4948 87.9062 51.7031C88.3802 51.9115 88.75 52.2266 89.0156 52.6484C89.2865 53.0651 89.4219 53.5885 89.4219 54.2188V58.1562C89.4219 58.4375 89.4453 58.737 89.4922 59.0547C89.5443 59.3724 89.6198 59.6458 89.7188 59.875V60H88.2109C88.138 59.8333 88.0807 59.612 88.0391 59.3359C87.9974 59.0547 87.9766 58.7943 87.9766 58.5547ZM88.2266 54.875L88.2422 55.8906H86.7812C86.3698 55.8906 86.0026 55.9245 85.6797 55.9922C85.3568 56.0547 85.0859 56.151 84.8672 56.2812C84.6484 56.4115 84.4818 56.5755 84.3672 56.7734C84.2526 56.9661 84.1953 57.1927 84.1953 57.4531C84.1953 57.7188 84.2552 57.9609 84.375 58.1797C84.4948 58.3984 84.6745 58.5729 84.9141 58.7031C85.1589 58.8281 85.4583 58.8906 85.8125 58.8906C86.2552 58.8906 86.6458 58.7969 86.9844 58.6094C87.3229 58.4219 87.5911 58.1927 87.7891 57.9219C87.9922 57.651 88.1016 57.388 88.1172 57.1328L88.7344 57.8281C88.6979 58.0469 88.599 58.2891 88.4375 58.5547C88.276 58.8203 88.0599 59.0755 87.7891 59.3203C87.5234 59.5599 87.2057 59.7604 86.8359 59.9219C86.4714 60.0781 86.0599 60.1562 85.6016 60.1562C85.0286 60.1562 84.526 60.0443 84.0938 59.8203C83.6667 59.5964 83.3333 59.2969 83.0938 58.9219C82.8594 58.5417 82.7422 58.1172 82.7422 57.6484C82.7422 57.1953 82.8307 56.7969 83.0078 56.4531C83.1849 56.1042 83.4401 55.8151 83.7734 55.5859C84.1068 55.3516 84.5078 55.1745 84.9766 55.0547C85.4453 54.9349 85.9688 54.875 86.5469 54.875H88.2266ZM93.1406 52.875V60H91.6953V51.5469H93.1016L93.1406 52.875ZM95.7812 51.5L95.7734 52.8438C95.6536 52.8177 95.5391 52.8021 95.4297 52.7969C95.3255 52.7865 95.2057 52.7812 95.0703 52.7812C94.737 52.7812 94.4427 52.8333 94.1875 52.9375C93.9323 53.0417 93.7161 53.1875 93.5391 53.375C93.362 53.5625 93.2214 53.7865 93.1172 54.0469C93.0182 54.3021 92.9531 54.5833 92.9219 54.8906L92.5156 55.125C92.5156 54.6146 92.5651 54.1354 92.6641 53.6875C92.7682 53.2396 92.9271 52.8438 93.1406 52.5C93.3542 52.151 93.625 51.8802 93.9531 51.6875C94.2865 51.4896 94.6823 51.3906 95.1406 51.3906C95.2448 51.3906 95.3646 51.4036 95.5 51.4297C95.6354 51.4505 95.7292 51.474 95.7812 51.5ZM101.047 51.5469V52.6562H96.4766V51.5469H101.047ZM98.0234 49.4922H99.4688V57.9062C99.4688 58.1927 99.513 58.4089 99.6016 58.5547C99.6901 58.7005 99.8047 58.7969 99.9453 58.8438C100.086 58.8906 100.237 58.9141 100.398 58.9141C100.518 58.9141 100.643 58.9036 100.773 58.8828C100.909 58.8568 101.01 58.8359 101.078 58.8203L101.086 60C100.971 60.0365 100.82 60.0703 100.633 60.1016C100.451 60.138 100.229 60.1562 99.9688 60.1562C99.6146 60.1562 99.2891 60.0859 98.9922 59.9453C98.6953 59.8047 98.4583 59.5703 98.2812 59.2422C98.1094 58.9089 98.0234 58.4609 98.0234 57.8984V49.4922ZM105.117 59.125L107.469 51.5469H109.016L105.625 61.3047C105.547 61.513 105.443 61.737 105.312 61.9766C105.188 62.2214 105.026 62.4531 104.828 62.6719C104.63 62.8906 104.391 63.0677 104.109 63.2031C103.833 63.3438 103.503 63.4141 103.117 63.4141C103.003 63.4141 102.857 63.3984 102.68 63.3672C102.503 63.3359 102.378 63.3099 102.305 63.2891L102.297 62.1172C102.339 62.1224 102.404 62.1276 102.492 62.1328C102.586 62.1432 102.651 62.1484 102.688 62.1484C103.016 62.1484 103.294 62.1042 103.523 62.0156C103.753 61.9323 103.945 61.7891 104.102 61.5859C104.263 61.388 104.401 61.1146 104.516 60.7656L105.117 59.125ZM103.391 51.5469L105.586 58.1094L105.961 59.6328L104.922 60.1641L101.812 51.5469H103.391ZM8.40625 101.898V103.258H0.609375V101.898H8.40625ZM5.23438 98.5781V106.859H3.78906V98.5781H5.23438ZM18.5625 103.539H15.5234V102.312H18.5625C19.151 102.312 19.6276 102.219 19.9922 102.031C20.3568 101.844 20.6224 101.583 20.7891 101.25C20.9609 100.917 21.0469 100.536 21.0469 100.109C21.0469 99.7188 20.9609 99.3516 20.7891 99.0078C20.6224 98.6641 20.3568 98.388 19.9922 98.1797C19.6276 97.9661 19.151 97.8594 18.5625 97.8594H15.875V108H14.3672V96.625H18.5625C19.4219 96.625 20.1484 96.7734 20.7422 97.0703C21.3359 97.3672 21.7865 97.7786 22.0938 98.3047C22.401 98.8255 22.5547 99.4219 22.5547 100.094C22.5547 100.823 22.401 101.445 22.0938 101.961C21.7865 102.477 21.3359 102.87 20.7422 103.141C20.1484 103.406 19.4219 103.539 18.5625 103.539ZM29.1328 106.555V102.203C29.1328 101.87 29.0651 101.581 28.9297 101.336C28.7995 101.086 28.6016 100.893 28.3359 100.758C28.0703 100.622 27.7422 100.555 27.3516 100.555C26.987 100.555 26.6667 100.617 26.3906 100.742C26.1198 100.867 25.9062 101.031 25.75 101.234C25.599 101.438 25.5234 101.656 25.5234 101.891H24.0781C24.0781 101.589 24.1562 101.289 24.3125 100.992C24.4688 100.695 24.6927 100.427 24.9844 100.188C25.2812 99.9427 25.6354 99.75 26.0469 99.6094C26.4635 99.4635 26.9271 99.3906 27.4375 99.3906C28.0521 99.3906 28.5938 99.4948 29.0625 99.7031C29.5365 99.9115 29.9062 100.227 30.1719 100.648C30.4427 101.065 30.5781 101.589 30.5781 102.219V106.156C30.5781 106.438 30.6016 106.737 30.6484 107.055C30.7005 107.372 30.776 107.646 30.875 107.875V108H29.3672C29.2943 107.833 29.237 107.612 29.1953 107.336C29.1536 107.055 29.1328 106.794 29.1328 106.555ZM29.3828 102.875L29.3984 103.891H27.9375C27.526 103.891 27.1589 103.924 26.8359 103.992C26.513 104.055 26.2422 104.151 26.0234 104.281C25.8047 104.411 25.638 104.576 25.5234 104.773C25.4089 104.966 25.3516 105.193 25.3516 105.453C25.3516 105.719 25.4115 105.961 25.5312 106.18C25.651 106.398 25.8307 106.573 26.0703 106.703C26.3151 106.828 26.6146 106.891 26.9688 106.891C27.4115 106.891 27.8021 106.797 28.1406 106.609C28.4792 106.422 28.7474 106.193 28.9453 105.922C29.1484 105.651 29.2578 105.388 29.2734 105.133L29.8906 105.828C29.8542 106.047 29.7552 106.289 29.5938 106.555C29.4323 106.82 29.2161 107.076 28.9453 107.32C28.6797 107.56 28.362 107.76 27.9922 107.922C27.6276 108.078 27.2161 108.156 26.7578 108.156C26.1849 108.156 25.6823 108.044 25.25 107.82C24.8229 107.596 24.4896 107.297 24.25 106.922C24.0156 106.542 23.8984 106.117 23.8984 105.648C23.8984 105.195 23.987 104.797 24.1641 104.453C24.3411 104.104 24.5964 103.815 24.9297 103.586C25.263 103.352 25.6641 103.174 26.1328 103.055C26.6016 102.935 27.125 102.875 27.7031 102.875H29.3828ZM34.2969 100.875V108H32.8516V99.5469H34.2578L34.2969 100.875ZM36.9375 99.5L36.9297 100.844C36.8099 100.818 36.6953 100.802 36.5859 100.797C36.4818 100.786 36.362 100.781 36.2266 100.781C35.8932 100.781 35.599 100.833 35.3438 100.938C35.0885 101.042 34.8724 101.188 34.6953 101.375C34.5182 101.562 34.3776 101.786 34.2734 102.047C34.1745 102.302 34.1094 102.583 34.0781 102.891L33.6719 103.125C33.6719 102.615 33.7214 102.135 33.8203 101.688C33.9245 101.24 34.0833 100.844 34.2969 100.5C34.5104 100.151 34.7812 99.8802 35.1094 99.6875C35.4427 99.4896 35.8385 99.3906 36.2969 99.3906C36.401 99.3906 36.5208 99.4036 36.6562 99.4297C36.7917 99.4505 36.8854 99.474 36.9375 99.5ZM42.2031 99.5469V100.656H37.6328V99.5469H42.2031ZM39.1797 97.4922H40.625V105.906C40.625 106.193 40.6693 106.409 40.7578 106.555C40.8464 106.701 40.9609 106.797 41.1016 106.844C41.2422 106.891 41.3932 106.914 41.5547 106.914C41.6745 106.914 41.7995 106.904 41.9297 106.883C42.0651 106.857 42.1667 106.836 42.2344 106.82L42.2422 108C42.1276 108.036 41.9766 108.07 41.7891 108.102C41.6068 108.138 41.3854 108.156 41.125 108.156C40.7708 108.156 40.4453 108.086 40.1484 107.945C39.8516 107.805 39.6146 107.57 39.4375 107.242C39.2656 106.909 39.1797 106.461 39.1797 105.898V97.4922ZM46.2734 107.125L48.625 99.5469H50.1719L46.7812 109.305C46.7031 109.513 46.599 109.737 46.4688 109.977C46.3438 110.221 46.1823 110.453 45.9844 110.672C45.7865 110.891 45.5469 111.068 45.2656 111.203C44.9896 111.344 44.6589 111.414 44.2734 111.414C44.1589 111.414 44.013 111.398 43.8359 111.367C43.6589 111.336 43.5339 111.31 43.4609 111.289L43.4531 110.117C43.4948 110.122 43.5599 110.128 43.6484 110.133C43.7422 110.143 43.8073 110.148 43.8438 110.148C44.1719 110.148 44.4505 110.104 44.6797 110.016C44.9089 109.932 45.1016 109.789 45.2578 109.586C45.4193 109.388 45.5573 109.115 45.6719 108.766L46.2734 107.125ZM44.5469 99.5469L46.7422 106.109L47.1172 107.633L46.0781 108.164L42.9688 99.5469H44.5469ZM59.8594 103.539H56.8203V102.312H59.8594C60.4479 102.312 60.9245 102.219 61.2891 102.031C61.6536 101.844 61.9193 101.583 62.0859 101.25C62.2578 100.917 62.3438 100.536 62.3438 100.109C62.3438 99.7188 62.2578 99.3516 62.0859 99.0078C61.9193 98.6641 61.6536 98.388 61.2891 98.1797C60.9245 97.9661 60.4479 97.8594 59.8594 97.8594H57.1719V108H55.6641V96.625H59.8594C60.7188 96.625 61.4453 96.7734 62.0391 97.0703C62.6328 97.3672 63.0833 97.7786 63.3906 98.3047C63.6979 98.8255 63.8516 99.4219 63.8516 100.094C63.8516 100.823 63.6979 101.445 63.3906 101.961C63.0833 102.477 62.6328 102.87 62.0391 103.141C61.4453 103.406 60.7188 103.539 59.8594 103.539ZM67.1094 96V108H65.6562V96H67.1094ZM74.4141 106.555V102.203C74.4141 101.87 74.3464 101.581 74.2109 101.336C74.0807 101.086 73.8828 100.893 73.6172 100.758C73.3516 100.622 73.0234 100.555 72.6328 100.555C72.2682 100.555 71.9479 100.617 71.6719 100.742C71.401 100.867 71.1875 101.031 71.0312 101.234C70.8802 101.438 70.8047 101.656 70.8047 101.891H69.3594C69.3594 101.589 69.4375 101.289 69.5938 100.992C69.75 100.695 69.974 100.427 70.2656 100.188C70.5625 99.9427 70.9167 99.75 71.3281 99.6094C71.7448 99.4635 72.2083 99.3906 72.7188 99.3906C73.3333 99.3906 73.875 99.4948 74.3438 99.7031C74.8177 99.9115 75.1875 100.227 75.4531 100.648C75.724 101.065 75.8594 101.589 75.8594 102.219V106.156C75.8594 106.438 75.8828 106.737 75.9297 107.055C75.9818 107.372 76.0573 107.646 76.1562 107.875V108H74.6484C74.5755 107.833 74.5182 107.612 74.4766 107.336C74.4349 107.055 74.4141 106.794 74.4141 106.555ZM74.6641 102.875L74.6797 103.891H73.2188C72.8073 103.891 72.4401 103.924 72.1172 103.992C71.7943 104.055 71.5234 104.151 71.3047 104.281C71.0859 104.411 70.9193 104.576 70.8047 104.773C70.6901 104.966 70.6328 105.193 70.6328 105.453C70.6328 105.719 70.6927 105.961 70.8125 106.18C70.9323 106.398 71.112 106.573 71.3516 106.703C71.5964 106.828 71.8958 106.891 72.25 106.891C72.6927 106.891 73.0833 106.797 73.4219 106.609C73.7604 106.422 74.0286 106.193 74.2266 105.922C74.4297 105.651 74.5391 105.388 74.5547 105.133L75.1719 105.828C75.1354 106.047 75.0365 106.289 74.875 106.555C74.7135 106.82 74.4974 107.076 74.2266 107.32C73.9609 107.56 73.6432 107.76 73.2734 107.922C72.9089 108.078 72.4974 108.156 72.0391 108.156C71.4661 108.156 70.9635 108.044 70.5312 107.82C70.1042 107.596 69.7708 107.297 69.5312 106.922C69.2969 106.542 69.1797 106.117 69.1797 105.648C69.1797 105.195 69.2682 104.797 69.4453 104.453C69.6224 104.104 69.8776 103.815 70.2109 103.586C70.5443 103.352 70.9453 103.174 71.4141 103.055C71.8828 102.935 72.4062 102.875 72.9844 102.875H74.6641ZM79.5781 101.352V108H78.1328V99.5469H79.5L79.5781 101.352ZM79.2344 103.453L78.6328 103.43C78.638 102.852 78.724 102.318 78.8906 101.828C79.0573 101.333 79.2917 100.904 79.5938 100.539C79.8958 100.174 80.2552 99.8932 80.6719 99.6953C81.0938 99.4922 81.5599 99.3906 82.0703 99.3906C82.487 99.3906 82.862 99.4479 83.1953 99.5625C83.5286 99.6719 83.8125 99.849 84.0469 100.094C84.2865 100.339 84.4688 100.656 84.5938 101.047C84.7188 101.432 84.7812 101.904 84.7812 102.461V108H83.3281V102.445C83.3281 102.003 83.263 101.648 83.1328 101.383C83.0026 101.112 82.8125 100.917 82.5625 100.797C82.3125 100.672 82.0052 100.609 81.6406 100.609C81.2812 100.609 80.9531 100.685 80.6562 100.836C80.3646 100.987 80.112 101.195 79.8984 101.461C79.6901 101.727 79.526 102.031 79.4062 102.375C79.2917 102.714 79.2344 103.073 79.2344 103.453ZM88.4219 101.352V108H86.9766V99.5469H88.3438L88.4219 101.352ZM88.0781 103.453L87.4766 103.43C87.4818 102.852 87.5677 102.318 87.7344 101.828C87.901 101.333 88.1354 100.904 88.4375 100.539C88.7396 100.174 89.099 99.8932 89.5156 99.6953C89.9375 99.4922 90.4036 99.3906 90.9141 99.3906C91.3307 99.3906 91.7057 99.4479 92.0391 99.5625C92.3724 99.6719 92.6562 99.849 92.8906 100.094C93.1302 100.339 93.3125 100.656 93.4375 101.047C93.5625 101.432 93.625 101.904 93.625 102.461V108H92.1719V102.445C92.1719 102.003 92.1068 101.648 91.9766 101.383C91.8464 101.112 91.6562 100.917 91.4062 100.797C91.1562 100.672 90.849 100.609 90.4844 100.609C90.125 100.609 89.7969 100.685 89.5 100.836C89.2083 100.987 88.9557 101.195 88.7422 101.461C88.5339 101.727 88.3698 102.031 88.25 102.375C88.1354 102.714 88.0781 103.073 88.0781 103.453ZM97.3906 99.5469V108H95.9375V99.5469H97.3906ZM95.8281 97.3047C95.8281 97.0703 95.8984 96.8724 96.0391 96.7109C96.1849 96.5495 96.3984 96.4688 96.6797 96.4688C96.9557 96.4688 97.1667 96.5495 97.3125 96.7109C97.4635 96.8724 97.5391 97.0703 97.5391 97.3047C97.5391 97.5286 97.4635 97.7214 97.3125 97.8828C97.1667 98.0391 96.9557 98.1172 96.6797 98.1172C96.3984 98.1172 96.1849 98.0391 96.0391 97.8828C95.8984 97.7214 95.8281 97.5286 95.8281 97.3047ZM101.156 101.352V108H99.7109V99.5469H101.078L101.156 101.352ZM100.812 103.453L100.211 103.43C100.216 102.852 100.302 102.318 100.469 101.828C100.635 101.333 100.87 100.904 101.172 100.539C101.474 100.174 101.833 99.8932 102.25 99.6953C102.672 99.4922 103.138 99.3906 103.648 99.3906C104.065 99.3906 104.44 99.4479 104.773 99.5625C105.107 99.6719 105.391 99.849 105.625 100.094C105.865 100.339 106.047 100.656 106.172 101.047C106.297 101.432 106.359 101.904 106.359 102.461V108H104.906V102.445C104.906 102.003 104.841 101.648 104.711 101.383C104.581 101.112 104.391 100.917 104.141 100.797C103.891 100.672 103.583 100.609 103.219 100.609C102.859 100.609 102.531 100.685 102.234 100.836C101.943 100.987 101.69 101.195 101.477 101.461C101.268 101.727 101.104 102.031 100.984 102.375C100.87 102.714 100.812 103.073 100.812 103.453ZM114.031 99.5469H115.344V107.82C115.344 108.565 115.193 109.201 114.891 109.727C114.589 110.253 114.167 110.651 113.625 110.922C113.089 111.198 112.469 111.336 111.766 111.336C111.474 111.336 111.13 111.289 110.734 111.195C110.344 111.107 109.958 110.953 109.578 110.734C109.203 110.521 108.888 110.232 108.633 109.867L109.391 109.008C109.745 109.435 110.115 109.732 110.5 109.898C110.891 110.065 111.276 110.148 111.656 110.148C112.115 110.148 112.51 110.062 112.844 109.891C113.177 109.719 113.435 109.464 113.617 109.125C113.805 108.792 113.898 108.38 113.898 107.891V101.406L114.031 99.5469ZM108.211 103.867V103.703C108.211 103.057 108.286 102.471 108.438 101.945C108.594 101.414 108.815 100.958 109.102 100.578C109.393 100.198 109.745 99.9062 110.156 99.7031C110.568 99.4948 111.031 99.3906 111.547 99.3906C112.078 99.3906 112.542 99.4844 112.938 99.6719C113.339 99.8542 113.677 100.122 113.953 100.477C114.234 100.826 114.456 101.247 114.617 101.742C114.779 102.237 114.891 102.797 114.953 103.422V104.141C114.896 104.76 114.784 105.318 114.617 105.812C114.456 106.307 114.234 106.729 113.953 107.078C113.677 107.427 113.339 107.695 112.938 107.883C112.536 108.065 112.068 108.156 111.531 108.156C111.026 108.156 110.568 108.049 110.156 107.836C109.75 107.622 109.401 107.323 109.109 106.938C108.818 106.552 108.594 106.099 108.438 105.578C108.286 105.052 108.211 104.482 108.211 103.867ZM109.656 103.703V103.867C109.656 104.289 109.698 104.685 109.781 105.055C109.87 105.424 110.003 105.75 110.18 106.031C110.362 106.312 110.594 106.534 110.875 106.695C111.156 106.852 111.492 106.93 111.883 106.93C112.362 106.93 112.758 106.828 113.07 106.625C113.383 106.422 113.63 106.154 113.812 105.82C114 105.487 114.146 105.125 114.25 104.734V102.852C114.193 102.565 114.104 102.289 113.984 102.023C113.87 101.753 113.719 101.513 113.531 101.305C113.349 101.091 113.122 100.922 112.852 100.797C112.581 100.672 112.263 100.609 111.898 100.609C111.503 100.609 111.161 100.693 110.875 100.859C110.594 101.021 110.362 101.245 110.18 101.531C110.003 101.812 109.87 102.141 109.781 102.516C109.698 102.885 109.656 103.281 109.656 103.703ZM8.40625 149.898V151.258H0.609375V149.898H8.40625ZM5.23438 146.578V154.859H3.78906V146.578H5.23438ZM18.2578 144.625V156H16.7734V144.625H18.2578ZM21.9141 144.625V145.859H13.125V144.625H21.9141ZM22.2188 151.867V151.688C22.2188 151.078 22.3073 150.513 22.4844 149.992C22.6615 149.466 22.9167 149.01 23.25 148.625C23.5833 148.234 23.987 147.932 24.4609 147.719C24.9349 147.5 25.4661 147.391 26.0547 147.391C26.6484 147.391 27.1823 147.5 27.6562 147.719C28.1354 147.932 28.5417 148.234 28.875 148.625C29.2135 149.01 29.4714 149.466 29.6484 149.992C29.8255 150.513 29.9141 151.078 29.9141 151.688V151.867C29.9141 152.477 29.8255 153.042 29.6484 153.562C29.4714 154.083 29.2135 154.539 28.875 154.93C28.5417 155.315 28.138 155.617 27.6641 155.836C27.1953 156.049 26.6641 156.156 26.0703 156.156C25.4766 156.156 24.9427 156.049 24.4688 155.836C23.9948 155.617 23.5885 155.315 23.25 154.93C22.9167 154.539 22.6615 154.083 22.4844 153.562C22.3073 153.042 22.2188 152.477 22.2188 151.867ZM23.6641 151.688V151.867C23.6641 152.289 23.7135 152.688 23.8125 153.062C23.9115 153.432 24.0599 153.76 24.2578 154.047C24.4609 154.333 24.7135 154.56 25.0156 154.727C25.3177 154.888 25.6693 154.969 26.0703 154.969C26.4661 154.969 26.8125 154.888 27.1094 154.727C27.4115 154.56 27.6615 154.333 27.8594 154.047C28.0573 153.76 28.2057 153.432 28.3047 153.062C28.4089 152.688 28.4609 152.289 28.4609 151.867V151.688C28.4609 151.271 28.4089 150.878 28.3047 150.508C28.2057 150.133 28.0547 149.802 27.8516 149.516C27.6536 149.224 27.4036 148.995 27.1016 148.828C26.8047 148.661 26.4557 148.578 26.0547 148.578C25.6589 148.578 25.3099 148.661 25.0078 148.828C24.7109 148.995 24.4609 149.224 24.2578 149.516C24.0599 149.802 23.9115 150.133 23.8125 150.508C23.7135 150.878 23.6641 151.271 23.6641 151.688ZM36.8984 154.047V147.547H38.3516V156H36.9688L36.8984 154.047ZM37.1719 152.266L37.7734 152.25C37.7734 152.812 37.7135 153.333 37.5938 153.812C37.4792 154.286 37.2917 154.698 37.0312 155.047C36.7708 155.396 36.4297 155.669 36.0078 155.867C35.5859 156.06 35.0729 156.156 34.4688 156.156C34.0573 156.156 33.6797 156.096 33.3359 155.977C32.9974 155.857 32.7057 155.672 32.4609 155.422C32.2161 155.172 32.026 154.846 31.8906 154.445C31.7604 154.044 31.6953 153.562 31.6953 153V147.547H33.1406V153.016C33.1406 153.396 33.1823 153.711 33.2656 153.961C33.3542 154.206 33.4714 154.401 33.6172 154.547C33.7682 154.688 33.9349 154.786 34.1172 154.844C34.3047 154.901 34.4974 154.93 34.6953 154.93C35.3099 154.93 35.7969 154.812 36.1562 154.578C36.5156 154.339 36.7734 154.018 36.9297 153.617C37.0911 153.211 37.1719 152.76 37.1719 152.266ZM42 148.875V156H40.5547V147.547H41.9609L42 148.875ZM44.6406 147.5L44.6328 148.844C44.513 148.818 44.3984 148.802 44.2891 148.797C44.1849 148.786 44.0651 148.781 43.9297 148.781C43.5964 148.781 43.3021 148.833 43.0469 148.938C42.7917 149.042 42.5755 149.188 42.3984 149.375C42.2214 149.562 42.0807 149.786 41.9766 150.047C41.8776 150.302 41.8125 150.583 41.7812 150.891L41.375 151.125C41.375 150.615 41.4245 150.135 41.5234 149.688C41.6276 149.24 41.7865 148.844 42 148.5C42.2135 148.151 42.4844 147.88 42.8125 147.688C43.1458 147.49 43.5417 147.391 44 147.391C44.1042 147.391 44.224 147.404 44.3594 147.43C44.4948 147.451 44.5885 147.474 44.6406 147.5ZM57.0312 152.383H58.5312C58.4531 153.102 58.2474 153.745 57.9141 154.312C57.5807 154.88 57.1094 155.331 56.5 155.664C55.8906 155.992 55.1302 156.156 54.2188 156.156C53.5521 156.156 52.9453 156.031 52.3984 155.781C51.8568 155.531 51.3906 155.177 51 154.719C50.6094 154.255 50.3073 153.701 50.0938 153.055C49.8854 152.404 49.7812 151.68 49.7812 150.883V149.75C49.7812 148.953 49.8854 148.232 50.0938 147.586C50.3073 146.935 50.612 146.378 51.0078 145.914C51.4089 145.451 51.8906 145.094 52.4531 144.844C53.0156 144.594 53.6484 144.469 54.3516 144.469C55.2109 144.469 55.9375 144.63 56.5312 144.953C57.125 145.276 57.5859 145.724 57.9141 146.297C58.2474 146.865 58.4531 147.523 58.5312 148.273H57.0312C56.9583 147.742 56.8229 147.286 56.625 146.906C56.4271 146.521 56.1458 146.224 55.7812 146.016C55.4167 145.807 54.9401 145.703 54.3516 145.703C53.8464 145.703 53.401 145.799 53.0156 145.992C52.6354 146.185 52.3151 146.458 52.0547 146.812C51.7995 147.167 51.6068 147.591 51.4766 148.086C51.3464 148.581 51.2812 149.13 51.2812 149.734V150.883C51.2812 151.44 51.3385 151.964 51.4531 152.453C51.5729 152.943 51.7526 153.372 51.9922 153.742C52.2318 154.112 52.5365 154.404 52.9062 154.617C53.276 154.826 53.7135 154.93 54.2188 154.93C54.8594 154.93 55.3698 154.828 55.75 154.625C56.1302 154.422 56.4167 154.13 56.6094 153.75C56.8073 153.37 56.9479 152.914 57.0312 152.383ZM59.9844 151.867V151.688C59.9844 151.078 60.0729 150.513 60.25 149.992C60.4271 149.466 60.6823 149.01 61.0156 148.625C61.349 148.234 61.7526 147.932 62.2266 147.719C62.7005 147.5 63.2318 147.391 63.8203 147.391C64.4141 147.391 64.9479 147.5 65.4219 147.719C65.901 147.932 66.3073 148.234 66.6406 148.625C66.9792 149.01 67.237 149.466 67.4141 149.992C67.5911 150.513 67.6797 151.078 67.6797 151.688V151.867C67.6797 152.477 67.5911 153.042 67.4141 153.562C67.237 154.083 66.9792 154.539 66.6406 154.93C66.3073 155.315 65.9036 155.617 65.4297 155.836C64.9609 156.049 64.4297 156.156 63.8359 156.156C63.2422 156.156 62.7083 156.049 62.2344 155.836C61.7604 155.617 61.3542 155.315 61.0156 154.93C60.6823 154.539 60.4271 154.083 60.25 153.562C60.0729 153.042 59.9844 152.477 59.9844 151.867ZM61.4297 151.688V151.867C61.4297 152.289 61.4792 152.688 61.5781 153.062C61.6771 153.432 61.8255 153.76 62.0234 154.047C62.2266 154.333 62.4792 154.56 62.7812 154.727C63.0833 154.888 63.4349 154.969 63.8359 154.969C64.2318 154.969 64.5781 154.888 64.875 154.727C65.1771 154.56 65.4271 154.333 65.625 154.047C65.8229 153.76 65.9714 153.432 66.0703 153.062C66.1745 152.688 66.2266 152.289 66.2266 151.867V151.688C66.2266 151.271 66.1745 150.878 66.0703 150.508C65.9714 150.133 65.8203 149.802 65.6172 149.516C65.4193 149.224 65.1693 148.995 64.8672 148.828C64.5703 148.661 64.2214 148.578 63.8203 148.578C63.4245 148.578 63.0755 148.661 62.7734 148.828C62.4766 148.995 62.2266 149.224 62.0234 149.516C61.8255 149.802 61.6771 150.133 61.5781 150.508C61.4792 150.878 61.4297 151.271 61.4297 151.688ZM70.9375 149.352V156H69.4922V147.547H70.8594L70.9375 149.352ZM70.5938 151.453L69.9922 151.43C69.9974 150.852 70.0833 150.318 70.25 149.828C70.4167 149.333 70.651 148.904 70.9531 148.539C71.2552 148.174 71.6146 147.893 72.0312 147.695C72.4531 147.492 72.9193 147.391 73.4297 147.391C73.8464 147.391 74.2214 147.448 74.5547 147.562C74.888 147.672 75.1719 147.849 75.4062 148.094C75.6458 148.339 75.8281 148.656 75.9531 149.047C76.0781 149.432 76.1406 149.904 76.1406 150.461V156H74.6875V150.445C74.6875 150.003 74.6224 149.648 74.4922 149.383C74.362 149.112 74.1719 148.917 73.9219 148.797C73.6719 148.672 73.3646 148.609 73 148.609C72.6406 148.609 72.3125 148.685 72.0156 148.836C71.724 148.987 71.4714 149.195 71.2578 149.461C71.0495 149.727 70.8854 150.031 70.7656 150.375C70.651 150.714 70.5938 151.073 70.5938 151.453ZM83.2578 153.758C83.2578 153.549 83.2109 153.357 83.1172 153.18C83.0286 152.997 82.8438 152.833 82.5625 152.688C82.2865 152.536 81.8698 152.406 81.3125 152.297C80.8438 152.198 80.4193 152.081 80.0391 151.945C79.6641 151.81 79.3438 151.646 79.0781 151.453C78.8177 151.26 78.6172 151.034 78.4766 150.773C78.3359 150.513 78.2656 150.208 78.2656 149.859C78.2656 149.526 78.3385 149.211 78.4844 148.914C78.6354 148.617 78.8464 148.354 79.1172 148.125C79.3932 147.896 79.724 147.716 80.1094 147.586C80.4948 147.456 80.9245 147.391 81.3984 147.391C82.0755 147.391 82.6536 147.51 83.1328 147.75C83.612 147.99 83.9792 148.31 84.2344 148.711C84.4896 149.107 84.6172 149.547 84.6172 150.031H83.1719C83.1719 149.797 83.1016 149.57 82.9609 149.352C82.8255 149.128 82.625 148.943 82.3594 148.797C82.099 148.651 81.7786 148.578 81.3984 148.578C80.9974 148.578 80.6719 148.641 80.4219 148.766C80.1771 148.885 79.9974 149.039 79.8828 149.227C79.7734 149.414 79.7188 149.612 79.7188 149.82C79.7188 149.977 79.7448 150.117 79.7969 150.242C79.8542 150.362 79.9531 150.474 80.0938 150.578C80.2344 150.677 80.4323 150.771 80.6875 150.859C80.9427 150.948 81.2682 151.036 81.6641 151.125C82.3568 151.281 82.9271 151.469 83.375 151.688C83.8229 151.906 84.1562 152.174 84.375 152.492C84.5938 152.81 84.7031 153.195 84.7031 153.648C84.7031 154.018 84.625 154.357 84.4688 154.664C84.3177 154.971 84.0964 155.237 83.8047 155.461C83.5182 155.68 83.1745 155.852 82.7734 155.977C82.3776 156.096 81.9323 156.156 81.4375 156.156C80.6927 156.156 80.0625 156.023 79.5469 155.758C79.0312 155.492 78.6406 155.148 78.375 154.727C78.1094 154.305 77.9766 153.859 77.9766 153.391H79.4297C79.4505 153.786 79.5651 154.102 79.7734 154.336C79.9818 154.565 80.237 154.729 80.5391 154.828C80.8411 154.922 81.1406 154.969 81.4375 154.969C81.8333 154.969 82.1641 154.917 82.4297 154.812C82.7005 154.708 82.9062 154.565 83.0469 154.383C83.1875 154.201 83.2578 153.992 83.2578 153.758ZM91.7734 154.047V147.547H93.2266V156H91.8438L91.7734 154.047ZM92.0469 152.266L92.6484 152.25C92.6484 152.812 92.5885 153.333 92.4688 153.812C92.3542 154.286 92.1667 154.698 91.9062 155.047C91.6458 155.396 91.3047 155.669 90.8828 155.867C90.4609 156.06 89.9479 156.156 89.3438 156.156C88.9323 156.156 88.5547 156.096 88.2109 155.977C87.8724 155.857 87.5807 155.672 87.3359 155.422C87.0911 155.172 86.901 154.846 86.7656 154.445C86.6354 154.044 86.5703 153.562 86.5703 153V147.547H88.0156V153.016C88.0156 153.396 88.0573 153.711 88.1406 153.961C88.2292 154.206 88.3464 154.401 88.4922 154.547C88.6432 154.688 88.8099 154.786 88.9922 154.844C89.1797 154.901 89.3724 154.93 89.5703 154.93C90.1849 154.93 90.6719 154.812 91.0312 154.578C91.3906 154.339 91.6484 154.018 91.8047 153.617C91.9661 153.211 92.0469 152.76 92.0469 152.266ZM97 144V156H95.5469V144H97ZM102.859 147.547V148.656H98.2891V147.547H102.859ZM99.8359 145.492H101.281V153.906C101.281 154.193 101.326 154.409 101.414 154.555C101.503 154.701 101.617 154.797 101.758 154.844C101.898 154.891 102.049 154.914 102.211 154.914C102.331 154.914 102.456 154.904 102.586 154.883C102.721 154.857 102.823 154.836 102.891 154.82L102.898 156C102.784 156.036 102.633 156.07 102.445 156.102C102.263 156.138 102.042 156.156 101.781 156.156C101.427 156.156 101.102 156.086 100.805 155.945C100.508 155.805 100.271 155.57 100.094 155.242C99.9219 154.909 99.8359 154.461 99.8359 153.898V145.492ZM109.539 154.555V150.203C109.539 149.87 109.471 149.581 109.336 149.336C109.206 149.086 109.008 148.893 108.742 148.758C108.477 148.622 108.148 148.555 107.758 148.555C107.393 148.555 107.073 148.617 106.797 148.742C106.526 148.867 106.312 149.031 106.156 149.234C106.005 149.438 105.93 149.656 105.93 149.891H104.484C104.484 149.589 104.562 149.289 104.719 148.992C104.875 148.695 105.099 148.427 105.391 148.188C105.688 147.943 106.042 147.75 106.453 147.609C106.87 147.464 107.333 147.391 107.844 147.391C108.458 147.391 109 147.495 109.469 147.703C109.943 147.911 110.312 148.227 110.578 148.648C110.849 149.065 110.984 149.589 110.984 150.219V154.156C110.984 154.438 111.008 154.737 111.055 155.055C111.107 155.372 111.182 155.646 111.281 155.875V156H109.773C109.701 155.833 109.643 155.612 109.602 155.336C109.56 155.055 109.539 154.794 109.539 154.555ZM109.789 150.875L109.805 151.891H108.344C107.932 151.891 107.565 151.924 107.242 151.992C106.919 152.055 106.648 152.151 106.43 152.281C106.211 152.411 106.044 152.576 105.93 152.773C105.815 152.966 105.758 153.193 105.758 153.453C105.758 153.719 105.818 153.961 105.938 154.18C106.057 154.398 106.237 154.573 106.477 154.703C106.721 154.828 107.021 154.891 107.375 154.891C107.818 154.891 108.208 154.797 108.547 154.609C108.885 154.422 109.154 154.193 109.352 153.922C109.555 153.651 109.664 153.388 109.68 153.133L110.297 153.828C110.26 154.047 110.161 154.289 110 154.555C109.839 154.82 109.622 155.076 109.352 155.32C109.086 155.56 108.768 155.76 108.398 155.922C108.034 156.078 107.622 156.156 107.164 156.156C106.591 156.156 106.089 156.044 105.656 155.82C105.229 155.596 104.896 155.297 104.656 154.922C104.422 154.542 104.305 154.117 104.305 153.648C104.305 153.195 104.393 152.797 104.57 152.453C104.747 152.104 105.003 151.815 105.336 151.586C105.669 151.352 106.07 151.174 106.539 151.055C107.008 150.935 107.531 150.875 108.109 150.875H109.789ZM114.703 149.352V156H113.258V147.547H114.625L114.703 149.352ZM114.359 151.453L113.758 151.43C113.763 150.852 113.849 150.318 114.016 149.828C114.182 149.333 114.417 148.904 114.719 148.539C115.021 148.174 115.38 147.893 115.797 147.695C116.219 147.492 116.685 147.391 117.195 147.391C117.612 147.391 117.987 147.448 118.32 147.562C118.654 147.672 118.938 147.849 119.172 148.094C119.411 148.339 119.594 148.656 119.719 149.047C119.844 149.432 119.906 149.904 119.906 150.461V156H118.453V150.445C118.453 150.003 118.388 149.648 118.258 149.383C118.128 149.112 117.938 148.917 117.688 148.797C117.438 148.672 117.13 148.609 116.766 148.609C116.406 148.609 116.078 148.685 115.781 148.836C115.49 148.987 115.237 149.195 115.023 149.461C114.815 149.727 114.651 150.031 114.531 150.375C114.417 150.714 114.359 151.073 114.359 151.453ZM125.484 154.969C125.828 154.969 126.146 154.898 126.438 154.758C126.729 154.617 126.969 154.424 127.156 154.18C127.344 153.93 127.451 153.646 127.477 153.328H128.852C128.826 153.828 128.656 154.294 128.344 154.727C128.036 155.154 127.633 155.5 127.133 155.766C126.633 156.026 126.083 156.156 125.484 156.156C124.849 156.156 124.294 156.044 123.82 155.82C123.352 155.596 122.961 155.289 122.648 154.898C122.341 154.508 122.109 154.06 121.953 153.555C121.802 153.044 121.727 152.505 121.727 151.938V151.609C121.727 151.042 121.802 150.505 121.953 150C122.109 149.49 122.341 149.039 122.648 148.648C122.961 148.258 123.352 147.951 123.82 147.727C124.294 147.503 124.849 147.391 125.484 147.391C126.146 147.391 126.724 147.526 127.219 147.797C127.714 148.062 128.102 148.427 128.383 148.891C128.669 149.349 128.826 149.87 128.852 150.453H127.477C127.451 150.104 127.352 149.789 127.18 149.508C127.013 149.227 126.784 149.003 126.492 148.836C126.206 148.664 125.87 148.578 125.484 148.578C125.042 148.578 124.669 148.667 124.367 148.844C124.07 149.016 123.833 149.25 123.656 149.547C123.484 149.839 123.359 150.164 123.281 150.523C123.208 150.878 123.172 151.24 123.172 151.609V151.938C123.172 152.307 123.208 152.672 123.281 153.031C123.354 153.391 123.477 153.716 123.648 154.008C123.826 154.299 124.062 154.534 124.359 154.711C124.661 154.883 125.036 154.969 125.484 154.969ZM132.852 155.125L135.203 147.547H136.75L133.359 157.305C133.281 157.513 133.177 157.737 133.047 157.977C132.922 158.221 132.76 158.453 132.562 158.672C132.365 158.891 132.125 159.068 131.844 159.203C131.568 159.344 131.237 159.414 130.852 159.414C130.737 159.414 130.591 159.398 130.414 159.367C130.237 159.336 130.112 159.31 130.039 159.289L130.031 158.117C130.073 158.122 130.138 158.128 130.227 158.133C130.32 158.143 130.385 158.148 130.422 158.148C130.75 158.148 131.029 158.104 131.258 158.016C131.487 157.932 131.68 157.789 131.836 157.586C131.997 157.388 132.135 157.115 132.25 156.766L132.852 155.125ZM131.125 147.547L133.32 154.109L133.695 155.633L132.656 156.164L129.547 147.547H131.125Z" fill="#777777"/>
</svg>
