<svg width="336" height="158" viewBox="0 0 336 158" fill="none" xmlns="http://www.w3.org/2000/svg">
<rect width="158" height="158" fill="white"/>
<path d="M38.6554 117.333C37.7994 117.333 37.0674 117.185 36.4594 116.889C35.8514 116.585 35.3874 116.117 35.0674 115.485C34.7554 114.853 34.5994 114.049 34.5994 113.073C34.5994 111.633 34.9514 110.565 35.6554 109.869C36.3674 109.165 37.3674 108.813 38.6554 108.813C39.3594 108.813 39.9914 108.933 40.5514 109.173C41.1114 109.413 41.5514 109.773 41.8714 110.253C42.1994 110.733 42.3634 111.337 42.3634 112.065H40.5634C40.5634 111.681 40.4834 111.357 40.3234 111.093C40.1714 110.829 39.9514 110.629 39.6634 110.493C39.3834 110.349 39.0554 110.277 38.6794 110.277C38.1674 110.277 37.7434 110.377 37.4074 110.577C37.0794 110.777 36.8354 111.073 36.6754 111.465C36.5234 111.849 36.4474 112.321 36.4474 112.881V113.253C36.4474 113.829 36.5274 114.313 36.6874 114.705C36.8474 115.089 37.0874 115.381 37.4074 115.581C37.7354 115.773 38.1554 115.869 38.6674 115.869C39.0674 115.869 39.4154 115.801 39.7114 115.665C40.0074 115.529 40.2354 115.329 40.3954 115.065C40.5554 114.801 40.6354 114.477 40.6354 114.093H42.3634C42.3634 114.821 42.2034 115.425 41.8834 115.905C41.5714 116.385 41.1354 116.745 40.5754 116.985C40.0154 117.217 39.3754 117.333 38.6554 117.333ZM46.1722 117.189V108.957H47.9602V117.189H46.1722ZM54.2095 117.189V110.457H51.5695V108.957H58.6615V110.457H56.0095V117.189H54.2095ZM64.4227 117.189V113.877L61.2307 108.957H63.3067L65.3467 112.269H65.4067L67.4347 108.957H69.3907L66.2227 113.877V117.189H64.4227ZM80.7271 117.333C79.4311 117.333 78.4311 116.989 77.7271 116.301C77.0311 115.605 76.6831 114.529 76.6831 113.073C76.6831 112.105 76.8511 111.309 77.1871 110.685C77.5231 110.053 78.0111 109.585 78.6511 109.281C79.2911 108.969 80.0591 108.813 80.9551 108.813C81.4911 108.813 81.9951 108.873 82.4671 108.993C82.9391 109.113 83.3551 109.297 83.7151 109.545C84.0831 109.793 84.3671 110.105 84.5671 110.481C84.7751 110.849 84.8791 111.289 84.8791 111.801H83.0671C83.0671 111.553 83.0111 111.333 82.8991 111.141C82.7951 110.949 82.6471 110.789 82.4551 110.661C82.2631 110.533 82.0431 110.437 81.7951 110.373C81.5471 110.309 81.2871 110.277 81.0151 110.277C80.5991 110.277 80.2351 110.333 79.9231 110.445C79.6111 110.549 79.3511 110.713 79.1431 110.937C78.9431 111.153 78.7911 111.425 78.6871 111.753C78.5831 112.081 78.5311 112.461 78.5311 112.893V113.253C78.5311 113.853 78.6191 114.345 78.7951 114.729C78.9711 115.113 79.2351 115.401 79.5871 115.593C79.9391 115.777 80.3751 115.869 80.8951 115.869C81.3271 115.869 81.7071 115.805 82.0351 115.677C82.3711 115.541 82.6311 115.349 82.8151 115.101C83.0071 114.853 83.1031 114.549 83.1031 114.189V114.105H80.6431V112.737H84.8791V117.189H83.7031L83.5471 116.301C83.3071 116.533 83.0471 116.725 82.7671 116.877C82.4951 117.029 82.1911 117.141 81.8551 117.213C81.5191 117.293 81.1431 117.333 80.7271 117.333ZM92.5682 117.333C91.8162 117.333 91.1682 117.213 90.6242 116.973C90.0882 116.733 89.6762 116.373 89.3882 115.893C89.1002 115.405 88.9562 114.801 88.9562 114.081V108.957H90.7562V114.033C90.7562 114.625 90.9122 115.081 91.2242 115.401C91.5362 115.713 91.9842 115.869 92.5682 115.869C93.1522 115.869 93.6002 115.713 93.9122 115.401C94.2322 115.081 94.3922 114.625 94.3922 114.033V108.957H96.1922V114.081C96.1922 114.801 96.0482 115.405 95.7602 115.893C95.4722 116.373 95.0562 116.733 94.5122 116.973C93.9762 117.213 93.3282 117.333 92.5682 117.333ZM100.381 117.189V108.957H102.169V117.189H100.381ZM106.39 117.189V108.957H109.75C110.606 108.957 111.334 109.105 111.934 109.401C112.534 109.697 112.994 110.149 113.314 110.757C113.642 111.357 113.806 112.129 113.806 113.073C113.806 114.009 113.642 114.781 113.314 115.389C112.994 115.997 112.534 116.449 111.934 116.745C111.334 117.041 110.606 117.189 109.75 117.189H106.39ZM108.178 115.713H109.738C110.098 115.713 110.418 115.661 110.698 115.557C110.978 115.453 111.21 115.301 111.394 115.101C111.578 114.893 111.718 114.637 111.814 114.333C111.91 114.021 111.958 113.661 111.958 113.253V112.893C111.958 112.485 111.91 112.129 111.814 111.825C111.718 111.513 111.578 111.257 111.394 111.057C111.21 110.849 110.978 110.693 110.698 110.589C110.418 110.477 110.098 110.421 109.738 110.421H108.178V115.713ZM117.661 117.189V108.957H124.237V110.421H119.461V112.257H123.685V113.709H119.461V115.713H124.309V117.189H117.661Z" fill="#222222"/>
<g clip-path="url(#clip0_67_705)">
<path d="M78.7313 51.5215C77.2819 51.5215 75.8868 51.951 74.697 52.7637C74.3453 53.0039 74.2564 53.4816 74.4984 53.8307C74.7405 54.1798 75.2218 54.268 75.5735 54.0279C76.5043 53.3921 77.5962 53.0561 78.7313 53.0561C81.8073 53.0561 84.3097 55.5396 84.3097 58.5924C84.3097 61.6451 81.8073 64.1288 78.7313 64.1288C75.6554 64.1288 73.153 61.6451 73.153 58.5924C73.153 57.6918 73.3637 56.8333 73.7792 56.0409C73.9762 55.6649 73.829 55.2016 73.4502 55.0061C73.0713 54.8107 72.6048 54.9566 72.4076 55.3326C71.8838 56.3318 71.6069 57.459 71.6069 58.5924C71.607 62.4914 74.8029 65.6633 78.7313 65.6633C82.6597 65.6633 85.8557 62.4914 85.8557 58.5924C85.8557 54.6935 82.6597 51.5215 78.7313 51.5215Z" fill="#BEAD8E"/>
<path d="M105.137 93.0985L97.5072 74.9039C97.3873 74.6179 97.1058 74.4315 96.7936 74.4315H89.1904C90.6692 72.4459 91.9002 70.4682 92.8615 68.5263C94.5652 65.0848 95.4289 61.7427 95.4289 58.5925C95.4288 49.4546 87.9384 42.0205 78.7314 42.0205C69.5243 42.0205 62.0339 49.4546 62.0339 58.5924C62.0339 61.7426 62.8976 65.0848 64.6013 68.5262C65.5625 70.4681 66.7935 72.4459 68.2724 74.4314H60.6692C60.357 74.4314 60.0754 74.6179 59.9556 74.9038L54.7565 87.302C54.5924 87.6932 54.7789 88.1423 55.1731 88.305C55.2702 88.3452 55.3707 88.3642 55.4698 88.3642C55.7727 88.3642 56.0602 88.1864 56.1837 87.8916L56.9255 86.1225H62.1882L59.461 92.6259H54.1985L54.9891 90.7407C55.1531 90.3494 54.9666 89.9003 54.5724 89.7376C54.178 89.5745 53.7257 89.7599 53.5617 90.151L52.3258 93.0985C52.2265 93.3352 52.2529 93.6057 52.3964 93.819C52.5397 94.0323 52.781 94.1605 53.0394 94.1605H104.423C104.682 94.1605 104.923 94.0323 105.066 93.819C105.21 93.6057 105.236 93.3352 105.137 93.0985ZM63.58 58.5924C63.58 50.3007 70.3769 43.555 78.7314 43.555C87.0858 43.555 93.8827 50.3008 93.8827 58.5924C93.8827 62.0694 92.6654 67.6255 87.0343 74.706C87.0287 74.7126 87.0236 74.7196 87.0182 74.7264C86.7306 75.0877 86.4319 75.4527 86.1208 75.8219C83.0264 79.4943 79.8951 82.1759 78.7313 83.1287C77.5708 82.1792 74.4543 79.511 71.3621 75.8456C71.0433 75.4677 70.7375 75.0941 70.4432 74.7244C70.4384 74.7185 70.434 74.7124 70.429 74.7066C64.7982 67.6266 63.58 62.0707 63.58 58.5924ZM61.1848 75.966H66.4475L64.5279 80.5433H59.2653L61.1848 75.966ZM65.7053 92.626L70.5373 81.1035L84.2882 92.626H65.7053ZM86.6848 92.626L70.7281 79.255C70.5397 79.097 70.2866 79.0379 70.0474 79.0955C69.808 79.153 69.6103 79.3206 69.5158 79.5463L64.0308 92.6259H61.1358L64.061 85.65C64.1603 85.4132 64.1338 85.1428 63.9904 84.9295C63.8471 84.7161 63.6057 84.5879 63.3472 84.5879H57.5693L58.6219 82.0777H65.0436C65.3558 82.0777 65.6374 81.8912 65.7572 81.6053L68.1221 75.9659H69.4638C69.6967 76.2541 69.9334 76.5424 70.1764 76.8306C74.1653 81.5588 78.093 84.5944 78.2583 84.7214C78.3977 84.8285 78.5645 84.8818 78.7314 84.8818C78.8982 84.8818 79.0652 84.8284 79.2044 84.7214C79.2953 84.6517 80.5232 83.7022 82.272 82.0778H91.0262C91.4532 82.0778 91.7993 81.7343 91.7993 81.3105C91.7993 80.8868 91.4532 80.5433 91.0262 80.5433H83.8653C84.9371 79.4737 86.1086 78.2266 87.2864 76.8307C87.5294 76.5425 87.7663 76.2543 87.9991 75.966H96.278L98.1974 80.5433H94.1184C93.6914 80.5433 93.3453 80.8868 93.3453 81.3105C93.3453 81.7343 93.6913 82.0778 94.1184 82.0778H98.8408L99.8934 84.588H83.9659C83.6432 84.588 83.3546 84.7868 83.2416 85.0868C83.1288 85.3868 83.2154 85.7248 83.4591 85.9347L91.2263 92.626H86.6848ZM93.5849 92.626L86.0358 86.1226H100.537L103.264 92.626H93.5849Z" fill="#BEAD8E"/>
</g>
<rect x="178" width="158" height="158" fill="white"/>
<g clip-path="url(#clip1_67_705)">
<path d="M238.005 72.5312C237.86 72.3874 237.661 72.3047 237.457 72.3047C237.252 72.3047 237.053 72.3874 236.908 72.5312C236.764 72.6759 236.682 72.8754 236.682 73.08C236.682 73.2837 236.764 73.4842 236.908 73.6279C237.053 73.7727 237.252 73.8554 237.457 73.8554C237.661 73.8554 237.86 73.7727 238.005 73.6279C238.15 73.4842 238.232 73.2837 238.232 73.08C238.232 72.8753 238.15 72.6758 238.005 72.5312Z" fill="#BEAD8E"/>
<path d="M282.638 70.3286H280.54V68.8418C280.54 68.1293 279.96 67.5496 279.248 67.5496H278.687V63.6118H281.711C282.092 63.6118 282.435 63.4465 282.654 63.1583C282.872 62.8701 282.938 62.4947 282.834 62.1285L281.127 56.076C280.956 55.4704 280.352 55.0137 279.723 55.0137H276.1C275.471 55.0137 274.868 55.4703 274.697 56.076L272.989 62.1286C272.886 62.4948 272.952 62.8702 273.17 63.1584C273.388 63.4466 273.732 63.6119 274.112 63.6119H277.136V67.5497H276.576C275.863 67.5497 275.284 68.1294 275.284 68.8419V70.3287H273.486V68.2863C273.486 67.5737 272.907 66.994 272.194 66.994H251.262C250.834 66.994 250.487 67.3412 250.487 67.7694C250.487 68.1976 250.834 68.5447 251.262 68.5447H271.936V74.2809H270.85V73.1487C270.85 71.8661 269.806 70.8227 268.524 70.8227H260.484C259.201 70.8227 258.158 71.8661 258.158 73.1487V74.2809H257.094V73.1487C257.094 71.8661 256.051 70.8227 254.768 70.8227H246.728C245.446 70.8227 244.402 71.8661 244.402 73.1487V74.2809H242.994V68.5447H247.747C248.175 68.5447 248.523 68.1976 248.523 67.7694C248.523 67.3412 248.175 66.994 247.747 66.994H242.736C242.023 66.994 241.443 67.5737 241.443 68.2863V70.3287H239.646V68.8421C239.646 68.1295 239.067 67.5498 238.354 67.5498H237.794V63.6118H240.818C241.198 63.6118 241.542 63.4465 241.76 63.1583C241.978 62.8701 242.044 62.4947 241.941 62.1285L240.233 56.076C240.062 55.4704 239.459 55.0137 238.83 55.0137H235.207C234.577 55.0137 233.974 55.4703 233.803 56.076L232.096 62.1285C231.993 62.4947 232.058 62.8701 232.277 63.1583C232.495 63.4465 232.838 63.6118 233.219 63.6118H236.243V67.5497H235.683C234.97 67.5497 234.39 68.1294 234.39 68.8419V70.3286H232.292C231.58 70.3286 231 70.9083 231 71.6209V75.1797V80.9617C231 81.6743 231.58 82.2539 232.292 82.2539H237.546V87.2607C237.546 87.9732 238.126 88.5529 238.838 88.5529H242.39C243.102 88.5529 243.682 87.9732 243.682 87.2607V84.7653H262.944C263.372 84.7653 263.719 84.4182 263.719 83.99C263.719 83.5618 263.372 83.2146 262.944 83.2146H243.424C242.711 83.2146 242.131 83.7943 242.131 84.5069V87.0022H239.097V80.1544H275.833V87.0022H272.799V84.5069C272.799 83.7943 272.219 83.2146 271.507 83.2146H266.666C266.238 83.2146 265.89 83.5618 265.89 83.99C265.89 84.4182 266.238 84.7653 266.666 84.7653H271.248V87.2607C271.248 87.9732 271.828 88.5529 272.54 88.5529H276.092C276.804 88.5529 277.384 87.9732 277.384 87.2607V82.2539H282.638C283.35 82.2539 283.93 81.6743 283.93 80.9617V71.6209C283.93 70.9084 283.35 70.3286 282.638 70.3286ZM274.62 62.0611L276.17 56.5643H279.653L281.204 62.0611H274.62ZM276.834 69.1004H278.989V70.2669H276.834V69.1004ZM259.709 73.1487C259.709 72.7211 260.057 72.3734 260.484 72.3734H268.524C268.952 72.3734 269.299 72.7211 269.299 73.1487V74.2809H259.709V73.1487ZM246.728 72.3734H254.768C255.195 72.3734 255.543 72.7211 255.543 73.1487V74.2809H245.953V73.1487C245.953 72.7211 246.301 72.3734 246.728 72.3734ZM233.726 62.0611L235.277 56.5644H238.76L240.31 62.0611H233.726ZM235.941 69.1004H238.096V70.2669H235.941V69.1004ZM238.463 76.6068V78.6596C237.933 78.8208 237.546 79.3138 237.546 79.8958V80.7032H232.551V75.955H238.557C238.496 76.162 238.463 76.3805 238.463 76.6068ZM232.551 74.4044V71.8793H241.443V74.2808H240.789C240.528 74.2808 240.277 74.3246 240.043 74.4044H232.551ZM274.916 78.6037H240.014V76.6069C240.014 76.1795 240.361 75.8316 240.789 75.8316H274.141C274.569 75.8316 274.916 76.1795 274.916 76.6069V78.6037ZM282.379 80.7032H277.384V79.8958C277.384 79.3138 276.997 78.8208 276.467 78.6596V76.6068C276.467 76.3805 276.434 76.162 276.373 75.955H282.379V80.7032ZM282.379 74.4044H274.887C274.653 74.3246 274.402 74.2808 274.141 74.2808H273.487V71.8793H282.379V74.4044Z" fill="#BEAD8E"/>
<path d="M278.022 72.5321C277.877 72.3874 277.678 72.3047 277.473 72.3047C277.269 72.3047 277.07 72.3874 276.925 72.5321C276.78 72.6758 276.698 72.8753 276.698 73.08C276.698 73.2837 276.78 73.4832 276.925 73.6279C277.069 73.7727 277.269 73.8554 277.473 73.8554C277.678 73.8554 277.877 73.7727 278.022 73.6279C278.166 73.4832 278.248 73.2837 278.248 73.08C278.248 72.8764 278.166 72.6758 278.022 72.5321Z" fill="#BEAD8E"/>
<path d="M268.951 52.4933C269.379 52.4933 269.727 52.1462 269.727 51.718V49.6702C269.727 48.9576 269.147 48.3779 268.434 48.3779H246.496C245.783 48.3779 245.203 48.9576 245.203 49.6702V61.1667C245.203 61.8793 245.783 62.459 246.496 62.459H268.434C269.147 62.459 269.727 61.8793 269.727 61.1667V55.2329C269.727 54.8047 269.379 54.4575 268.951 54.4575C268.523 54.4575 268.176 54.8047 268.176 55.2329V57.4272L264.51 51.0785C264.372 50.8387 264.116 50.6908 263.839 50.6908C263.562 50.6908 263.306 50.8387 263.168 51.0785L259.868 56.7931L257.567 52.8076C257.566 52.8056 257.565 52.804 257.564 52.802C257.498 52.6903 257.404 52.5932 257.284 52.5238C256.913 52.3096 256.439 52.4368 256.224 52.8076L251.547 60.9084H246.754V49.9286H268.176V51.718C268.176 52.1462 268.523 52.4933 268.951 52.4933ZM263.839 53.0168L268.176 60.5286V60.9084H259.283L263.839 53.0168ZM256.896 54.746L258.973 58.3438L257.492 60.9084H253.338L256.896 54.746Z" fill="#BEAD8E"/>
<path d="M250.919 50.8145C249.47 50.8143 248.291 51.9933 248.291 53.4424C248.291 54.8915 249.47 56.0703 250.919 56.0703C252.368 56.0703 253.547 54.8915 253.547 53.4424C253.547 51.9933 252.368 50.8145 250.919 50.8145ZM250.919 54.5197C250.325 54.5197 249.842 54.0364 249.842 53.4424C249.842 52.8483 250.325 52.3651 250.919 52.3651C251.513 52.365 251.996 52.8483 251.996 53.4424C251.996 54.0365 251.513 54.5197 250.919 54.5197Z" fill="#BEAD8E"/>
</g>
<path d="M200.918 118.189V109.957H202.706V116.665H206.858V118.189H200.918ZM213.55 118.333C212.798 118.333 212.15 118.213 211.606 117.973C211.07 117.733 210.658 117.373 210.37 116.893C210.082 116.405 209.938 115.801 209.938 115.081V109.957H211.738V115.033C211.738 115.625 211.894 116.081 212.206 116.401C212.518 116.713 212.966 116.869 213.55 116.869C214.134 116.869 214.582 116.713 214.894 116.401C215.214 116.081 215.374 115.625 215.374 115.033V109.957H217.174V115.081C217.174 115.801 217.03 116.405 216.742 116.893C216.454 117.373 216.038 117.733 215.494 117.973C214.958 118.213 214.31 118.333 213.55 118.333ZM220.558 118.189L223.522 113.857L220.846 109.957H223.03L224.734 112.561H224.794L226.486 109.957H228.538L225.85 113.857L228.814 118.189H226.63L224.65 115.141H224.59L222.622 118.189H220.558ZM235.799 118.333C235.047 118.333 234.399 118.213 233.855 117.973C233.319 117.733 232.907 117.373 232.619 116.893C232.331 116.405 232.187 115.801 232.187 115.081V109.957H233.987V115.033C233.987 115.625 234.143 116.081 234.455 116.401C234.767 116.713 235.215 116.869 235.799 116.869C236.383 116.869 236.831 116.713 237.143 116.401C237.463 116.081 237.623 115.625 237.623 115.033V109.957H239.423V115.081C239.423 115.801 239.279 116.405 238.991 116.893C238.703 117.373 238.287 117.733 237.743 117.973C237.207 118.213 236.559 118.333 235.799 118.333ZM243.612 118.189V109.957H248.124C248.732 109.957 249.236 110.065 249.636 110.281C250.044 110.497 250.348 110.801 250.548 111.193C250.748 111.577 250.848 112.021 250.848 112.525C250.848 113.061 250.728 113.537 250.488 113.953C250.248 114.361 249.9 114.673 249.444 114.889L251.124 118.189H249.144L247.692 115.189H245.4V118.189H243.612ZM245.4 113.773H247.884C248.244 113.773 248.524 113.665 248.724 113.449C248.924 113.225 249.024 112.925 249.024 112.549C249.024 112.309 248.98 112.105 248.892 111.937C248.804 111.761 248.676 111.629 248.508 111.541C248.34 111.453 248.132 111.409 247.884 111.409H245.4V113.773ZM256.931 118.189V114.877L253.739 109.957H255.815L257.855 113.269H257.915L259.943 109.957H261.899L258.731 114.877V118.189H256.931ZM269.491 118.189V109.957H274.003C274.611 109.957 275.115 110.065 275.515 110.281C275.923 110.497 276.227 110.801 276.427 111.193C276.627 111.577 276.727 112.021 276.727 112.525C276.727 113.061 276.607 113.537 276.367 113.953C276.127 114.361 275.779 114.673 275.323 114.889L277.003 118.189H275.023L273.571 115.189H271.279V118.189H269.491ZM271.279 113.773H273.763C274.123 113.773 274.403 113.665 274.603 113.449C274.803 113.225 274.903 112.925 274.903 112.549C274.903 112.309 274.859 112.105 274.771 111.937C274.683 111.761 274.555 111.629 274.387 111.541C274.219 111.453 274.011 111.409 273.763 111.409H271.279V113.773ZM284.45 118.333C283.578 118.333 282.826 118.177 282.194 117.865C281.562 117.553 281.078 117.081 280.742 116.449C280.406 115.817 280.238 115.025 280.238 114.073C280.238 113.105 280.406 112.309 280.742 111.685C281.078 111.053 281.562 110.585 282.194 110.281C282.826 109.969 283.578 109.813 284.45 109.813C285.338 109.813 286.094 109.969 286.718 110.281C287.35 110.585 287.834 111.053 288.17 111.685C288.506 112.309 288.674 113.105 288.674 114.073C288.674 115.025 288.506 115.817 288.17 116.449C287.834 117.081 287.35 117.553 286.718 117.865C286.094 118.177 285.338 118.333 284.45 118.333ZM284.45 116.869C284.842 116.869 285.186 116.813 285.482 116.701C285.778 116.589 286.026 116.421 286.226 116.197C286.426 115.973 286.578 115.701 286.682 115.381C286.786 115.053 286.838 114.681 286.838 114.265V113.893C286.838 113.469 286.786 113.093 286.682 112.765C286.578 112.437 286.426 112.165 286.226 111.949C286.026 111.725 285.778 111.557 285.482 111.445C285.186 111.333 284.842 111.277 284.45 111.277C284.066 111.277 283.726 111.333 283.43 111.445C283.134 111.557 282.886 111.725 282.686 111.949C282.486 112.165 282.334 112.437 282.23 112.765C282.134 113.093 282.086 113.469 282.086 113.893V114.265C282.086 114.681 282.134 115.053 282.23 115.381C282.334 115.701 282.486 115.973 282.686 116.197C282.886 116.421 283.134 116.589 283.43 116.701C283.726 116.813 284.066 116.869 284.45 116.869ZM296.366 118.333C295.494 118.333 294.742 118.177 294.11 117.865C293.478 117.553 292.994 117.081 292.658 116.449C292.322 115.817 292.154 115.025 292.154 114.073C292.154 113.105 292.322 112.309 292.658 111.685C292.994 111.053 293.478 110.585 294.11 110.281C294.742 109.969 295.494 109.813 296.366 109.813C297.254 109.813 298.01 109.969 298.634 110.281C299.266 110.585 299.75 111.053 300.086 111.685C300.422 112.309 300.59 113.105 300.59 114.073C300.59 115.025 300.422 115.817 300.086 116.449C299.75 117.081 299.266 117.553 298.634 117.865C298.01 118.177 297.254 118.333 296.366 118.333ZM296.366 116.869C296.758 116.869 297.102 116.813 297.398 116.701C297.694 116.589 297.942 116.421 298.142 116.197C298.342 115.973 298.494 115.701 298.598 115.381C298.702 115.053 298.754 114.681 298.754 114.265V113.893C298.754 113.469 298.702 113.093 298.598 112.765C298.494 112.437 298.342 112.165 298.142 111.949C297.942 111.725 297.694 111.557 297.398 111.445C297.102 111.333 296.758 111.277 296.366 111.277C295.982 111.277 295.642 111.333 295.346 111.445C295.05 111.557 294.802 111.725 294.602 111.949C294.402 112.165 294.25 112.437 294.146 112.765C294.05 113.093 294.002 113.469 294.002 113.893V114.265C294.002 114.681 294.05 115.053 294.146 115.381C294.25 115.701 294.402 115.973 294.602 116.197C294.802 116.421 295.05 116.589 295.346 116.701C295.642 116.813 295.982 116.869 296.366 116.869ZM304.441 118.189V109.957H307.165L308.341 114.169C308.389 114.321 308.437 114.501 308.485 114.709C308.533 114.917 308.581 115.125 308.629 115.333C308.685 115.533 308.729 115.713 308.761 115.873H308.857C308.873 115.737 308.901 115.577 308.941 115.393C308.981 115.201 309.025 114.997 309.073 114.781C309.121 114.565 309.173 114.357 309.229 114.157L310.405 109.957H313.081V118.189H311.317V114.289C311.317 113.929 311.317 113.569 311.317 113.209C311.325 112.841 311.333 112.521 311.341 112.249C311.357 111.977 311.365 111.801 311.365 111.721H311.269C311.253 111.809 311.213 111.973 311.149 112.213C311.093 112.445 311.029 112.693 310.957 112.957C310.893 113.221 310.833 113.449 310.777 113.641L309.493 118.189H307.933L306.637 113.653C306.589 113.485 306.533 113.289 306.469 113.065C306.413 112.833 306.357 112.597 306.301 112.357C306.253 112.109 306.205 111.897 306.157 111.721H306.061C306.069 111.937 306.077 112.197 306.085 112.501C306.093 112.797 306.101 113.105 306.109 113.425C306.117 113.737 306.121 114.025 306.121 114.289V118.189H304.441Z" fill="#222222"/>
<defs>
<clipPath id="clip0_67_705">
<rect width="52.93" height="52.14" fill="white" transform="translate(52.2664 42.0205)"/>
</clipPath>
<clipPath id="clip1_67_705">
<rect width="52.93" height="52.93" fill="white" transform="translate(231 42)"/>
</clipPath>
</defs>
</svg>
